<?xml version="1.0" encoding="UTF-8" standalone="no"?>
<!-- Created with Inkscape (http://www.inkscape.org/) -->

<svg
   xmlns:dc="http://purl.org/dc/elements/1.1/"
   xmlns:cc="http://creativecommons.org/ns#"
   xmlns:rdf="http://www.w3.org/1999/02/22-rdf-syntax-ns#"
   xmlns:svg="http://www.w3.org/2000/svg"
   xmlns="http://www.w3.org/2000/svg"
   xmlns:sodipodi="http://sodipodi.sourceforge.net/DTD/sodipodi-0.dtd"
   xmlns:inkscape="http://www.inkscape.org/namespaces/inkscape"
   id="svg2"
   version="1.1"
   inkscape:version="0.91 r13725"
   xml:space="preserve"
   width="2400"
   height="1350"
   viewBox="0 0 2400 1350"
   sodipodi:docname="Anabelle-Sad-Eyes-Blink.svg"><metadata
     id="metadata8"><rdf:RDF><cc:Work
         rdf:about=""><dc:format>image/svg+xml</dc:format><dc:type
           rdf:resource="http://purl.org/dc/dcmitype/StillImage" /><dc:title></dc:title></cc:Work></rdf:RDF></metadata><defs
     id="defs6"><clipPath
       clipPathUnits="userSpaceOnUse"
       id="clipPath16"><path
         d="m 0,1080 1920,0 L 1920,0 0,0 0,1080 Z"
         id="path18"
         inkscape:connector-curvature="0" /></clipPath></defs><sodipodi:namedview
     pagecolor="#ffffff"
     bordercolor="#666666"
     borderopacity="1"
     objecttolerance="10"
     gridtolerance="10"
     guidetolerance="10"
     inkscape:pageopacity="0"
     inkscape:pageshadow="2"
     inkscape:window-width="640"
     inkscape:window-height="480"
     id="namedview4"
     showgrid="false"
     inkscape:zoom="0.16833333"
     inkscape:cx="629.70297"
     inkscape:cy="675"
     inkscape:window-x="0"
     inkscape:window-y="0"
     inkscape:window-maximized="0"
     inkscape:current-layer="g10" /><g
     id="g10"
     inkscape:groupmode="layer"
     inkscape:label="Anabelle-Sad-Eyes-Blink"
     transform="matrix(1.25,0,0,-1.25,0,1350)"><g
       id="g12"><g
         id="g14"
         clip-path="url(#clipPath16)"><g
           id="g20"
           transform="translate(1723.0469,663.7925)"><path
             d="M 0,0 C -8.047,30.214 -162.153,54.645 -314.38,141.095 -463.08,225.542 -556.815,114.784 -614.969,33 c 95.74,-123.064 134.53,-70.443 304.348,-70.443 C -140.801,-37.443 -4.288,-54.357 0,0"
             style="fill:#ffffff;fill-opacity:1;fill-rule:nonzero;stroke:none"
             id="path22"
             inkscape:connector-curvature="0" /></g><g
           id="g24"
           transform="translate(1723.0469,663.7925)"><path
             d="M 0,0 C -8.047,30.214 -162.153,54.645 -314.38,141.095 -463.08,225.542 -556.815,114.784 -614.969,33 c 95.74,-123.064 134.53,-70.443 304.348,-70.443 C -140.801,-37.443 -4.288,-54.357 0,0 Z"
             style="fill:none;stroke:#231f20;stroke-width:9;stroke-linecap:butt;stroke-linejoin:miter;stroke-miterlimit:4;stroke-dasharray:none;stroke-opacity:1"
             id="path26"
             inkscape:connector-curvature="0" /></g><g
           id="g28"
           transform="translate(1298.1826,835.3774)"><path
             d="m 0,0 c -31.524,-26.456 -47.612,-62.354 -47.612,-103.903 0,-47.09 26.133,-85.348 66.004,-108.899 3.494,0.12 196.535,7.976 204.16,3.881 34.951,23.763 56.347,57.152 56.347,101.738 C 171.717,-75.196 80.032,2.917 0,0"
             style="fill:#00b0d8;fill-opacity:1;fill-rule:nonzero;stroke:none"
             id="path30"
             inkscape:connector-curvature="0" /></g><g
           id="g32"
           transform="translate(1298.1826,835.3774)"><path
             d="m 0,0 c -31.524,-26.456 -47.612,-62.354 -47.612,-103.903 0,-47.09 26.133,-85.348 66.004,-108.899 3.494,0.12 196.535,7.976 204.16,3.881 34.951,23.763 56.347,57.152 56.347,101.738 C 171.717,-75.196 80.032,2.917 0,0 Z"
             style="fill:none;stroke:#231f20;stroke-width:9;stroke-linecap:butt;stroke-linejoin:miter;stroke-miterlimit:4;stroke-dasharray:none;stroke-opacity:1"
             id="path34"
             inkscape:connector-curvature="0" /></g><g
           id="g36"
           transform="translate(502.6992,626.3496)"><path
             d="M 0,0 C 169.818,0 208.607,-52.622 304.348,70.443 246.194,152.227 152.459,262.985 3.759,178.538 -148.468,92.088 -302.574,67.657 -310.621,37.443 -306.333,-16.914 -169.82,0 0,0"
             style="fill:#ffffff;fill-opacity:1;fill-rule:nonzero;stroke:none"
             id="path38"
             inkscape:connector-curvature="0" /></g><g
           id="g40"
           transform="translate(502.6992,626.3496)"><path
             d="M 0,0 C 169.818,0 208.607,-52.622 304.348,70.443 246.194,152.227 152.459,262.985 3.759,178.538 -148.468,92.088 -302.574,67.657 -310.621,37.443 -306.333,-16.914 -169.82,0 0,0 Z"
             style="fill:none;stroke:#231f20;stroke-width:9;stroke-linecap:butt;stroke-linejoin:miter;stroke-miterlimit:4;stroke-dasharray:none;stroke-opacity:1"
             id="path42"
             inkscape:connector-curvature="0" /></g><g
           id="g44"
           transform="translate(338.043,728.1943)"><path
             d="m 0,0 c 0,-44.585 21.396,-77.975 56.348,-101.738 7.625,4.095 200.666,-3.761 204.16,-3.881 39.87,23.551 66.004,61.809 66.004,108.899 0,41.549 -16.088,77.447 -47.613,103.903 C 198.867,110.101 107.183,31.987 0,0"
             style="fill:#00b0d8;fill-opacity:1;fill-rule:nonzero;stroke:none"
             id="path46"
             inkscape:connector-curvature="0" /></g><g
           id="g48"
           transform="translate(338.043,728.1943)"><path
             d="m 0,0 c 0,-44.585 21.396,-77.975 56.348,-101.738 7.625,4.095 200.666,-3.761 204.16,-3.881 39.87,23.551 66.004,61.809 66.004,108.899 0,41.549 -16.088,77.447 -47.613,103.903 C 198.867,110.101 107.183,31.987 0,0 Z"
             style="fill:none;stroke:#231f20;stroke-width:9;stroke-linecap:butt;stroke-linejoin:miter;stroke-miterlimit:4;stroke-dasharray:none;stroke-opacity:1"
             id="path50"
             inkscape:connector-curvature="0" /></g></g></g></g></svg>