<?xml version="1.0" encoding="UTF-8" standalone="no"?>
<!-- Created with Inkscape (http://www.inkscape.org/) -->

<svg
   xmlns:dc="http://purl.org/dc/elements/1.1/"
   xmlns:cc="http://creativecommons.org/ns#"
   xmlns:rdf="http://www.w3.org/1999/02/22-rdf-syntax-ns#"
   xmlns:svg="http://www.w3.org/2000/svg"
   xmlns="http://www.w3.org/2000/svg"
   xmlns:sodipodi="http://sodipodi.sourceforge.net/DTD/sodipodi-0.dtd"
   xmlns:inkscape="http://www.inkscape.org/namespaces/inkscape"
   id="svg2"
   version="1.1"
   inkscape:version="0.91 r13725"
   xml:space="preserve"
   width="2400"
   height="1350"
   viewBox="0 0 2400 1350"
   sodipodi:docname="Anabelle-Angry-Eyes-Open.svg"><metadata
     id="metadata8"><rdf:RDF><cc:Work
         rdf:about=""><dc:format>image/svg+xml</dc:format><dc:type
           rdf:resource="http://purl.org/dc/dcmitype/StillImage" /><dc:title></dc:title></cc:Work></rdf:RDF></metadata><defs
     id="defs6"><clipPath
       clipPathUnits="userSpaceOnUse"
       id="clipPath16"><path
         d="m 0,1080 1920,0 L 1920,0 0,0 0,1080 Z"
         id="path18"
         inkscape:connector-curvature="0" /></clipPath></defs><sodipodi:namedview
     pagecolor="#ffffff"
     bordercolor="#666666"
     borderopacity="1"
     objecttolerance="10"
     gridtolerance="10"
     guidetolerance="10"
     inkscape:pageopacity="0"
     inkscape:pageshadow="2"
     inkscape:window-width="640"
     inkscape:window-height="480"
     id="namedview4"
     showgrid="false"
     inkscape:zoom="0.17416667"
     inkscape:cx="648.80383"
     inkscape:cy="675"
     inkscape:window-x="0"
     inkscape:window-y="0"
     inkscape:window-maximized="0"
     inkscape:current-layer="g10" /><g
     id="g10"
     inkscape:groupmode="layer"
     inkscape:label="Anabelle-Angry-Eyes-Open"
     transform="matrix(1.25,0,0,-1.25,0,1350)"><g
       id="g12"><g
         id="g14"
         clip-path="url(#clipPath16)"><g
           id="g20"
           transform="translate(1417.1143,862.5889)"><path
             d="m 0,0 c -173.389,-61.394 -307.485,-227.743 -307.485,-227.743 l 41.057,-76.801 c 0,0 152.559,-2.94 266.428,-2.94 169.818,0 304.611,-1.91 304.611,-1.91 0,0 22.946,425.376 -304.611,309.394 m -921.848,0 c -332.582,115.982 -309.286,-309.394 -309.286,-309.394 0,0 136.861,1.91 309.286,1.91 115.616,0 270.515,2.94 270.515,2.94 l 41.687,76.801 c 0,0 -136.154,166.349 -312.202,227.743"
             style="fill:#ffffff;fill-opacity:1;fill-rule:nonzero;stroke:none"
             id="path22"
             inkscape:connector-curvature="0" /></g><g
           id="g24"
           transform="translate(1417.1143,862.5889)"><path
             d="m 0,0 c -173.389,-61.394 -307.485,-227.743 -307.485,-227.743 l 41.057,-76.801 c 0,0 152.559,-2.94 266.428,-2.94 169.818,0 304.611,-1.91 304.611,-1.91 0,0 22.946,425.376 -304.611,309.394 z m -921.848,0 c -332.582,115.982 -309.286,-309.394 -309.286,-309.394 0,0 136.861,1.91 309.286,1.91 115.616,0 270.515,2.94 270.515,2.94 l 41.687,76.801 c 0,0 -136.154,166.349 -312.202,227.743 z"
             style="fill:none;stroke:#231f20;stroke-width:9;stroke-linecap:butt;stroke-linejoin:miter;stroke-miterlimit:4;stroke-dasharray:none;stroke-opacity:1"
             id="path26"
             inkscape:connector-curvature="0" /></g><g
           id="g28"
           transform="translate(1341.4229,807.1948)"><path
             d="m 0,0 c -71.963,0 -130.302,-56.539 -130.302,-126.283 0,-69.744 58.339,-126.283 130.302,-126.283 71.965,0 130.303,56.539 130.303,126.283 C 130.303,-56.539 71.965,0 0,0 m -769.305,0 c -73.068,0 -132.301,-56.539 -132.301,-126.283 0,-69.744 59.233,-126.283 132.301,-126.283 73.068,0 132.301,56.539 132.301,126.283 C -637.004,-56.539 -696.237,0 -769.305,0"
             style="fill:#00b0d8;fill-opacity:1;fill-rule:nonzero;stroke:none"
             id="path30"
             inkscape:connector-curvature="0" /></g><g
           id="g32"
           transform="translate(1341.4229,807.1948)"><path
             d="m 0,0 c -71.963,0 -130.302,-56.539 -130.302,-126.283 0,-69.744 58.339,-126.283 130.302,-126.283 71.965,0 130.303,56.539 130.303,126.283 C 130.303,-56.539 71.965,0 0,0 Z m -769.305,0 c -73.068,0 -132.301,-56.539 -132.301,-126.283 0,-69.744 59.233,-126.283 132.301,-126.283 73.068,0 132.301,56.539 132.301,126.283 C -637.004,-56.539 -696.237,0 -769.305,0 Z"
             style="fill:none;stroke:#231f20;stroke-width:9;stroke-linecap:butt;stroke-linejoin:miter;stroke-miterlimit:4;stroke-dasharray:none;stroke-opacity:1"
             id="path34"
             inkscape:connector-curvature="0" /></g></g></g></g></svg>