<?xml version="1.0" encoding="UTF-8" standalone="no"?>
<!-- Created with Inkscape (http://www.inkscape.org/) -->

<svg
   xmlns:dc="http://purl.org/dc/elements/1.1/"
   xmlns:cc="http://creativecommons.org/ns#"
   xmlns:rdf="http://www.w3.org/1999/02/22-rdf-syntax-ns#"
   xmlns:svg="http://www.w3.org/2000/svg"
   xmlns="http://www.w3.org/2000/svg"
   xmlns:sodipodi="http://sodipodi.sourceforge.net/DTD/sodipodi-0.dtd"
   xmlns:inkscape="http://www.inkscape.org/namespaces/inkscape"
   id="svg2"
   version="1.1"
   inkscape:version="0.91 r13725"
   xml:space="preserve"
   width="2400"
   height="1350"
   viewBox="0 0 2400 1350"
   sodipodi:docname="Anabelle-Mischevious-Eyes-Blink.svg"><metadata
     id="metadata8"><rdf:RDF><cc:Work
         rdf:about=""><dc:format>image/svg+xml</dc:format><dc:type
           rdf:resource="http://purl.org/dc/dcmitype/StillImage" /><dc:title></dc:title></cc:Work></rdf:RDF></metadata><defs
     id="defs6"><clipPath
       clipPathUnits="userSpaceOnUse"
       id="clipPath16"><path
         d="m 0,1080 1920,0 L 1920,0 0,0 0,1080 Z"
         id="path18"
         inkscape:connector-curvature="0" /></clipPath></defs><sodipodi:namedview
     pagecolor="#ffffff"
     bordercolor="#666666"
     borderopacity="1"
     objecttolerance="10"
     gridtolerance="10"
     guidetolerance="10"
     inkscape:pageopacity="0"
     inkscape:pageshadow="2"
     inkscape:window-width="640"
     inkscape:window-height="480"
     id="namedview4"
     showgrid="false"
     inkscape:zoom="0.17481481"
     inkscape:cx="650.84746"
     inkscape:cy="675"
     inkscape:window-x="0"
     inkscape:window-y="0"
     inkscape:window-maximized="0"
     inkscape:current-layer="g10" /><g
     id="g10"
     inkscape:groupmode="layer"
     inkscape:label="Anabelle-Mischevious-Eyes-Blink"
     transform="matrix(1.25,0,0,-1.25,0,1350)"><g
       id="g12"><g
         id="g14"
         clip-path="url(#clipPath16)"><g
           id="g20"
           transform="translate(1414.749,840.6392)"><path
             d="m 0,0 c -168.78,0 -305.698,-283.326 -305.698,-283.326 0,0 147.286,145.844 316.065,145.844 168.78,0 297.402,-104.997 297.402,-104.997 C 307.769,-242.479 168.779,0 0,0 m -916.833,0 c -169.819,0 -308.945,-242.479 -308.945,-242.479 0,0 138.514,95.846 308.334,95.846 169.819,0 308,-136.471 308,-136.471 0,0 -137.569,283.104 -307.389,283.104"
             style="fill:#ffffff;fill-opacity:1;fill-rule:nonzero;stroke:none"
             id="path22"
             inkscape:connector-curvature="0" /></g><g
           id="g24"
           transform="translate(1414.749,840.6392)"><path
             d="m 0,0 c -168.78,0 -305.698,-283.326 -305.698,-283.326 0,0 147.286,145.844 316.065,145.844 168.78,0 297.402,-104.997 297.402,-104.997 C 307.769,-242.479 168.779,0 0,0 Z m -916.833,0 c -169.819,0 -308.945,-242.479 -308.945,-242.479 0,0 138.514,95.846 308.334,95.846 169.819,0 308,-136.471 308,-136.471 0,0 -137.569,283.104 -307.389,283.104 z"
             style="fill:none;stroke:#231f20;stroke-width:9;stroke-linecap:butt;stroke-linejoin:miter;stroke-miterlimit:4;stroke-dasharray:none;stroke-opacity:1"
             id="path26"
             inkscape:connector-curvature="0" /></g><g
           id="g28"
           transform="translate(1416.1113,839.834)"><path
             d="m 0,0 c -89.741,0 -154.033,-63.137 -163.213,-128.717 -2.104,-15.036 6.392,-37.389 12.939,-47.18 152.226,69.536 264.306,37.981 306.535,14.839 4.228,9.386 5.508,18.317 5.508,32.341 C 161.769,-55.376 89.741,0 0,0 m -922.686,-1.118 c -90.294,0 -158.369,-54.153 -158.369,-127.378 0,-16.115 3.492,-29.231 9.901,-39.884 150.599,33.559 207.266,19.878 300.695,-9.397 7.123,10.891 16.235,32.477 16.388,49.281 0.526,57.842 -78.321,127.378 -168.615,127.378"
             style="fill:#00b0d8;fill-opacity:1;fill-rule:nonzero;stroke:none"
             id="path30"
             inkscape:connector-curvature="0" /></g><g
           id="g32"
           transform="translate(1416.1113,839.834)"><path
             d="m 0,0 c -89.741,0 -154.033,-63.137 -163.213,-128.717 -2.104,-15.036 6.392,-37.389 12.939,-47.18 152.226,69.536 264.306,37.981 306.535,14.839 4.228,9.386 5.508,18.317 5.508,32.341 C 161.769,-55.376 89.741,0 0,0 Z m -922.686,-1.118 c -90.294,0 -158.369,-54.153 -158.369,-127.378 0,-16.115 3.492,-29.231 9.901,-39.884 150.599,33.559 207.266,19.878 300.695,-9.397 7.123,10.891 16.235,32.477 16.388,49.281 0.526,57.842 -78.321,127.378 -168.615,127.378 z"
             style="fill:none;stroke:#231f20;stroke-width:9;stroke-linecap:butt;stroke-linejoin:miter;stroke-miterlimit:4;stroke-dasharray:none;stroke-opacity:1"
             id="path34"
             inkscape:connector-curvature="0" /></g></g></g></g></svg>