<?xml version="1.0" encoding="UTF-8" standalone="no"?>
<svg
   xmlns:dc="http://purl.org/dc/elements/1.1/"
   xmlns:cc="http://creativecommons.org/ns#"
   xmlns:rdf="http://www.w3.org/1999/02/22-rdf-syntax-ns#"
   xmlns:svg="http://www.w3.org/2000/svg"
   xmlns="http://www.w3.org/2000/svg"
   viewBox="0 0 2400 1350"
   height="1350"
   width="2400"
   xml:space="preserve"
   version="1.1"
   id="svg2"><metadata
     id="metadata8"><rdf:RDF><cc:Work
         rdf:about=""><dc:format>image/svg+xml</dc:format><dc:type
           rdf:resource="http://purl.org/dc/dcmitype/StillImage" /><dc:title></dc:title></cc:Work></rdf:RDF></metadata><defs
     id="defs6"><clipPath
       id="clipPath16"
       clipPathUnits="userSpaceOnUse"><path
         id="path18"
         d="m 0,1080 1920,0 L 1920,0 0,0 0,1080 Z" /></clipPath></defs><g
     transform="matrix(1.25,0,0,-1.25,0,1350)"
     id="g10"><g
       id="g12"><g
         clip-path="url(#clipPath16)"
         id="g14"><g
           transform="translate(1701.29,692.333)"
           id="g20"><path
             id="path22"
             style="fill:#ffffff;fill-opacity:1;fill-rule:nonzero;stroke:none"
             d="m 0,0 c -32.354,80.041 -233.076,165.378 -282.682,164.705 -334.452,-4.543 -308.984,-304.485 -308.984,-304.485 0,0 140.665,22.499 310.484,22.499 169.82,0 304.485,-22.499 304.485,-22.499 0,0 5.698,68.032 -23.303,139.78 m -1206.636,166.205 c -32.874,0 -62.27,-2.941 -88.555,-8.245 -7.196,-7.195 -188.132,-129.876 -197.382,-157.872 -28.67,-71.227 -23.048,-138.368 -23.048,-138.368 0,0 140.666,22.499 310.485,22.499 169.82,0 304.485,-22.499 304.485,-22.499 0,0 25.499,304.485 -305.985,304.485" /></g><g
           transform="translate(1701.29,692.333)"
           id="g24"><path
             id="path26"
             style="fill:none;stroke:#231f20;stroke-width:9;stroke-linecap:butt;stroke-linejoin:miter;stroke-miterlimit:4;stroke-dasharray:none;stroke-opacity:1"
             d="m 0,0 c -32.354,80.041 -233.076,165.378 -282.682,164.705 -334.452,-4.543 -308.984,-304.485 -308.984,-304.485 0,0 140.665,22.499 310.484,22.499 169.82,0 304.485,-22.499 304.485,-22.499 0,0 5.698,68.032 -23.303,139.78 z m -1206.636,166.205 c -32.874,0 -62.27,-2.941 -88.555,-8.245 -7.196,-7.195 -188.132,-129.876 -197.382,-157.872 -28.67,-71.227 -23.048,-138.368 -23.048,-138.368 0,0 140.666,22.499 310.485,22.499 169.82,0 304.485,-22.499 304.485,-22.499 0,0 25.499,304.485 -305.985,304.485 z" /></g><g
           transform="translate(1638.6543,759.6045)"
           id="g28"><path
             id="path30"
             style="fill:#00b0d8;fill-opacity:1;fill-rule:nonzero;stroke:none"
             d="m 0,0 c -13.793,27.344 -173.78,90.024 -183.258,88.596 -76.356,-11.51 -134.283,-67.338 -134.283,-134.475 0,-75.469 73.198,-136.648 163.492,-136.648 90.294,0 163.491,61.179 163.491,136.648 C 9.442,-29.785 7.021,-13.918 0,0 m -1078.003,92.271 c -90.294,0 -163.492,-61.181 -163.492,-136.65 0,-75.469 73.198,-136.648 163.492,-136.648 90.294,0 163.492,61.179 163.492,136.648 0,75.469 -73.198,136.65 -163.492,136.65" /></g><g
           transform="translate(1638.6543,759.6045)"
           id="g32"><path
             id="path34"
             style="fill:none;stroke:#231f20;stroke-width:9;stroke-linecap:butt;stroke-linejoin:miter;stroke-miterlimit:4;stroke-dasharray:none;stroke-opacity:1"
             d="m 0,0 c -13.793,27.344 -173.78,90.024 -183.258,88.596 -76.356,-11.51 -134.283,-67.338 -134.283,-134.475 0,-75.469 73.198,-136.648 163.492,-136.648 90.294,0 163.491,61.179 163.491,136.648 C 9.442,-29.785 7.021,-13.918 0,0 Z m -1078.003,92.271 c -90.294,0 -163.492,-61.181 -163.492,-136.65 0,-75.469 73.198,-136.648 163.492,-136.648 90.294,0 163.492,61.179 163.492,136.648 0,75.469 -73.198,136.65 -163.492,136.65 z" /></g></g></g></g></svg>