<?xml version="1.0" encoding="UTF-8" standalone="no"?>
<!-- Created with Inkscape (http://www.inkscape.org/) -->

<svg
   xmlns:dc="http://purl.org/dc/elements/1.1/"
   xmlns:cc="http://creativecommons.org/ns#"
   xmlns:rdf="http://www.w3.org/1999/02/22-rdf-syntax-ns#"
   xmlns:svg="http://www.w3.org/2000/svg"
   xmlns="http://www.w3.org/2000/svg"
   xmlns:sodipodi="http://sodipodi.sourceforge.net/DTD/sodipodi-0.dtd"
   xmlns:inkscape="http://www.inkscape.org/namespaces/inkscape"
   id="svg2"
   version="1.1"
   inkscape:version="0.91 r13725"
   xml:space="preserve"
   width="2400"
   height="1350"
   viewBox="0 0 2400 1350"
   sodipodi:docname="Anabelle-Bedroom-Eyes-Blink.svg"><metadata
     id="metadata8"><rdf:RDF><cc:Work
         rdf:about=""><dc:format>image/svg+xml</dc:format><dc:type
           rdf:resource="http://purl.org/dc/dcmitype/StillImage" /><dc:title></dc:title></cc:Work></rdf:RDF></metadata><defs
     id="defs6"><clipPath
       clipPathUnits="userSpaceOnUse"
       id="clipPath16"><path
         d="m 0,1080 1920,0 L 1920,0 0,0 0,1080 Z"
         id="path18"
         inkscape:connector-curvature="0" /></clipPath><clipPath
       clipPathUnits="userSpaceOnUse"
       id="clipPath44"><path
         d="m 0,1080 1920,0 L 1920,0 0,0 0,1080 Z"
         id="path46"
         inkscape:connector-curvature="0" /></clipPath></defs><sodipodi:namedview
     pagecolor="#ffffff"
     bordercolor="#666666"
     borderopacity="1"
     objecttolerance="10"
     gridtolerance="10"
     guidetolerance="10"
     inkscape:pageopacity="0"
     inkscape:pageshadow="2"
     inkscape:window-width="640"
     inkscape:window-height="480"
     id="namedview4"
     showgrid="false"
     inkscape:zoom="0.17481481"
     inkscape:cx="650.84746"
     inkscape:cy="675"
     inkscape:window-x="0"
     inkscape:window-y="0"
     inkscape:window-maximized="0"
     inkscape:current-layer="g10" /><g
     id="g10"
     inkscape:groupmode="layer"
     inkscape:label="Anabelle-Bedroom-Eyes-Blink"
     transform="matrix(1.25,0,0,-1.25,0,1350)"><g
       id="g12"><g
         id="g14"
         clip-path="url(#clipPath16)"><g
           id="g20"
           transform="translate(232.1987,811.25)"><path
             d="m 0,0 c -77.85,-32.25 30.494,-105.917 30.494,-105.917 l 19.21,-5.567 c 0,0 -87.065,42.74 -49.704,111.484 m -28.394,6.725 c -61.37,-25.423 -5.132,-74.547 21.429,-94.207 -19.129,9.404 -85.032,46.455 -53.559,97.196 -62.507,-25.894 0.727,-70.781 28.082,-87.47 -23.399,7.597 -71.519,30.074 -64.696,85.228 -48.57,-64.261 56.964,-88.536 56.964,-88.536 l 13.298,0 c 3.54,-2.047 5.704,-3.187 5.704,-3.187 l 16.206,-4.697 c 6.048,-4.391 10.127,-6.969 10.127,-6.969 l 19.21,-5.567 c 0,0 -102.829,46.937 -52.765,108.209"
             style="fill:#231f20;fill-opacity:1;fill-rule:nonzero;stroke:none"
             id="path22"
             inkscape:connector-curvature="0" /></g><g
           id="g24"
           transform="translate(489.9888,661.0596)"><path
             d="m 0,0 c -169.819,0 -300.529,80.678 -300.529,71.51 0,-63.034 135.193,-148.473 305.012,-148.473 169.82,0 303.371,50.811 309.957,148.473 C 315.057,80.657 169.819,0 0,0"
             style="fill:#ffffff;fill-opacity:1;fill-rule:nonzero;stroke:none"
             id="path26"
             inkscape:connector-curvature="0" /></g><g
           id="g28"
           transform="translate(489.9888,661.0596)"><path
             d="m 0,0 c -169.819,0 -300.529,80.678 -300.529,71.51 0,-63.034 135.193,-148.473 305.012,-148.473 169.82,0 303.371,50.811 309.957,148.473 C 315.057,80.657 169.819,0 0,0 Z"
             style="fill:none;stroke:#231f20;stroke-width:9;stroke-linecap:butt;stroke-linejoin:miter;stroke-miterlimit:4;stroke-dasharray:none;stroke-opacity:1"
             id="path30"
             inkscape:connector-curvature="0" /></g><g
           id="g32"
           transform="translate(486.2524,658.8179)"><path
             d="m 0,0 c -78.868,-0.285 -156.168,25.19 -156.168,23.911 0,-80.025 74.093,-95.644 164.387,-95.644 90.294,0 171.113,20.102 171.113,100.128 C 179.332,29.435 85.528,0.311 0,0"
             style="fill:#00b0d8;fill-opacity:1;fill-rule:nonzero;stroke:none"
             id="path34"
             inkscape:connector-curvature="0" /></g><g
           id="g36"
           transform="translate(486.2524,658.8179)"><path
             d="m 0,0 c -78.868,-0.285 -156.168,25.19 -156.168,23.911 0,-80.025 74.093,-95.644 164.387,-95.644 90.294,0 171.113,20.102 171.113,100.128 C 179.332,29.435 85.528,0.311 0,0 Z"
             style="fill:none;stroke:#231f20;stroke-width:9;stroke-linecap:butt;stroke-linejoin:miter;stroke-miterlimit:4;stroke-dasharray:none;stroke-opacity:1"
             id="path38"
             inkscape:connector-curvature="0" /></g></g></g><g
       id="g40"><g
         id="g42"
         clip-path="url(#clipPath44)"><g
           id="g48"
           transform="translate(1678.5137,811.25)"><path
             d="m 0,0 c 37.361,-68.744 -49.703,-111.484 -49.703,-111.484 l 19.209,5.567 c 0,0 108.345,73.667 30.494,105.917 m 97.139,7.472 c 6.822,-55.154 -41.297,-77.631 -64.697,-85.228 27.355,16.689 90.589,61.576 28.083,87.47 31.472,-50.741 -34.43,-87.792 -53.559,-97.196 26.561,19.66 82.798,68.784 21.429,94.207 50.063,-61.272 -52.765,-108.209 -52.765,-108.209 l 19.21,5.567 c 0,0 4.078,2.578 10.127,6.969 l 16.206,4.697 c 0,0 2.164,1.14 5.704,3.187 l 13.298,0 c 0,0 105.533,24.275 56.964,88.536"
             style="fill:#231f20;fill-opacity:1;fill-rule:nonzero;stroke:none"
             id="path50"
             inkscape:connector-curvature="0" /></g><g
           id="g52"
           transform="translate(1106.2832,732.5698)"><path
             d="m 0,0 c 6.588,-97.663 140.138,-148.474 309.957,-148.474 169.82,0 305.013,85.44 305.013,148.474 0,9.168 -130.71,-71.51 -300.529,-71.51 C 144.621,-71.51 -0.616,9.147 0,0"
             style="fill:#ffffff;fill-opacity:1;fill-rule:nonzero;stroke:none"
             id="path54"
             inkscape:connector-curvature="0" /></g><g
           id="g56"
           transform="translate(1106.2832,732.5698)"><path
             d="m 0,0 c 6.588,-97.663 140.138,-148.474 309.957,-148.474 169.82,0 305.013,85.44 305.013,148.474 0,9.168 -130.71,-71.51 -300.529,-71.51 C 144.621,-71.51 -0.616,9.147 0,0 Z"
             style="fill:none;stroke:#231f20;stroke-width:9;stroke-linecap:butt;stroke-linejoin:miter;stroke-miterlimit:4;stroke-dasharray:none;stroke-opacity:1"
             id="path58"
             inkscape:connector-curvature="0" /></g><g
           id="g60"
           transform="translate(1245.1289,687.2124)"><path
             d="m 0,0 c 0,-80.025 80.818,-100.127 171.112,-100.127 90.294,0 164.388,15.618 164.388,95.644 0,1.279 -77.301,-24.197 -156.168,-23.912 C 93.803,-28.084 0,1.04 0,0"
             style="fill:#00b0d8;fill-opacity:1;fill-rule:nonzero;stroke:none"
             id="path62"
             inkscape:connector-curvature="0" /></g><g
           id="g64"
           transform="translate(1245.1289,687.2124)"><path
             d="m 0,0 c 0,-80.025 80.818,-100.127 171.112,-100.127 90.294,0 164.388,15.618 164.388,95.644 0,1.279 -77.301,-24.197 -156.168,-23.912 C 93.803,-28.084 0,1.04 0,0 Z"
             style="fill:none;stroke:#231f20;stroke-width:9;stroke-linecap:butt;stroke-linejoin:miter;stroke-miterlimit:4;stroke-dasharray:none;stroke-opacity:1"
             id="path66"
             inkscape:connector-curvature="0" /></g></g></g></g></svg>