<?xml version="1.0" encoding="UTF-8" standalone="no"?>
<!-- Created with Inkscape (http://www.inkscape.org/) -->

<svg
   xmlns:dc="http://purl.org/dc/elements/1.1/"
   xmlns:cc="http://creativecommons.org/ns#"
   xmlns:rdf="http://www.w3.org/1999/02/22-rdf-syntax-ns#"
   xmlns:svg="http://www.w3.org/2000/svg"
   xmlns="http://www.w3.org/2000/svg"
   xmlns:sodipodi="http://sodipodi.sourceforge.net/DTD/sodipodi-0.dtd"
   xmlns:inkscape="http://www.inkscape.org/namespaces/inkscape"
   id="svg2"
   version="1.1"
   inkscape:version="0.91 r13725"
   xml:space="preserve"
   width="2400"
   height="1350"
   viewBox="0 0 2400 1350"
   sodipodi:docname="Anabelle-Surprise-Eyes-Blink.svg"><metadata
     id="metadata8"><rdf:RDF><cc:Work
         rdf:about=""><dc:format>image/svg+xml</dc:format><dc:type
           rdf:resource="http://purl.org/dc/dcmitype/StillImage" /><dc:title></dc:title></cc:Work></rdf:RDF></metadata><defs
     id="defs6"><clipPath
       clipPathUnits="userSpaceOnUse"
       id="clipPath16"><path
         d="m 0,1080 1920,0 L 1920,0 0,0 0,1080 Z"
         id="path18"
         inkscape:connector-curvature="0" /></clipPath></defs><sodipodi:namedview
     pagecolor="#ffffff"
     bordercolor="#666666"
     borderopacity="1"
     objecttolerance="10"
     gridtolerance="10"
     guidetolerance="10"
     inkscape:pageopacity="0"
     inkscape:pageshadow="2"
     inkscape:window-width="640"
     inkscape:window-height="480"
     id="namedview4"
     showgrid="false"
     inkscape:zoom="0.17481481"
     inkscape:cx="650.84746"
     inkscape:cy="675"
     inkscape:window-x="0"
     inkscape:window-y="0"
     inkscape:window-maximized="0"
     inkscape:current-layer="g10" /><g
     id="g10"
     inkscape:groupmode="layer"
     inkscape:label="Anabelle-Surprise-Eyes-Blink"
     transform="matrix(1.25,0,0,-1.25,0,1350)"><g
       id="g12"><g
         id="g14"
         clip-path="url(#clipPath16)"><g
           id="g20"
           transform="translate(189.6748,759.7856)"><path
             d="M 0,0 C 0,0 137.666,-103.663 307.485,-103.663 477.304,-103.663 614.969,0 614.969,0 614.969,0 477.304,153.666 307.485,153.666 137.666,153.666 0,0 0,0"
             style="fill:#ffffff;fill-opacity:1;fill-rule:nonzero;stroke:none"
             id="path22"
             inkscape:connector-curvature="0" /></g><g
           id="g24"
           transform="translate(189.6748,759.7856)"><path
             d="M 0,0 C 0,0 137.666,-103.663 307.485,-103.663 477.304,-103.663 614.969,0 614.969,0 614.969,0 477.304,153.666 307.485,153.666 137.666,153.666 0,0 0,0 Z"
             style="fill:none;stroke:#231f20;stroke-width:9;stroke-linecap:butt;stroke-linejoin:miter;stroke-miterlimit:4;stroke-dasharray:none;stroke-opacity:1"
             id="path26"
             inkscape:connector-curvature="0" /></g><g
           id="g28"
           transform="translate(385.3047,769.3267)"><path
             d="m 0,0 c 0,-58.521 53.528,-105.963 119.559,-105.963 66.031,0 119.56,47.442 119.56,105.963 0,58.521 -53.529,105.962 -119.56,105.962 C 53.528,105.962 0,58.521 0,0"
             style="fill:#00b0d8;fill-opacity:1;fill-rule:nonzero;stroke:none"
             id="path30"
             inkscape:connector-curvature="0" /></g><g
           id="g32"
           transform="translate(385.3047,769.3267)"><path
             d="m 0,0 c 0,-58.521 53.528,-105.963 119.559,-105.963 66.031,0 119.56,47.442 119.56,105.963 0,58.521 -53.529,105.962 -119.56,105.962 C 53.528,105.962 0,58.521 0,0 Z"
             style="fill:none;stroke:#231f20;stroke-width:9;stroke-linecap:butt;stroke-linejoin:miter;stroke-miterlimit:4;stroke-dasharray:none;stroke-opacity:1"
             id="path34"
             inkscape:connector-curvature="0" /></g><g
           id="g36"
           transform="translate(1108.7959,759.7856)"><path
             d="M 0,0 C 0,0 137.665,-103.663 307.485,-103.663 477.304,-103.663 614.97,0 614.97,0 614.97,0 477.304,153.666 307.485,153.666 137.665,153.666 0,0 0,0"
             style="fill:#ffffff;fill-opacity:1;fill-rule:nonzero;stroke:none"
             id="path38"
             inkscape:connector-curvature="0" /></g><g
           id="g40"
           transform="translate(1108.7959,759.7856)"><path
             d="M 0,0 C 0,0 137.665,-103.663 307.485,-103.663 477.304,-103.663 614.97,0 614.97,0 614.97,0 477.304,153.666 307.485,153.666 137.665,153.666 0,0 0,0 Z"
             style="fill:none;stroke:#231f20;stroke-width:9;stroke-linecap:butt;stroke-linejoin:miter;stroke-miterlimit:4;stroke-dasharray:none;stroke-opacity:1"
             id="path42"
             inkscape:connector-curvature="0" /></g><g
           id="g44"
           transform="translate(1304.4258,769.3267)"><path
             d="m 0,0 c 0,-58.521 53.528,-105.963 119.559,-105.963 66.031,0 119.56,47.442 119.56,105.963 0,58.521 -53.529,105.962 -119.56,105.962 C 53.528,105.962 0,58.521 0,0"
             style="fill:#00b0d8;fill-opacity:1;fill-rule:nonzero;stroke:none"
             id="path46"
             inkscape:connector-curvature="0" /></g><g
           id="g48"
           transform="translate(1304.4258,769.3267)"><path
             d="m 0,0 c 0,-58.521 53.528,-105.963 119.559,-105.963 66.031,0 119.56,47.442 119.56,105.963 0,58.521 -53.529,105.962 -119.56,105.962 C 53.528,105.962 0,58.521 0,0 Z"
             style="fill:none;stroke:#231f20;stroke-width:9;stroke-linecap:butt;stroke-linejoin:miter;stroke-miterlimit:4;stroke-dasharray:none;stroke-opacity:1"
             id="path50"
             inkscape:connector-curvature="0" /></g></g></g></g></svg>