<?xml version="1.0" encoding="UTF-8" standalone="no"?>
<!-- Created with Inkscape (http://www.inkscape.org/) -->

<svg
   xmlns:dc="http://purl.org/dc/elements/1.1/"
   xmlns:cc="http://creativecommons.org/ns#"
   xmlns:rdf="http://www.w3.org/1999/02/22-rdf-syntax-ns#"
   xmlns:svg="http://www.w3.org/2000/svg"
   xmlns="http://www.w3.org/2000/svg"
   xmlns:sodipodi="http://sodipodi.sourceforge.net/DTD/sodipodi-0.dtd"
   xmlns:inkscape="http://www.inkscape.org/namespaces/inkscape"
   id="svg2"
   version="1.1"
   inkscape:version="0.91 r13725"
   xml:space="preserve"
   width="2400"
   height="1350"
   viewBox="0 0 2400 1350"
   sodipodi:docname="Anabelle-Surprise-Eyes-Open.svg"><metadata
     id="metadata8"><rdf:RDF><cc:Work
         rdf:about=""><dc:format>image/svg+xml</dc:format><dc:type
           rdf:resource="http://purl.org/dc/dcmitype/StillImage" /><dc:title></dc:title></cc:Work></rdf:RDF></metadata><defs
     id="defs6"><clipPath
       clipPathUnits="userSpaceOnUse"
       id="clipPath16"><path
         d="m 0,1080 1920,0 L 1920,0 0,0 0,1080 Z"
         id="path18"
         inkscape:connector-curvature="0" /></clipPath></defs><sodipodi:namedview
     pagecolor="#ffffff"
     bordercolor="#666666"
     borderopacity="1"
     objecttolerance="10"
     gridtolerance="10"
     guidetolerance="10"
     inkscape:pageopacity="0"
     inkscape:pageshadow="2"
     inkscape:window-width="640"
     inkscape:window-height="480"
     id="namedview4"
     showgrid="false"
     inkscape:zoom="0.17481481"
     inkscape:cx="650.84746"
     inkscape:cy="675"
     inkscape:window-x="0"
     inkscape:window-y="0"
     inkscape:window-maximized="0"
     inkscape:current-layer="g10" /><g
     id="g10"
     inkscape:groupmode="layer"
     inkscape:label="Anabelle-Surprise-Eyes-Open"
     transform="matrix(1.25,0,0,-1.25,0,1350)"><g
       id="g12"><g
         id="g14"
         clip-path="url(#clipPath16)"><g
           id="g20"
           transform="translate(1417.1152,961.4512)"><path
             d="m 0,0 c -169.819,0 -307.484,-90.88 -307.484,-202.986 0,-112.106 137.665,-202.986 307.484,-202.986 169.819,0 307.484,90.88 307.484,202.986 C 307.484,-90.88 169.819,0 0,0 m -919.957,1 c -169.819,0 -307.484,-90.736 -307.484,-202.666 0,-111.927 137.665,-202.663 307.484,-202.663 169.82,0 307.485,90.736 307.485,202.663 C -612.472,-89.736 -750.137,1 -919.957,1"
             style="fill:#ffffff;fill-opacity:1;fill-rule:nonzero;stroke:none"
             id="path22"
             inkscape:connector-curvature="0" /></g><g
           id="g24"
           transform="translate(1417.1152,961.4512)"><path
             d="m 0,0 c -169.819,0 -307.484,-90.88 -307.484,-202.986 0,-112.106 137.665,-202.986 307.484,-202.986 169.819,0 307.484,90.88 307.484,202.986 C 307.484,-90.88 169.819,0 0,0 Z m -919.957,1 c -169.819,0 -307.484,-90.736 -307.484,-202.666 0,-111.927 137.665,-202.663 307.484,-202.663 169.82,0 307.485,90.736 307.485,202.663 C -612.472,-89.736 -750.137,1 -919.957,1 Z"
             style="fill:none;stroke:#231f20;stroke-width:9;stroke-linecap:butt;stroke-linejoin:miter;stroke-miterlimit:4;stroke-dasharray:none;stroke-opacity:1"
             id="path26"
             inkscape:connector-curvature="0" /></g><g
           id="g28"
           transform="translate(1423.5488,867.2788)"><path
             d="m 0,0 c -66.031,0 -119.56,-47.517 -119.56,-106.13 0,-58.614 53.529,-106.131 119.56,-106.131 66.03,0 119.559,47.517 119.559,106.131 C 119.559,-47.517 66.03,0 0,0 m -934.094,1.01 c -66.031,0 -119.56,-47.441 -119.56,-105.962 0,-58.522 53.529,-105.963 119.56,-105.963 66.031,0 119.559,47.441 119.559,105.963 0,58.521 -53.528,105.962 -119.559,105.962"
             style="fill:#00b0d8;fill-opacity:1;fill-rule:nonzero;stroke:none"
             id="path30"
             inkscape:connector-curvature="0" /></g><g
           id="g32"
           transform="translate(1423.5488,867.2788)"><path
             d="m 0,0 c -66.031,0 -119.56,-47.517 -119.56,-106.13 0,-58.614 53.529,-106.131 119.56,-106.131 66.03,0 119.559,47.517 119.559,106.131 C 119.559,-47.517 66.03,0 0,0 Z m -934.094,1.01 c -66.031,0 -119.56,-47.441 -119.56,-105.962 0,-58.522 53.529,-105.963 119.56,-105.963 66.031,0 119.559,47.441 119.559,105.963 0,58.521 -53.528,105.962 -119.559,105.962 z"
             style="fill:none;stroke:#231f20;stroke-width:9;stroke-linecap:butt;stroke-linejoin:miter;stroke-miterlimit:4;stroke-dasharray:none;stroke-opacity:1"
             id="path34"
             inkscape:connector-curvature="0" /></g></g></g></g></svg>