<?xml version="1.0" encoding="UTF-8" standalone="no"?>
<!-- Created with Inkscape (http://www.inkscape.org/) -->

<svg
   xmlns:dc="http://purl.org/dc/elements/1.1/"
   xmlns:cc="http://creativecommons.org/ns#"
   xmlns:rdf="http://www.w3.org/1999/02/22-rdf-syntax-ns#"
   xmlns:svg="http://www.w3.org/2000/svg"
   xmlns="http://www.w3.org/2000/svg"
   xmlns:sodipodi="http://sodipodi.sourceforge.net/DTD/sodipodi-0.dtd"
   xmlns:inkscape="http://www.inkscape.org/namespaces/inkscape"
   id="svg2"
   version="1.1"
   inkscape:version="0.91 r13725"
   xml:space="preserve"
   width="2400"
   height="1350"
   viewBox="0 0 2400 1350"
   sodipodi:docname="Anabelle-Happy-Eyes-Blink.svg"><metadata
     id="metadata8"><rdf:RDF><cc:Work
         rdf:about=""><dc:format>image/svg+xml</dc:format><dc:type
           rdf:resource="http://purl.org/dc/dcmitype/StillImage" /><dc:title></dc:title></cc:Work></rdf:RDF></metadata><defs
     id="defs6"><clipPath
       clipPathUnits="userSpaceOnUse"
       id="clipPath16"><path
         d="m 0,1080 1920,0 L 1920,0 0,0 0,1080 Z"
         id="path18"
         inkscape:connector-curvature="0" /></clipPath></defs><sodipodi:namedview
     pagecolor="#ffffff"
     bordercolor="#666666"
     borderopacity="1"
     objecttolerance="10"
     gridtolerance="10"
     guidetolerance="10"
     inkscape:pageopacity="0"
     inkscape:pageshadow="2"
     inkscape:window-width="640"
     inkscape:window-height="480"
     id="namedview4"
     showgrid="false"
     inkscape:zoom="0.17333333"
     inkscape:cx="646.15385"
     inkscape:cy="675"
     inkscape:window-x="0"
     inkscape:window-y="0"
     inkscape:window-maximized="0"
     inkscape:current-layer="g10" /><g
     id="g10"
     inkscape:groupmode="layer"
     inkscape:label="Anabelle-Happy-Eyes-Blink"
     transform="matrix(1.25,0,0,-1.25,0,1350)"><g
       id="g12"><g
         id="g14"
         clip-path="url(#clipPath16)"><g
           id="g20"
           transform="translate(494.1294,806.9526)"><path
             d="m 0,0 c -260.631,8.515 -311.4,-212.955 -311.4,-212.955 0,0 132.441,34.582 301.439,41.61 169.673,7.055 309.262,-47.493 309.262,-47.493 0,0 -129.572,213.293 -299.301,218.838"
             style="fill:#ffffff;fill-opacity:1;fill-rule:nonzero;stroke:none"
             id="path22"
             inkscape:connector-curvature="0" /></g><g
           id="g24"
           transform="translate(494.1294,806.9526)"><path
             d="m 0,0 c -260.631,8.515 -311.4,-212.955 -311.4,-212.955 0,0 132.441,34.582 301.439,41.61 169.673,7.055 309.262,-47.493 309.262,-47.493 0,0 -129.572,213.293 -299.301,218.838 z"
             style="fill:none;stroke:#231f20;stroke-width:9;stroke-linecap:butt;stroke-linejoin:miter;stroke-miterlimit:4;stroke-dasharray:none;stroke-opacity:1"
             id="path26"
             inkscape:connector-curvature="0" /></g><g
           id="g28"
           transform="translate(649.4453,744.3682)"><path
             d="m 0,0 c -84.843,76.253 -207.721,71.1 -294.543,40.933 -17.718,-23.164 -27.548,-46.169 -27.548,-76.261 0,-32.28 11.088,-58.581 31.227,-82.668 69.163,10.301 204.57,22.15 270.034,2.21 C 0.106,-91.433 4.893,-68.308 4.893,-35.328 4.894,-23.142 3.196,-11.308 0,0"
             style="fill:#00b0d8;fill-opacity:1;fill-rule:nonzero;stroke:none"
             id="path30"
             inkscape:connector-curvature="0" /></g><g
           id="g32"
           transform="translate(649.4453,744.3682)"><path
             d="m 0,0 c -84.843,76.253 -207.721,71.1 -294.543,40.933 -17.718,-23.164 -27.548,-46.169 -27.548,-76.261 0,-32.28 11.088,-58.581 31.227,-82.668 69.163,10.301 204.57,22.15 270.034,2.21 C 0.106,-91.433 4.893,-68.308 4.893,-35.328 4.894,-23.142 3.196,-11.308 0,0 Z"
             style="fill:none;stroke:#231f20;stroke-width:9;stroke-linecap:butt;stroke-linejoin:miter;stroke-miterlimit:4;stroke-dasharray:none;stroke-opacity:1"
             id="path34"
             inkscape:connector-curvature="0" /></g><g
           id="g36"
           transform="translate(1112.7305,588.1143)"><path
             d="M 0,0 C 0,0 139.588,54.549 309.262,47.493 478.26,40.465 610.7,5.884 610.7,5.884 c 0,0 -50.768,221.47 -311.399,212.954 C 129.571,213.293 0,0 0,0"
             style="fill:#ffffff;fill-opacity:1;fill-rule:nonzero;stroke:none"
             id="path38"
             inkscape:connector-curvature="0" /></g><g
           id="g40"
           transform="translate(1112.7305,588.1143)"><path
             d="M 0,0 C 0,0 139.588,54.549 309.262,47.493 478.26,40.465 610.7,5.884 610.7,5.884 c 0,0 -50.768,221.47 -311.399,212.954 C 129.571,213.293 0,0 0,0 Z"
             style="fill:none;stroke:#231f20;stroke-width:9;stroke-linecap:butt;stroke-linejoin:miter;stroke-miterlimit:4;stroke-dasharray:none;stroke-opacity:1"
             id="path42"
             inkscape:connector-curvature="0" /></g><g
           id="g44"
           transform="translate(1251.8223,709.04)"><path
             d="m 0,0 c 0,-32.979 4.787,-56.104 25.723,-80.458 65.465,19.94 200.871,8.091 270.034,-2.21 20.139,24.087 31.226,50.388 31.226,82.668 0,30.092 -9.83,53.097 -27.547,76.261 C 212.613,106.428 89.736,111.581 4.893,35.328 1.696,24.021 -0.001,12.186 0,0"
             style="fill:#00b0d8;fill-opacity:1;fill-rule:nonzero;stroke:none"
             id="path46"
             inkscape:connector-curvature="0" /></g><g
           id="g48"
           transform="translate(1251.8223,709.04)"><path
             d="m 0,0 c 0,-32.979 4.787,-56.104 25.723,-80.458 65.465,19.94 200.871,8.091 270.034,-2.21 20.139,24.087 31.226,50.388 31.226,82.668 0,30.092 -9.83,53.097 -27.547,76.261 C 212.613,106.428 89.736,111.581 4.893,35.328 1.696,24.021 -0.001,12.186 0,0 Z"
             style="fill:none;stroke:#231f20;stroke-width:9;stroke-linecap:butt;stroke-linejoin:miter;stroke-miterlimit:4;stroke-dasharray:none;stroke-opacity:1"
             id="path50"
             inkscape:connector-curvature="0" /></g></g></g></g></svg>