<?xml version="1.0" encoding="UTF-8" standalone="no"?>
<!-- Created with Inkscape (http://www.inkscape.org/) -->

<svg
   xmlns:dc="http://purl.org/dc/elements/1.1/"
   xmlns:cc="http://creativecommons.org/ns#"
   xmlns:rdf="http://www.w3.org/1999/02/22-rdf-syntax-ns#"
   xmlns:svg="http://www.w3.org/2000/svg"
   xmlns="http://www.w3.org/2000/svg"
   xmlns:sodipodi="http://sodipodi.sourceforge.net/DTD/sodipodi-0.dtd"
   xmlns:inkscape="http://www.inkscape.org/namespaces/inkscape"
   id="svg2"
   version="1.1"
   inkscape:version="0.91 r13725"
   xml:space="preserve"
   width="2400"
   height="1350"
   viewBox="0 0 2400 1350"
   sodipodi:docname="Anabelle-Thinking-Eyes-Open.svg"><metadata
     id="metadata8"><rdf:RDF><cc:Work
         rdf:about=""><dc:format>image/svg+xml</dc:format><dc:type
           rdf:resource="http://purl.org/dc/dcmitype/StillImage" /><dc:title></dc:title></cc:Work></rdf:RDF></metadata><defs
     id="defs6"><clipPath
       clipPathUnits="userSpaceOnUse"
       id="clipPath16"><path
         d="m 0,1080 1920,0 L 1920,0 0,0 0,1080 Z"
         id="path18"
         inkscape:connector-curvature="0" /></clipPath></defs><sodipodi:namedview
     pagecolor="#ffffff"
     bordercolor="#666666"
     borderopacity="1"
     objecttolerance="10"
     gridtolerance="10"
     guidetolerance="10"
     inkscape:pageopacity="0"
     inkscape:pageshadow="2"
     inkscape:window-width="640"
     inkscape:window-height="480"
     id="namedview4"
     showgrid="false"
     inkscape:zoom="0.17481481"
     inkscape:cx="650.84746"
     inkscape:cy="675"
     inkscape:window-x="0"
     inkscape:window-y="0"
     inkscape:window-maximized="0"
     inkscape:current-layer="g10" /><g
     id="g10"
     inkscape:groupmode="layer"
     inkscape:label="Anabelle-Thinking-Eyes-Open"
     transform="matrix(1.25,0,0,-1.25,0,1350)"><g
       id="g12"><g
         id="g14"
         clip-path="url(#clipPath16)"><g
           id="g20"
           transform="translate(1422.3125,863.2266)"><path
             d="m 0,0 c -326.611,0 -312.611,-305.394 -312.611,-305.394 0,0 142.793,-2.09 312.611,-2.09 169.82,0 302.357,2.09 302.357,2.09 C 302.357,-305.394 303.461,0 0,0 m -921,0 c -326.611,0 -312.611,-305.394 -312.611,-305.394 0,0 142.792,-2.09 312.611,-2.09 169.82,0 302.357,2.09 302.357,2.09 0,0 1.104,305.394 -302.357,305.394"
             style="fill:#ffffff;fill-opacity:1;fill-rule:nonzero;stroke:none"
             id="path22"
             inkscape:connector-curvature="0" /></g><g
           id="g24"
           transform="translate(1422.3125,863.2266)"><path
             d="m 0,0 c -326.611,0 -312.611,-305.394 -312.611,-305.394 0,0 142.793,-2.09 312.611,-2.09 169.82,0 302.357,2.09 302.357,2.09 C 302.357,-305.394 303.461,0 0,0 Z m -921,0 c -326.611,0 -312.611,-305.394 -312.611,-305.394 0,0 142.792,-2.09 312.611,-2.09 169.82,0 302.357,2.09 302.357,2.09 0,0 1.104,305.394 -302.357,305.394 z"
             style="fill:none;stroke:#231f20;stroke-width:9;stroke-linecap:butt;stroke-linejoin:miter;stroke-miterlimit:4;stroke-dasharray:none;stroke-opacity:1"
             id="path26"
             inkscape:connector-curvature="0" /></g><g
           id="g28"
           transform="translate(1672.3057,734.1646)"><path
             d="M 0,0 C -3.802,60.616 -197.337,144.937 -241.104,126.868 -294.952,104.636 -326.983,56.426 -326.983,0 c 0,-80.025 73.197,-144.898 163.492,-144.898 90.293,0 168.5,65.03 163.491,144.898 m -1162.104,126.868 c -53.849,-22.232 -85.88,-70.442 -85.88,-126.868 0,-80.025 73.198,-144.898 163.492,-144.898 90.294,0 168.501,65.03 163.492,144.898 -3.802,60.616 -197.337,144.937 -241.104,126.868"
             style="fill:#00b0d8;fill-opacity:1;fill-rule:nonzero;stroke:none"
             id="path30"
             inkscape:connector-curvature="0" /></g><g
           id="g32"
           transform="translate(1672.3057,734.1646)"><path
             d="M 0,0 C -3.802,60.616 -197.337,144.937 -241.104,126.868 -294.952,104.636 -326.983,56.426 -326.983,0 c 0,-80.025 73.197,-144.898 163.492,-144.898 90.293,0 168.5,65.03 163.491,144.898 z m -1162.104,126.868 c -53.849,-22.232 -85.88,-70.442 -85.88,-126.868 0,-80.025 73.198,-144.898 163.492,-144.898 90.294,0 168.501,65.03 163.492,144.898 -3.802,60.616 -197.337,144.937 -241.104,126.868 z"
             style="fill:none;stroke:#231f20;stroke-width:9;stroke-linecap:butt;stroke-linejoin:miter;stroke-miterlimit:4;stroke-dasharray:none;stroke-opacity:1"
             id="path34"
             inkscape:connector-curvature="0" /></g></g></g></g></svg>