<?xml version="1.0" encoding="UTF-8" standalone="no"?>
<!-- Created with Inkscape (http://www.inkscape.org/) -->

<svg
   xmlns:dc="http://purl.org/dc/elements/1.1/"
   xmlns:cc="http://creativecommons.org/ns#"
   xmlns:rdf="http://www.w3.org/1999/02/22-rdf-syntax-ns#"
   xmlns:svg="http://www.w3.org/2000/svg"
   xmlns="http://www.w3.org/2000/svg"
   xmlns:sodipodi="http://sodipodi.sourceforge.net/DTD/sodipodi-0.dtd"
   xmlns:inkscape="http://www.inkscape.org/namespaces/inkscape"
   id="svg2"
   version="1.1"
   inkscape:version="0.91 r13725"
   xml:space="preserve"
   width="2400"
   height="1350"
   viewBox="0 0 2400 1350"
   sodipodi:docname="Anabelle-Bedroom-Eyes-Open.svg"><metadata
     id="metadata8"><rdf:RDF><cc:Work
         rdf:about=""><dc:format>image/svg+xml</dc:format><dc:type
           rdf:resource="http://purl.org/dc/dcmitype/StillImage" /><dc:title></dc:title></cc:Work></rdf:RDF></metadata><defs
     id="defs6"><clipPath
       clipPathUnits="userSpaceOnUse"
       id="clipPath16"><path
         d="m 0,1080 1920,0 L 1920,0 0,0 0,1080 Z"
         id="path18"
         inkscape:connector-curvature="0" /></clipPath></defs><sodipodi:namedview
     pagecolor="#ffffff"
     bordercolor="#666666"
     borderopacity="1"
     objecttolerance="10"
     gridtolerance="10"
     guidetolerance="10"
     inkscape:pageopacity="0"
     inkscape:pageshadow="2"
     inkscape:window-width="640"
     inkscape:window-height="480"
     id="namedview4"
     showgrid="false"
     inkscape:zoom="0.17481481"
     inkscape:cx="650.84746"
     inkscape:cy="675"
     inkscape:window-x="0"
     inkscape:window-y="0"
     inkscape:window-maximized="0"
     inkscape:current-layer="g10" /><g
     id="g10"
     inkscape:groupmode="layer"
     inkscape:label="Anabelle-Bedroom-Eyes-Open"
     transform="matrix(1.25,0,0,-1.25,0,1350)"><g
       id="g12"><g
         id="g14"
         clip-path="url(#clipPath16)"><g
           id="g20"
           transform="translate(1615.5566,877.9087)"><path
             d="m 0,0 c 70.475,-63.563 19.754,-140.035 19.754,-140.035 l 19.209,5.567 C 38.963,-134.468 77.85,-32.25 0,0 m 25.332,10 c 70.475,-63.563 19.754,-140.035 19.754,-140.035 l 19.211,5.567 c 0,0 38.885,102.218 -38.965,134.468 m 84.299,20.386 c 43.661,-70.44 -4.177,-124.61 -17.009,-137.213 6.855,22.304 25.566,100.936 -40.956,128.494 70.475,-63.563 19.754,-140.036 19.754,-140.036 l 19.209,5.567 c 0,0 0.432,1.137 1.107,3.187 l 17.895,0 c 0,0 65.799,87.358 0,140.001 m -1467.726,-164.854 19.21,-5.567 c 0,0 -50.721,76.472 19.754,140.035 -77.85,-32.25 -38.964,-134.468 -38.964,-134.468 M -1344.464,10 c -77.85,-32.25 -38.964,-134.468 -38.964,-134.468 l 19.21,-5.567 c 0,0 -50.721,76.472 19.754,140.035 m -26.333,11.667 c -66.522,-27.558 -47.812,-106.19 -40.957,-128.494 -12.832,12.603 -60.67,66.773 -17.009,137.213 -65.799,-52.643 0,-140.001 0,-140.001 l 17.894,0 c 0.677,-2.05 1.108,-3.187 1.108,-3.187 l 19.209,-5.567 c 0,0 -50.72,76.473 19.755,140.036"
             style="fill:#231f20;fill-opacity:1;fill-rule:nonzero;stroke:none"
             id="path22"
             inkscape:connector-curvature="0" /></g><g
           id="g24"
           transform="translate(1423.1875,692.9609)"><path
             d="m 0,0 c -169.818,0 -315.635,89.017 -315.635,76.667 0,-200.002 138.537,-214.092 308.358,-214.092 169.818,0 306.611,129.182 306.611,214.092 C 299.334,89.017 169.82,0 0,0 m -934.394,0 c -169.819,0 -299.334,89.017 -299.334,76.667 0,-84.91 136.793,-214.092 306.613,-214.092 169.82,0 308.357,12.09 308.357,214.092 C -618.758,89.017 -764.575,0 -934.394,0"
             style="fill:#ffffff;fill-opacity:1;fill-rule:nonzero;stroke:none"
             id="path26"
             inkscape:connector-curvature="0" /></g><g
           id="g28"
           transform="translate(1423.1875,692.9609)"><path
             d="m 0,0 c -169.818,0 -315.635,89.017 -315.635,76.667 0,-200.002 138.537,-214.092 308.358,-214.092 169.818,0 306.611,129.182 306.611,214.092 C 299.334,89.017 169.82,0 0,0 Z m -934.394,0 c -169.819,0 -299.334,89.017 -299.334,76.667 0,-84.91 136.793,-214.092 306.613,-214.092 169.82,0 308.357,12.09 308.357,214.092 C -618.758,89.017 -764.575,0 -934.394,0 Z"
             style="fill:none;stroke:#231f20;stroke-width:9;stroke-linecap:butt;stroke-linejoin:miter;stroke-miterlimit:4;stroke-dasharray:none;stroke-opacity:1"
             id="path30"
             inkscape:connector-curvature="0" /></g><g
           id="g32"
           transform="translate(1426.5215,692.2939)"><path
             d="m 0,0 c -85.527,0.311 -173.334,23.707 -173.334,22.667 0,-80.025 73.928,-149.901 164.221,-149.901 C 81.182,-127.234 156,-58.691 156,21.334 156,22.613 78.869,-0.285 0,0 m -941.062,0 c -78.868,-0.285 -156,22.613 -156,21.334 0,-80.025 74.819,-148.568 165.114,-148.568 90.294,0 164.22,69.876 164.22,149.901 0,1.04 -87.805,-22.356 -173.334,-22.667"
             style="fill:#00b0d8;fill-opacity:1;fill-rule:nonzero;stroke:none"
             id="path34"
             inkscape:connector-curvature="0" /></g><g
           id="g36"
           transform="translate(1426.5215,692.2939)"><path
             d="m 0,0 c -85.527,0.311 -173.334,23.707 -173.334,22.667 0,-80.025 73.928,-149.901 164.221,-149.901 C 81.182,-127.234 156,-58.691 156,21.334 156,22.613 78.869,-0.285 0,0 Z m -941.062,0 c -78.868,-0.285 -156,22.613 -156,21.334 0,-80.025 74.819,-148.568 165.114,-148.568 90.294,0 164.22,69.876 164.22,149.901 0,1.04 -87.805,-22.356 -173.334,-22.667 z"
             style="fill:none;stroke:#231f20;stroke-width:9;stroke-linecap:butt;stroke-linejoin:miter;stroke-miterlimit:4;stroke-dasharray:none;stroke-opacity:1"
             id="path38"
             inkscape:connector-curvature="0" /></g></g></g></g></svg>