<?xml version="1.0" encoding="UTF-8" standalone="no"?>
<!-- Created with Inkscape (http://www.inkscape.org/) -->

<svg
   xmlns:dc="http://purl.org/dc/elements/1.1/"
   xmlns:cc="http://creativecommons.org/ns#"
   xmlns:rdf="http://www.w3.org/1999/02/22-rdf-syntax-ns#"
   xmlns:svg="http://www.w3.org/2000/svg"
   xmlns="http://www.w3.org/2000/svg"
   xmlns:sodipodi="http://sodipodi.sourceforge.net/DTD/sodipodi-0.dtd"
   xmlns:inkscape="http://www.inkscape.org/namespaces/inkscape"
   id="svg2"
   version="1.1"
   inkscape:version="0.91 r13725"
   xml:space="preserve"
   width="2400"
   height="1350"
   viewBox="0 0 2400 1350"
   sodipodi:docname="Anabelle-Disgust-Eyes-Open.svg"><metadata
     id="metadata8"><rdf:RDF><cc:Work
         rdf:about=""><dc:format>image/svg+xml</dc:format><dc:type
           rdf:resource="http://purl.org/dc/dcmitype/StillImage" /><dc:title></dc:title></cc:Work></rdf:RDF></metadata><defs
     id="defs6"><clipPath
       clipPathUnits="userSpaceOnUse"
       id="clipPath16"><path
         d="m 0,1080 1920,0 L 1920,0 0,0 0,1080 Z"
         id="path18"
         inkscape:connector-curvature="0" /></clipPath></defs><sodipodi:namedview
     pagecolor="#ffffff"
     bordercolor="#666666"
     borderopacity="1"
     objecttolerance="10"
     gridtolerance="10"
     guidetolerance="10"
     inkscape:pageopacity="0"
     inkscape:pageshadow="2"
     inkscape:window-width="640"
     inkscape:window-height="480"
     id="namedview4"
     showgrid="false"
     inkscape:zoom="0.17481481"
     inkscape:cx="650.84746"
     inkscape:cy="675"
     inkscape:window-x="0"
     inkscape:window-y="0"
     inkscape:window-maximized="0"
     inkscape:current-layer="g10" /><g
     id="g10"
     inkscape:groupmode="layer"
     inkscape:label="Anabelle-Disgust-Eyes-Open"
     transform="matrix(1.25,0,0,-1.25,0,1350)"><g
       id="g12"><g
         id="g14"
         clip-path="url(#clipPath16)"><g
           id="g20"
           transform="translate(1434.6943,900.8096)"><path
             d="m 0,0 c -237.358,-21.312 -331.733,-286.993 -329.396,-313.115 1.615,-18.032 54.671,31.21 310.827,4.099 209.101,-22.131 305.175,21.311 304.368,35.245 C 281.345,-196.85 278.284,24.986 0,0 m -937.92,-30.311 c -153.425,72.796 -307.484,-68.833 -307.484,-153.743 0,-84.909 137.665,-153.741 307.484,-153.741 169.82,0 306.863,0.91 306.863,0.91 0,0 -140.982,227.869 -306.863,306.574"
             style="fill:#ffffff;fill-opacity:1;fill-rule:nonzero;stroke:none"
             id="path22"
             inkscape:connector-curvature="0" /></g><g
           id="g24"
           transform="translate(1434.6943,900.8096)"><path
             d="m 0,0 c -237.358,-21.312 -331.733,-286.993 -329.396,-313.115 1.615,-18.032 54.671,31.21 310.827,4.099 209.101,-22.131 305.175,21.311 304.368,35.245 C 281.345,-196.85 278.284,24.986 0,0 Z m -937.92,-30.311 c -153.425,72.796 -307.484,-68.833 -307.484,-153.743 0,-84.909 137.665,-153.741 307.484,-153.741 169.82,0 306.863,0.91 306.863,0.91 0,0 -140.982,227.869 -306.863,306.574 z"
             style="fill:none;stroke:#231f20;stroke-width:9;stroke-linecap:butt;stroke-linejoin:miter;stroke-miterlimit:4;stroke-dasharray:none;stroke-opacity:1"
             id="path26"
             inkscape:connector-curvature="0" /></g><g
           id="g28"
           transform="translate(1412.9297,862.3228)"><path
             d="m 0,0 c -88.936,0 -161.032,-64.977 -161.032,-145.129 0,-49.17 25.597,-95.316 68.641,-118.88 1.962,-1.074 161.431,-12.385 162.412,-11.847 62.52,34.264 91.011,73.191 91.011,130.727 C 161.032,-64.977 88.936,0 0,0 m -917.653,0.013 c -90.295,0 -163.493,-64.873 -163.493,-144.899 0,-80.025 73.198,-144.899 163.493,-144.899 90.293,0 163.491,64.874 163.491,144.899 0,31.734 -110.867,144.899 -163.491,144.899"
             style="fill:#00b0d8;fill-opacity:1;fill-rule:nonzero;stroke:none"
             id="path30"
             inkscape:connector-curvature="0" /></g><g
           id="g32"
           transform="translate(1412.9297,862.3228)"><path
             d="m 0,0 c -88.936,0 -161.032,-64.977 -161.032,-145.129 0,-49.17 25.597,-95.316 68.641,-118.88 1.962,-1.074 161.431,-12.385 162.412,-11.847 62.52,34.264 91.011,73.191 91.011,130.727 C 161.032,-64.977 88.936,0 0,0 Z m -917.653,0.013 c -90.295,0 -163.493,-64.873 -163.493,-144.899 0,-80.025 73.198,-144.899 163.493,-144.899 90.293,0 163.491,64.874 163.491,144.899 0,31.734 -110.867,144.899 -163.491,144.899 z"
             style="fill:none;stroke:#231f20;stroke-width:9;stroke-linecap:butt;stroke-linejoin:miter;stroke-miterlimit:4;stroke-dasharray:none;stroke-opacity:1"
             id="path34"
             inkscape:connector-curvature="0" /></g></g></g></g></svg>