<?xml version="1.0" encoding="UTF-8" standalone="no"?>
<!-- Created with Inkscape (http://www.inkscape.org/) -->

<svg
   xmlns:dc="http://purl.org/dc/elements/1.1/"
   xmlns:cc="http://creativecommons.org/ns#"
   xmlns:rdf="http://www.w3.org/1999/02/22-rdf-syntax-ns#"
   xmlns:svg="http://www.w3.org/2000/svg"
   xmlns="http://www.w3.org/2000/svg"
   xmlns:sodipodi="http://sodipodi.sourceforge.net/DTD/sodipodi-0.dtd"
   xmlns:inkscape="http://www.inkscape.org/namespaces/inkscape"
   id="svg2"
   version="1.1"
   inkscape:version="0.91 r13725"
   xml:space="preserve"
   width="2400"
   height="1350"
   viewBox="0 0 2400 1350"
   sodipodi:docname="eyes-stoned-0.svg"><metadata
     id="metadata8"><rdf:RDF><cc:Work
         rdf:about=""><dc:format>image/svg+xml</dc:format><dc:type
           rdf:resource="http://purl.org/dc/dcmitype/StillImage" /><dc:title></dc:title></cc:Work></rdf:RDF></metadata><defs
     id="defs6"><clipPath
       clipPathUnits="userSpaceOnUse"
       id="clipPath16"><path
         d="m 0,1080 1920,0 L 1920,0 0,0 0,1080 Z"
         id="path18"
         inkscape:connector-curvature="0" /></clipPath></defs><sodipodi:namedview
     pagecolor="#ffffff"
     bordercolor="#666666"
     borderopacity="1"
     objecttolerance="10"
     gridtolerance="10"
     guidetolerance="10"
     inkscape:pageopacity="0"
     inkscape:pageshadow="2"
     inkscape:window-width="640"
     inkscape:window-height="480"
     id="namedview4"
     showgrid="false"
     inkscape:zoom="0.14833333"
     inkscape:cx="552.80899"
     inkscape:cy="675"
     inkscape:window-x="0"
     inkscape:window-y="0"
     inkscape:window-maximized="0"
     inkscape:current-layer="g10" /><g
     id="g10"
     inkscape:groupmode="layer"
     inkscape:label="eyes-stoned-0"
     transform="matrix(1.25,0,0,-1.25,0,1350)"><g
       id="g12"><g
         id="g14"
         clip-path="url(#clipPath16)"><g
           id="g20"
           transform="translate(682.252,728.0405)"><path
             d="m 0,0 c 0,-44.829 -44.771,-81.17 -100,-81.17 l -138.217,0 c -55.228,0 -100,36.341 -100,81.17 l 0,63.742 c 3.617,92.022 44.504,76.998 99.733,76.998 l 138.557,0 C -44.698,140.74 1.809,159.381 0,63.742 L 0,0 Z"
             style="fill:#f9b9b9;fill-opacity:1;fill-rule:nonzero;stroke:none"
             id="path22"
             inkscape:connector-curvature="0" /></g><g
           id="g24"
           transform="translate(682.252,728.0405)"><path
             d="m 0,0 c 0,-44.829 -44.771,-81.17 -100,-81.17 l -138.217,0 c -55.228,0 -100,36.341 -100,81.17 l 0,63.742 c 3.617,92.022 44.504,76.998 99.733,76.998 l 138.557,0 C -44.698,140.74 1.809,159.381 0,63.742 L 0,0 Z"
             style="fill:none;stroke:#231f20;stroke-width:9;stroke-linecap:butt;stroke-linejoin:miter;stroke-miterlimit:4;stroke-dasharray:none;stroke-opacity:1"
             id="path26"
             inkscape:connector-curvature="0" /></g><g
           id="g28"
           transform="translate(664.165,781.6157)"><path
             d="m 0,0 c 0,-59.435 -65.59,-107.614 -146.5,-107.614 -80.909,0 -146.5,48.179 -146.5,107.614 0,59.434 67.077,89.288 147.986,89.288 C -64.104,89.288 0,59.434 0,0"
             style="fill:#f9b9b9;fill-opacity:1;fill-rule:nonzero;stroke:none"
             id="path30"
             inkscape:connector-curvature="0" /></g><g
           id="g32"
           transform="translate(664.165,781.6157)"><path
             d="m 0,0 c 0,-59.435 -65.59,-107.614 -146.5,-107.614 -80.909,0 -146.5,48.179 -146.5,107.614 0,59.434 67.077,89.288 147.986,89.288 C -64.104,89.288 0,59.434 0,0 Z"
             style="fill:none;stroke:#231f20;stroke-width:9;stroke-linecap:butt;stroke-linejoin:miter;stroke-miterlimit:4;stroke-dasharray:none;stroke-opacity:1"
             id="path34"
             inkscape:connector-curvature="0" /></g><g
           id="g36"
           transform="translate(629.8018,792.4663)"><path
             d="m 0,0 c 0,-47.447 -49.396,-85.91 -110.328,-85.91 -60.932,0 -110.327,38.463 -110.327,85.91 0,47.447 51.727,75.783 112.658,75.783 C -47.064,75.783 0,47.447 0,0"
             style="fill:#f9b9b9;fill-opacity:1;fill-rule:nonzero;stroke:none"
             id="path38"
             inkscape:connector-curvature="0" /></g><g
           id="g40"
           transform="translate(629.8018,792.4663)"><path
             d="m 0,0 c 0,-47.447 -49.396,-85.91 -110.328,-85.91 -60.932,0 -110.327,38.463 -110.327,85.91 0,47.447 51.727,75.783 112.658,75.783 C -47.064,75.783 0,47.447 0,0 Z"
             style="fill:none;stroke:#231f20;stroke-width:9;stroke-linecap:butt;stroke-linejoin:miter;stroke-miterlimit:4;stroke-dasharray:none;stroke-opacity:1"
             id="path42"
             inkscape:connector-curvature="0" /></g><g
           id="g44"
           transform="translate(591.8193,813.0933)"><path
             d="m 0,0 c 0,-35.961 -29.961,-65.111 -66.92,-65.111 -36.958,0 -66.919,29.15 -66.919,65.111 0,35.961 30.583,59.402 67.541,59.402 C -29.339,59.402 0,35.961 0,0"
             style="fill:#231f20;fill-opacity:1;fill-rule:nonzero;stroke:none"
             id="path46"
             inkscape:connector-curvature="0" /></g><g
           id="g48"
           transform="translate(202.9873,839.2319)"><path
             d="m 0,0 c 0.119,4.449 17.048,6.328 20.251,6.852 17.789,2.906 35.872,4.195 53.839,5.41 57.089,3.861 114.387,5.011 171.588,5.669 65.162,0.749 130.351,0.442 195.497,-1.202 48.568,-1.227 97.549,-2.341 145.841,-8.074 8.178,-0.971 16.445,-2.033 24.43,-4.103 2.117,-0.549 8.804,-2.223 8.867,-4.552 0.037,-1.387 0.088,1.714 0.077,1.008 0.034,1.992 0.04,3.984 0.046,5.976 0.01,4.099 0.04,8.204 -0.071,12.301 -0.149,5.585 -16.009,6.85 -19.539,7.441 -17.588,2.941 -35.484,4.225 -53.258,5.445 -56.881,3.904 -113.979,5.061 -170.977,5.737 C 311.388,38.682 246.158,38.392 180.969,36.774 132.109,35.563 82.859,34.432 34.268,28.77 25.767,27.779 17.166,26.704 8.866,24.552 6.383,23.907 0.04,22.755 -0.053,19.285 -0.163,15.188 -0.134,11.083 -0.123,6.984 -0.117,4.992 -0.111,3 -0.077,1.008 -0.089,1.714 -0.037,-1.387 0,0"
             style="fill:#231f20;fill-opacity:1;fill-rule:nonzero;stroke:none"
             id="path50"
             inkscape:connector-curvature="0" /></g><g
           id="g52"
           transform="translate(1581.6963,728.0405)"><path
             d="m 0,0 c 0,-44.829 -44.771,-81.17 -100,-81.17 l -138.217,0 c -55.228,0 -100,36.341 -100,81.17 l 0,63.742 c 3.617,92.022 44.504,76.998 99.733,76.998 l 138.556,0 C -44.699,140.74 1.809,159.381 0,63.742 L 0,0 Z"
             style="fill:#f9b9b9;fill-opacity:1;fill-rule:nonzero;stroke:none"
             id="path54"
             inkscape:connector-curvature="0" /></g><g
           id="g56"
           transform="translate(1581.6963,728.0405)"><path
             d="m 0,0 c 0,-44.829 -44.771,-81.17 -100,-81.17 l -138.217,0 c -55.228,0 -100,36.341 -100,81.17 l 0,63.742 c 3.617,92.022 44.504,76.998 99.733,76.998 l 138.556,0 C -44.699,140.74 1.809,159.381 0,63.742 L 0,0 Z"
             style="fill:none;stroke:#231f20;stroke-width:9;stroke-linecap:butt;stroke-linejoin:miter;stroke-miterlimit:4;stroke-dasharray:none;stroke-opacity:1"
             id="path58"
             inkscape:connector-curvature="0" /></g><g
           id="g60"
           transform="translate(1563.6094,781.6157)"><path
             d="m 0,0 c 0,-59.435 -65.591,-107.614 -146.501,-107.614 -80.908,0 -146.5,48.179 -146.5,107.614 0,59.434 67.077,89.288 147.986,89.288 C -64.104,89.288 0,59.434 0,0"
             style="fill:#f9b9b9;fill-opacity:1;fill-rule:nonzero;stroke:none"
             id="path62"
             inkscape:connector-curvature="0" /></g><g
           id="g64"
           transform="translate(1563.6094,781.6157)"><path
             d="m 0,0 c 0,-59.435 -65.591,-107.614 -146.501,-107.614 -80.908,0 -146.5,48.179 -146.5,107.614 0,59.434 67.077,89.288 147.986,89.288 C -64.104,89.288 0,59.434 0,0 Z"
             style="fill:none;stroke:#231f20;stroke-width:9;stroke-linecap:butt;stroke-linejoin:miter;stroke-miterlimit:4;stroke-dasharray:none;stroke-opacity:1"
             id="path66"
             inkscape:connector-curvature="0" /></g><g
           id="g68"
           transform="translate(1529.2451,792.4663)"><path
             d="m 0,0 c 0,-47.447 -49.396,-85.91 -110.328,-85.91 -60.932,0 -110.326,38.463 -110.326,85.91 0,47.447 51.726,75.783 112.658,75.783 C -47.064,75.783 0,47.447 0,0"
             style="fill:#f9b9b9;fill-opacity:1;fill-rule:nonzero;stroke:none"
             id="path70"
             inkscape:connector-curvature="0" /></g><g
           id="g72"
           transform="translate(1529.2451,792.4663)"><path
             d="m 0,0 c 0,-47.447 -49.396,-85.91 -110.328,-85.91 -60.932,0 -110.326,38.463 -110.326,85.91 0,47.447 51.726,75.783 112.658,75.783 C -47.064,75.783 0,47.447 0,0 Z"
             style="fill:none;stroke:#231f20;stroke-width:9;stroke-linecap:butt;stroke-linejoin:miter;stroke-miterlimit:4;stroke-dasharray:none;stroke-opacity:1"
             id="path74"
             inkscape:connector-curvature="0" /></g><g
           id="g76"
           transform="translate(1491.2637,813.0933)"><path
             d="m 0,0 c 0,-35.961 -29.962,-65.111 -66.921,-65.111 -36.957,0 -66.919,29.15 -66.919,65.111 0,35.961 30.583,59.402 67.542,59.402 C -29.339,59.402 0,35.961 0,0"
             style="fill:#231f20;fill-opacity:1;fill-rule:nonzero;stroke:none"
             id="path78"
             inkscape:connector-curvature="0" /></g><g
           id="g80"
           transform="translate(1102.4316,839.2319)"><path
             d="m 0,0 c 0.119,4.449 17.048,6.328 20.251,6.852 17.789,2.906 35.871,4.195 53.84,5.41 57.088,3.861 114.386,5.011 171.588,5.669 65.161,0.749 130.35,0.442 195.496,-1.202 48.568,-1.227 97.549,-2.341 145.841,-8.074 8.178,-0.971 16.444,-2.033 24.43,-4.103 2.117,-0.549 8.804,-2.223 8.867,-4.552 0.037,-1.387 0.088,1.714 0.077,1.008 0.033,1.992 0.04,3.984 0.046,5.976 0.01,4.099 0.04,8.204 -0.071,12.301 -0.149,5.585 -16.009,6.85 -19.539,7.441 -17.588,2.941 -35.484,4.225 -53.258,5.445 -56.881,3.904 -113.979,5.061 -170.977,5.737 C 311.388,38.682 246.157,38.392 180.969,36.774 132.109,35.563 82.859,34.432 34.269,28.77 25.767,27.779 17.166,26.704 8.866,24.552 6.383,23.907 0.04,22.755 -0.053,19.285 -0.163,15.188 -0.134,11.083 -0.123,6.984 -0.117,4.992 -0.11,3 -0.077,1.008 -0.089,1.714 -0.037,-1.387 0,0"
             style="fill:#231f20;fill-opacity:1;fill-rule:nonzero;stroke:none"
             id="path82"
             inkscape:connector-curvature="0" /></g></g></g></g></svg>