<?xml version="1.0" encoding="UTF-8" standalone="no"?>
<!-- Created with Inkscape (http://www.inkscape.org/) -->

<svg
   xmlns:dc="http://purl.org/dc/elements/1.1/"
   xmlns:cc="http://creativecommons.org/ns#"
   xmlns:rdf="http://www.w3.org/1999/02/22-rdf-syntax-ns#"
   xmlns:svg="http://www.w3.org/2000/svg"
   xmlns="http://www.w3.org/2000/svg"
   xmlns:sodipodi="http://sodipodi.sourceforge.net/DTD/sodipodi-0.dtd"
   xmlns:inkscape="http://www.inkscape.org/namespaces/inkscape"
   id="svg2"
   version="1.1"
   inkscape:version="0.91 r13725"
   xml:space="preserve"
   width="2400"
   height="1350"
   viewBox="0 0 2400 1350"
   sodipodi:docname="Anabelle-Begging-Eyes-2.svg"><metadata
     id="metadata8"><rdf:RDF><cc:Work
         rdf:about=""><dc:format>image/svg+xml</dc:format><dc:type
           rdf:resource="http://purl.org/dc/dcmitype/StillImage" /><dc:title></dc:title></cc:Work></rdf:RDF></metadata><defs
     id="defs6"><clipPath
       clipPathUnits="userSpaceOnUse"
       id="clipPath16"><path
         d="m 0,1080 1920,0 L 1920,0 0,0 0,1080 Z"
         id="path18"
         inkscape:connector-curvature="0" /></clipPath></defs><sodipodi:namedview
     pagecolor="#ffffff"
     bordercolor="#666666"
     borderopacity="1"
     objecttolerance="10"
     gridtolerance="10"
     guidetolerance="10"
     inkscape:pageopacity="0"
     inkscape:pageshadow="2"
     inkscape:window-width="640"
     inkscape:window-height="480"
     id="namedview4"
     showgrid="false"
     inkscape:zoom="0.17083333"
     inkscape:cx="638.04878"
     inkscape:cy="675"
     inkscape:window-x="0"
     inkscape:window-y="0"
     inkscape:window-maximized="0"
     inkscape:current-layer="g10" /><g
     id="g10"
     inkscape:groupmode="layer"
     inkscape:label="Anabelle-Begging-Eyes-2"
     transform="matrix(1.25,0,0,-1.25,0,1350)"><g
       id="g12"><g
         id="g14"
         clip-path="url(#clipPath16)"><g
           id="g20"
           transform="translate(298.9341,656.0762)"><path
             d="m 0,0 0,-6.534 c -29.399,0 -65.333,34.845 -70.776,62.066 -10.889,-29.399 8.71,-69.686 35.932,-83.844 2.818,-1.564 6.538,-3.398 10.664,-5.065 -28.819,-4.734 -64.966,11.558 -75.996,34.466 -3.267,-26.132 30.488,-50.088 52.266,-56.622 6.366,-1.938 13.084,-3.169 19.349,-3.359 -23.103,-22.383 -57.341,-28.173 -89.038,-17.329 25.045,-20.689 55.533,-29.4 86.022,-15.245 13.066,5.445 29.399,16.334 35.932,28.312 6.794,12.738 2.327,17.529 -6.681,22.636 0.019,0.733 0.006,1.492 -0.039,2.277 3.32,0.107 6.374,0.794 8.898,2.308 C 22.866,-28.312 15.245,-4.356 0,0"
             style="fill:#231f20;fill-opacity:1;fill-rule:nonzero;stroke:none"
             id="path22"
             inkscape:connector-curvature="0" /></g><g
           id="g24"
           transform="translate(767.6455,673.7559)"><path
             d="m 0,0 c 0,136.483 -109.966,247.124 -245.617,247.124 -135.651,0 -245.618,-110.641 -245.618,-247.124 0,-136.482 109.967,-247.123 245.618,-247.123 C -109.966,-247.123 0,-136.482 0,0"
             style="fill:#00b0d8;fill-opacity:1;fill-rule:nonzero;stroke:none"
             id="path26"
             inkscape:connector-curvature="0" /></g><g
           id="g28"
           transform="translate(639.3901,853.8203)"><path
             d="m 0,0 c 19.372,-25.211 30.906,-56.828 30.906,-91.159 0,-82.389 -66.382,-149.178 -148.268,-149.178 -81.885,0 -148.268,66.789 -148.268,149.178 0,38.006 14.134,72.685 37.392,99.028 -64.444,-37.523 -107.802,-107.632 -107.802,-187.933 0,-119.839 96.557,-216.988 215.664,-216.988 119.107,0 215.664,97.149 215.664,216.988 C 95.288,-105.077 57.479,-38.978 0,0"
             style="fill:#1b75bc;fill-opacity:1;fill-rule:nonzero;stroke:none"
             id="path30"
             inkscape:connector-curvature="0" /></g><g
           id="g32"
           transform="translate(491.165,848.5508)"><path
             d="m 0,0 c 0,18.309 -14.842,33.151 -33.151,33.151 -18.308,0 -33.151,-14.842 -33.151,-33.151 0,-18.309 14.843,-33.151 33.151,-33.151 C -14.842,-33.151 0,-18.309 0,0"
             style="fill:#ffffff;fill-opacity:1;fill-rule:nonzero;stroke:none"
             id="path34"
             inkscape:connector-curvature="0" /></g><g
           id="g36"
           transform="translate(671.9873,553.2075)"><path
             d="m 0,0 c 0,-39.946 -32.383,-72.329 -72.329,-72.329 -39.947,0 -72.33,32.383 -72.33,72.329 0,39.947 32.383,72.329 72.33,72.329 C -32.383,72.329 0,39.947 0,0"
             style="fill:#ffffff;fill-opacity:1;fill-rule:nonzero;stroke:none"
             id="path38"
             inkscape:connector-curvature="0" /></g><g
           id="g40"
           transform="translate(218.7236,743.1602)"><path
             d="m 0,0 c 34.491,19.375 68.024,40.649 100.885,62.647 30.096,20.148 59.514,41.329 87.819,63.933 26.389,21.073 52.06,43.567 74.131,69.21 19.37,22.502 39.744,50.531 39.925,81.573 0.101,17.416 -26.899,17.406 -27,0 -0.007,-1.181 -0.049,-2.358 -0.122,-3.537 -0.077,-1.231 -0.681,-5.807 0.037,-0.606 -0.372,-2.69 -0.964,-5.346 -1.663,-7.969 -0.681,-2.557 -1.531,-5.068 -2.456,-7.546 -0.24,-0.642 -0.493,-1.277 -0.747,-1.913 -0.985,-2.472 1.348,3.123 0.286,0.659 -0.66,-1.529 -1.37,-3.035 -2.098,-4.532 -2.792,-5.741 -6.086,-11.232 -9.603,-16.555 -1.823,-2.758 -3.737,-5.455 -5.694,-8.118 -0.589,-0.803 -4.053,-5.329 -1.509,-2.045 -1.253,-1.619 -2.536,-3.215 -3.828,-4.804 -21.035,-25.857 -46.281,-48.273 -72.031,-69.3 -3.349,-2.734 -6.722,-5.437 -10.108,-8.122 -1.7,-1.348 -3.406,-2.686 -5.115,-4.023 -0.855,-0.668 -1.713,-1.334 -2.57,-2 -1.196,-0.927 -1.144,-0.888 0.155,0.117 -0.573,-0.442 -1.148,-0.883 -1.722,-1.325 C 149.81,130.241 142.57,124.839 135.28,119.507 121.143,109.166 106.778,99.136 92.265,89.329 68.388,73.192 44.073,57.699 19.426,42.767 8.495,36.144 -2.483,29.574 -13.627,23.313 -28.805,14.788 -15.198,-8.537 0,0"
             style="fill:#231f20;fill-opacity:1;fill-rule:nonzero;stroke:none"
             id="path42"
             inkscape:connector-curvature="0" /></g><g
           id="g44"
           transform="translate(1612.2148,657.0244)"><path
             d="m 0,0 0,-6.533 c 29.4,0 65.332,34.845 70.777,62.066 10.888,-29.4 -8.712,-69.687 -35.934,-83.844 -2.817,-1.564 -6.537,-3.399 -10.663,-5.065 28.819,-4.734 64.966,11.558 75.996,34.466 3.267,-26.132 -30.489,-50.089 -52.265,-56.622 -6.368,-1.937 -13.087,-3.169 -19.351,-3.359 23.103,-22.383 57.342,-28.173 89.037,-17.33 -25.044,-20.689 -55.532,-29.399 -86.021,-15.243 -13.066,5.443 -29.398,16.332 -35.931,28.31 -6.795,12.738 -2.33,17.529 6.68,22.637 -0.017,0.733 -0.005,1.492 0.04,2.276 -3.32,0.107 -6.375,0.795 -8.899,2.309 C -22.867,-28.311 -15.245,-4.355 0,0"
             style="fill:#231f20;fill-opacity:1;fill-rule:nonzero;stroke:none"
             id="path46"
             inkscape:connector-curvature="0" /></g><g
           id="g48"
           transform="translate(1638.7461,673.7559)"><path
             d="M 0,0 C 0,136.482 -109.967,247.124 -245.619,247.124 -381.27,247.124 -491.235,136.482 -491.235,0 c 0,-136.482 109.965,-247.123 245.616,-247.123 C -109.967,-247.123 0,-136.482 0,0"
             style="fill:#00b0d8;fill-opacity:1;fill-rule:nonzero;stroke:none"
             id="path50"
             inkscape:connector-curvature="0" /></g><g
           id="g52"
           transform="translate(1510.4893,853.8193)"><path
             d="m 0,0 c 19.374,-25.21 30.908,-56.827 30.908,-91.158 0,-82.389 -66.385,-149.178 -148.27,-149.178 -81.882,0 -148.268,66.789 -148.268,149.178 0,38.007 14.136,72.685 37.393,99.028 -64.442,-37.525 -107.801,-107.631 -107.801,-187.933 0,-119.839 96.557,-216.988 215.665,-216.988 119.107,0 215.662,97.149 215.662,216.988 C 95.289,-105.076 57.482,-38.976 0,0"
             style="fill:#1b75bc;fill-opacity:1;fill-rule:nonzero;stroke:none"
             id="path54"
             inkscape:connector-curvature="0" /></g><g
           id="g56"
           transform="translate(1362.2646,848.5508)"><path
             d="m 0,0 c 0,18.309 -14.842,33.151 -33.151,33.151 -18.307,0 -33.15,-14.842 -33.15,-33.151 0,-18.309 14.843,-33.151 33.15,-33.151 C -14.842,-33.151 0,-18.309 0,0"
             style="fill:#ffffff;fill-opacity:1;fill-rule:nonzero;stroke:none"
             id="path58"
             inkscape:connector-curvature="0" /></g><g
           id="g60"
           transform="translate(1543.0898,553.2075)"><path
             d="m 0,0 c 0,-39.946 -32.385,-72.329 -72.331,-72.329 -39.945,0 -72.327,32.383 -72.327,72.329 0,39.947 32.382,72.329 72.327,72.329 C -32.385,72.329 0,39.947 0,0"
             style="fill:#ffffff;fill-opacity:1;fill-rule:nonzero;stroke:none"
             id="path62"
             inkscape:connector-curvature="0" /></g><g
           id="g64"
           transform="translate(1718.5957,766.4736)"><path
             d="m 0,0 c -34.49,19.375 -68.023,40.649 -100.885,62.647 -14.438,9.666 -28.714,19.575 -42.798,29.749 -7.305,5.278 -14.549,10.641 -21.734,16.082 -1.731,1.312 -3.458,2.631 -5.182,3.953 -0.385,0.296 -3.28,2.53 -0.709,0.542 -0.859,0.664 -1.715,1.331 -2.572,1.998 -3.705,2.884 -7.385,5.801 -11.047,8.739 -26.245,21.061 -51.779,43.556 -73.622,69.239 -2.488,2.926 -4.906,5.91 -7.269,8.938 2.555,-3.274 -0.916,1.244 -1.509,2.045 -1.159,1.565 -2.287,3.151 -3.402,4.748 -4.015,5.749 -7.696,11.737 -10.914,17.969 -0.665,1.288 -1.295,2.594 -1.913,3.905 -0.302,0.642 -0.592,1.291 -0.882,1.939 -1.474,3.295 0.882,-2.179 10e-4,-0.014 -1.092,2.686 -2.035,5.432 -2.853,8.213 -0.773,2.628 -1.37,5.304 -1.825,8.004 -0.175,1.034 -0.463,3.522 0.136,-1.173 -0.102,0.796 -0.174,1.595 -0.242,2.394 -0.116,1.375 -0.158,2.754 -0.166,4.133 -0.101,17.406 -27.101,17.416 -27,0 0.158,-27.117 15.93,-51.335 32.011,-71.94 20.265,-25.962 45.073,-48.363 70.345,-69.325 C -163.102,70.54 -107.834,33.44 -51.394,-0.996 -38.915,-8.61 -26.374,-16.153 -13.627,-23.313 1.57,-31.851 15.178,-8.526 0,0"
             style="fill:#231f20;fill-opacity:1;fill-rule:nonzero;stroke:none"
             id="path66"
             inkscape:connector-curvature="0" /></g></g></g></g></svg>