<?xml version="1.0" encoding="UTF-8" standalone="no"?>
<!-- Created with Inkscape (http://www.inkscape.org/) -->

<svg
   xmlns:dc="http://purl.org/dc/elements/1.1/"
   xmlns:cc="http://creativecommons.org/ns#"
   xmlns:rdf="http://www.w3.org/1999/02/22-rdf-syntax-ns#"
   xmlns:svg="http://www.w3.org/2000/svg"
   xmlns="http://www.w3.org/2000/svg"
   xmlns:sodipodi="http://sodipodi.sourceforge.net/DTD/sodipodi-0.dtd"
   xmlns:inkscape="http://www.inkscape.org/namespaces/inkscape"
   id="svg2"
   version="1.1"
   inkscape:version="0.91 r13725"
   xml:space="preserve"
   width="2400"
   height="1350"
   viewBox="0 0 2400 1350"
   sodipodi:docname="Anabelle-Neutral-Eyes-Blink.svg"><metadata
     id="metadata8"><rdf:RDF><cc:Work
         rdf:about=""><dc:format>image/svg+xml</dc:format><dc:type
           rdf:resource="http://purl.org/dc/dcmitype/StillImage" /><dc:title></dc:title></cc:Work></rdf:RDF></metadata><defs
     id="defs6"><clipPath
       clipPathUnits="userSpaceOnUse"
       id="clipPath16"><path
         d="m 0,1080 1920,0 L 1920,0 0,0 0,1080 Z"
         id="path18"
         inkscape:connector-curvature="0" /></clipPath></defs><sodipodi:namedview
     pagecolor="#ffffff"
     bordercolor="#666666"
     borderopacity="1"
     objecttolerance="10"
     gridtolerance="10"
     guidetolerance="10"
     inkscape:pageopacity="0"
     inkscape:pageshadow="2"
     inkscape:window-width="640"
     inkscape:window-height="480"
     id="namedview4"
     showgrid="false"
     inkscape:zoom="0.17481481"
     inkscape:cx="650.84746"
     inkscape:cy="675"
     inkscape:window-x="0"
     inkscape:window-y="0"
     inkscape:window-maximized="0"
     inkscape:current-layer="g10" /><g
     id="g10"
     inkscape:groupmode="layer"
     inkscape:label="Anabelle-Neutral-Eyes-Blink"
     transform="matrix(1.25,0,0,-1.25,0,1350)"><g
       id="g12"><g
         id="g14"
         clip-path="url(#clipPath16)"><g
           id="g20"
           transform="translate(808,694)"><path
             d="M 0,0 C 0,0 -121.168,46 -291.271,46 -462.362,46 -462.544,45.652 -616,0 c 3.338,-2.667 136.855,-112 312.92,-112 C -132.976,-112 0,0 0,0"
             style="fill:#ffffff;fill-opacity:1;fill-rule:nonzero;stroke:none"
             id="path22"
             inkscape:connector-curvature="0" /></g><g
           id="g24"
           transform="translate(808,694)"><path
             d="M 0,0 C 0,0 -121.168,46 -291.271,46 -462.362,46 -462.544,45.652 -616,0 c 3.338,-2.667 136.855,-112 312.92,-112 C -132.976,-112 0,0 0,0 Z"
             style="fill:none;stroke:#231f20;stroke-width:9;stroke-linecap:butt;stroke-linejoin:miter;stroke-miterlimit:4;stroke-dasharray:none;stroke-opacity:1"
             id="path26"
             inkscape:connector-curvature="0" /></g><g
           id="g28"
           transform="translate(1105,697)"><path
             d="M 0,0 C 0,0 121.168,46 291.271,46 462.362,46 462.545,45.652 616,0 612.662,-2.667 479.145,-112 303.08,-112 132.977,-112 0,0 0,0"
             style="fill:#ffffff;fill-opacity:1;fill-rule:nonzero;stroke:none"
             id="path30"
             inkscape:connector-curvature="0" /></g><g
           id="g32"
           transform="translate(1105,697)"><path
             d="M 0,0 C 0,0 121.168,46 291.271,46 462.362,46 462.545,45.652 616,0 612.662,-2.667 479.145,-112 303.08,-112 132.977,-112 0,0 0,0 Z"
             style="fill:none;stroke:#231f20;stroke-width:9;stroke-linecap:butt;stroke-linejoin:miter;stroke-miterlimit:4;stroke-dasharray:none;stroke-opacity:1"
             id="path34"
             inkscape:connector-curvature="0" /></g><g
           id="g36"
           transform="translate(651.9209,729.3066)"><path
             d="m 0,0 c 7.556,-12.255 11.079,-26.088 11.079,-40.307 0,-61.303 -72.49,-105.999 -162.513,-105.999 -90.022,0 -163.487,44.696 -163.487,105.999 0,15.886 5.702,30.506 13.727,44.655 C -298.898,8.396 -10.754,17.443 0,0"
             style="fill:#00b0d8;fill-opacity:1;fill-rule:nonzero;stroke:none"
             id="path38"
             inkscape:connector-curvature="0" /></g><g
           id="g40"
           transform="translate(651.9209,729.3066)"><path
             d="m 0,0 c 7.556,-12.255 11.079,-26.088 11.079,-40.307 0,-61.303 -72.49,-105.999 -162.513,-105.999 -90.022,0 -163.487,44.696 -163.487,105.999 0,15.886 5.702,30.506 13.727,44.655 C -298.898,8.396 -10.754,17.443 0,0 Z"
             style="fill:none;stroke:#231f20;stroke-width:9;stroke-linecap:butt;stroke-linejoin:miter;stroke-miterlimit:4;stroke-dasharray:none;stroke-opacity:1"
             id="path42"
             inkscape:connector-curvature="0" /></g><g
           id="g44"
           transform="translate(1261.0791,732.3066)"><path
             d="m 0,0 c -7.556,-12.255 -11.079,-26.088 -11.079,-40.307 0,-61.303 72.49,-105.999 162.513,-105.999 90.022,0 163.487,44.696 163.487,105.999 0,15.886 -5.701,30.506 -13.727,44.655 C 298.897,8.396 10.754,17.443 0,0"
             style="fill:#00b0d8;fill-opacity:1;fill-rule:nonzero;stroke:none"
             id="path46"
             inkscape:connector-curvature="0" /></g><g
           id="g48"
           transform="translate(1261.0791,732.3066)"><path
             d="m 0,0 c -7.556,-12.255 -11.079,-26.088 -11.079,-40.307 0,-61.303 72.49,-105.999 162.513,-105.999 90.022,0 163.487,44.696 163.487,105.999 0,15.886 -5.701,30.506 -13.727,44.655 C 298.897,8.396 10.754,17.443 0,0 Z"
             style="fill:none;stroke:#231f20;stroke-width:9;stroke-linecap:butt;stroke-linejoin:miter;stroke-miterlimit:4;stroke-dasharray:none;stroke-opacity:1"
             id="path50"
             inkscape:connector-curvature="0" /></g></g></g></g></svg>