<?xml version="1.0" encoding="UTF-8" standalone="no"?>
<!-- Created with Inkscape (http://www.inkscape.org/) -->

<svg
   xmlns:dc="http://purl.org/dc/elements/1.1/"
   xmlns:cc="http://creativecommons.org/ns#"
   xmlns:rdf="http://www.w3.org/1999/02/22-rdf-syntax-ns#"
   xmlns:svg="http://www.w3.org/2000/svg"
   xmlns="http://www.w3.org/2000/svg"
   xmlns:sodipodi="http://sodipodi.sourceforge.net/DTD/sodipodi-0.dtd"
   xmlns:inkscape="http://www.inkscape.org/namespaces/inkscape"
   id="svg2"
   version="1.1"
   inkscape:version="0.91 r13725"
   xml:space="preserve"
   width="2400"
   height="1350"
   viewBox="0 0 2400 1350"
   sodipodi:docname="Anabelle-Dizzy-Eyes-1.svg"><metadata
     id="metadata8"><rdf:RDF><cc:Work
         rdf:about=""><dc:format>image/svg+xml</dc:format><dc:type
           rdf:resource="http://purl.org/dc/dcmitype/StillImage" /><dc:title></dc:title></cc:Work></rdf:RDF></metadata><defs
     id="defs6"><clipPath
       clipPathUnits="userSpaceOnUse"
       id="clipPath16"><path
         d="m 0,1080 1920,0 L 1920,0 0,0 0,1080 Z"
         id="path18"
         inkscape:connector-curvature="0" /></clipPath></defs><sodipodi:namedview
     pagecolor="#ffffff"
     bordercolor="#666666"
     borderopacity="1"
     objecttolerance="10"
     gridtolerance="10"
     guidetolerance="10"
     inkscape:pageopacity="0"
     inkscape:pageshadow="2"
     inkscape:window-width="640"
     inkscape:window-height="480"
     id="namedview4"
     showgrid="false"
     inkscape:zoom="0.165"
     inkscape:cx="618.18182"
     inkscape:cy="675"
     inkscape:window-x="0"
     inkscape:window-y="0"
     inkscape:window-maximized="0"
     inkscape:current-layer="g10" /><g
     id="g10"
     inkscape:groupmode="layer"
     inkscape:label="Anabelle-Dizzy-Eyes-1"
     transform="matrix(1.25,0,0,-1.25,0,1350)"><g
       id="g12"><g
         id="g14"
         clip-path="url(#clipPath16)"><g
           id="g20"
           transform="translate(698.7993,747.0801)"><path
             d="m 0,0 c 0,113.506 -92.016,205.521 -205.521,205.521 -113.506,0 -205.521,-92.015 -205.521,-205.521 0,-113.506 92.015,-205.521 205.521,-205.521 C -92.016,-205.521 0,-113.506 0,0"
             style="fill:#ffffff;fill-opacity:1;fill-rule:nonzero;stroke:none"
             id="path22"
             inkscape:connector-curvature="0" /></g><g
           id="g24"
           transform="translate(698.7993,747.0801)"><path
             d="m 0,0 c 0,113.506 -92.016,205.521 -205.521,205.521 -113.506,0 -205.521,-92.015 -205.521,-205.521 0,-113.506 92.015,-205.521 205.521,-205.521 C -92.016,-205.521 0,-113.506 0,0 Z"
             style="fill:none;stroke:#231f20;stroke-width:10;stroke-linecap:butt;stroke-linejoin:miter;stroke-miterlimit:4;stroke-dasharray:none;stroke-opacity:1"
             id="path26"
             inkscape:connector-curvature="0" /></g><g
           id="g28"
           transform="translate(686.418,816.4126)"><path
             d="m 0,0 c 22.285,-163.426 -74.22,-222.025 -177.733,-222.025 -82.809,0 -149.941,67.132 -149.941,149.942 0,66.249 53.704,119.953 119.953,119.953 52.999,0 95.963,-42.963 95.963,-95.963 0,-42.398 -34.372,-76.771 -76.77,-76.771 -33.92,0 -61.417,27.498 -61.417,61.416 0,27.137 21.999,49.134 49.133,49.134 21.708,0 39.307,-17.597 39.307,-39.307 0,-17.366 -14.079,-31.442 -31.445,-31.442 -13.894,0 -25.156,11.262 -25.156,25.153 0,11.116 9.011,20.124 20.124,20.124 8.892,0 16.1,-7.207 16.1,-16.099 0,-7.112 -5.765,-12.878 -12.88,-12.878 -5.691,0 -10.303,4.612 -10.303,10.303 0,4.552 3.69,8.244 8.244,8.244 3.64,0 6.592,-2.952 6.592,-6.595 0,-2.914 -2.36,-5.277 -5.274,-5.277"
             style="fill:#ffffff;fill-opacity:1;fill-rule:nonzero;stroke:#231f20;stroke-width:10;stroke-linecap:butt;stroke-linejoin:miter;stroke-miterlimit:4;stroke-dasharray:none;stroke-opacity:1"
             id="path30"
             inkscape:connector-curvature="0" /></g><g
           id="g32"
           transform="translate(1620.6035,754.5029)"><path
             d="m 0,0 c 0,113.506 -92.016,205.521 -205.521,205.521 -113.506,0 -205.521,-92.015 -205.521,-205.521 0,-113.506 92.015,-205.521 205.521,-205.521 C -92.016,-205.521 0,-113.506 0,0"
             style="fill:#ffffff;fill-opacity:1;fill-rule:nonzero;stroke:none"
             id="path34"
             inkscape:connector-curvature="0" /></g><g
           id="g36"
           transform="translate(1620.6035,754.5029)"><path
             d="m 0,0 c 0,113.506 -92.016,205.521 -205.521,205.521 -113.506,0 -205.521,-92.015 -205.521,-205.521 0,-113.506 92.015,-205.521 205.521,-205.521 C -92.016,-205.521 0,-113.506 0,0 Z"
             style="fill:none;stroke:#231f20;stroke-width:10;stroke-linecap:butt;stroke-linejoin:miter;stroke-miterlimit:4;stroke-dasharray:none;stroke-opacity:1"
             id="path38"
             inkscape:connector-curvature="0" /></g><g
           id="g40"
           transform="translate(1608.2227,823.8354)"><path
             d="m 0,0 c 22.285,-163.426 -74.22,-222.025 -177.732,-222.025 -82.811,0 -149.942,67.132 -149.942,149.942 0,66.249 53.703,119.953 119.953,119.953 52.999,0 95.963,-42.963 95.963,-95.963 0,-42.398 -34.373,-76.771 -76.77,-76.771 -33.919,0 -61.417,27.498 -61.417,61.416 0,27.137 21.999,49.134 49.133,49.134 21.708,0 39.307,-17.597 39.307,-39.307 0,-17.366 -14.079,-31.442 -31.445,-31.442 -13.894,0 -25.156,11.262 -25.156,25.153 0,11.116 9.01,20.124 20.124,20.124 8.892,0 16.1,-7.207 16.1,-16.099 0,-7.112 -5.765,-12.878 -12.88,-12.878 -5.691,0 -10.303,4.612 -10.303,10.303 0,4.552 3.69,8.244 8.245,8.244 3.639,0 6.591,-2.952 6.591,-6.595 0,-2.914 -2.361,-5.277 -5.274,-5.277"
             style="fill:#ffffff;fill-opacity:1;fill-rule:nonzero;stroke:#231f20;stroke-width:10;stroke-linecap:butt;stroke-linejoin:miter;stroke-miterlimit:4;stroke-dasharray:none;stroke-opacity:1"
             id="path42"
             inkscape:connector-curvature="0" /></g></g></g></g></svg>