<?xml version="1.0" encoding="UTF-8" standalone="no"?>
<!-- Created with Inkscape (http://www.inkscape.org/) -->

<svg
   xmlns:dc="http://purl.org/dc/elements/1.1/"
   xmlns:cc="http://creativecommons.org/ns#"
   xmlns:rdf="http://www.w3.org/1999/02/22-rdf-syntax-ns#"
   xmlns:svg="http://www.w3.org/2000/svg"
   xmlns="http://www.w3.org/2000/svg"
   xmlns:sodipodi="http://sodipodi.sourceforge.net/DTD/sodipodi-0.dtd"
   xmlns:inkscape="http://www.inkscape.org/namespaces/inkscape"
   id="svg2"
   version="1.1"
   inkscape:version="0.91 r13725"
   xml:space="preserve"
   width="2400"
   height="1350"
   viewBox="0 0 2400 1350"
   sodipodi:docname="eyes-money-0.svg"><metadata
     id="metadata8"><rdf:RDF><cc:Work
         rdf:about=""><dc:format>image/svg+xml</dc:format><dc:type
           rdf:resource="http://purl.org/dc/dcmitype/StillImage" /><dc:title></dc:title></cc:Work></rdf:RDF></metadata><defs
     id="defs6"><clipPath
       clipPathUnits="userSpaceOnUse"
       id="clipPath16"><path
         d="m 0,1080 1920,0 L 1920,0 0,0 0,1080 Z"
         id="path18"
         inkscape:connector-curvature="0" /></clipPath></defs><sodipodi:namedview
     pagecolor="#ffffff"
     bordercolor="#666666"
     borderopacity="1"
     objecttolerance="10"
     gridtolerance="10"
     guidetolerance="10"
     inkscape:pageopacity="0"
     inkscape:pageshadow="2"
     inkscape:window-width="640"
     inkscape:window-height="480"
     id="namedview4"
     showgrid="false"
     inkscape:zoom="0.14708333"
     inkscape:cx="547.30878"
     inkscape:cy="675"
     inkscape:window-x="0"
     inkscape:window-y="0"
     inkscape:window-maximized="0"
     inkscape:current-layer="g10" /><g
     id="g10"
     inkscape:groupmode="layer"
     inkscape:label="eyes-money-0"
     transform="matrix(1.25,0,0,-1.25,0,1350)"><g
       id="g12"><g
         id="g14"
         clip-path="url(#clipPath16)"><path
           d="m 595.888,622.672 -67.842,0 0,47.13 67.842,0 0,-47.13 z m -200.812,162.562 66.05,0 0,-47.13 -66.05,0 0,47.13 z m 234.963,-47.13 -101.994,0 0,47.13 101.994,0 c 17.76,0 34.152,9.563 34.152,34.153 0,24.589 -16.392,34.151 -34.152,34.151 l -101.994,0 0,14.91 -0.411,0 0,67.055 c 0,21.857 -9.563,34.151 -34.153,34.151 -24.588,0 -34.151,-12.294 -34.151,-34.151 l 0,-81.965 -98.407,0 c -18.442,0 -34.152,-15.71 -34.152,-34.151 l 0,-115.434 c 0,-18.441 15.71,-34.151 34.152,-34.151 l 100.202,0 0,-47.13 -100.202,0 c -17.758,0 -34.152,-9.563 -34.152,-34.152 0,-24.589 16.394,-34.152 34.152,-34.152 l 98.407,0 0,-81.965 c 0,-21.857 9.563,-34.151 34.151,-34.151 24.59,0 34.153,12.294 34.153,34.151 l 0,48.785 0.411,0 0,33.18 101.994,0 c 18.442,0 34.152,15.709 34.152,34.152 l 0,115.433 c 0,18.442 -15.71,34.151 -34.152,34.151"
           style="fill:#009444;fill-opacity:1;fill-rule:nonzero;stroke:none"
           id="path20"
           inkscape:connector-curvature="0" /><g
           id="g22"
           transform="translate(630.0391,742.6045)"><path
             d="m 0,0 -101.994,0 4.5,-4.5 0,47.13 -4.5,-4.5 73.757,0 28.121,0 c 19.463,0 35.451,11.58 38.246,31.378 1.536,10.882 -0.07,22.827 -6.722,31.836 -5.592,7.573 -14.209,11.921 -23.366,13.428 -8.98,1.479 -18.632,0.662 -27.682,0.662 l -81.104,0 -1.25,0 4.5,-4.5 0,14.91 c 0,2.453 -2.047,4.5 -4.5,4.5 l -0.411,0 4.5,-4.5 0,67.035 c 0,8.803 -1.471,18.016 -6.634,25.355 -5.278,7.503 -13.76,11.287 -22.61,12.629 -19.182,2.908 -40.028,-2.447 -46.172,-22.721 -2.116,-6.982 -1.888,-14.38 -1.888,-21.595 l 0,-28.158 0,-47.455 4.5,4.5 -74.068,0 c -8.988,0 -18.107,0.455 -27.083,-0.117 -19.961,-1.27 -35.908,-19.196 -35.908,-38.937 l 0,-75.921 0,-35.66 c 0,-15.78 6.654,-29.737 20.871,-37.596 8.297,-4.587 17.155,-4.506 26.246,-4.506 l 34.195,0 57.542,0 -4.5,4.5 0,-47.13 4.5,4.5 -73.632,0 -26.557,0 c -8.928,0 -18.025,-2.279 -25.183,-7.774 -8.391,-6.442 -12.17,-15.984 -13.277,-26.257 -1.186,-11.011 1.485,-22.304 8.445,-30.966 5.808,-7.231 15.294,-10.964 24.279,-11.961 9.035,-1.001 18.418,-0.345 27.483,-0.345 l 76.527,0 0.12,0 -4.5,4.5 0,-74.439 c 0,-12.473 0.116,-25.148 8.532,-35.27 5.982,-7.197 15.594,-9.783 24.503,-10.673 9.966,-0.995 21.042,0.237 29.71,5.555 14.258,8.75 14.559,25.999 14.559,40.859 l 0,40.788 -4.5,-4.5 0.411,0 c 2.453,0 4.5,2.047 4.5,4.5 l 0,33.18 -4.5,-4.5 73.757,0 28.121,0 c 20.789,0 38.768,17.829 38.768,38.662 l 0,71.517 0,38.388 c 0,2.754 0.059,5.512 -0.116,8.262 -0.694,10.905 -6.64,21.171 -15.227,27.776 C 16.54,-2.925 8.528,-0.181 0,0 -5.807,0.123 -5.795,-8.877 0,-9 17.988,-9.382 29.652,-24.298 29.652,-41.4 l 0,-34.476 0,-77.499 c 0,-16.501 -13.505,-30.361 -30.11,-30.361 l -29.606,0 -71.93,0 c -2.453,0 -4.5,-2.047 -4.5,-4.5 l 0,-33.18 4.5,4.5 -0.411,0 c -2.453,0 -4.5,-2.047 -4.5,-4.5 l 0,-36.719 c 0,-12.268 1.924,-28.43 -9.28,-36.605 -8.11,-5.918 -20.388,-6.038 -29.848,-4.34 -8.736,1.568 -15.431,6.501 -18.302,15.014 -3.32,9.845 -1.874,22.236 -1.874,32.501 l 0,63.329 c 0,2.453 -2.047,4.5 -4.5,4.5 l -74.068,0 c -8.869,0 -17.781,-0.262 -26.646,0.054 -9.307,0.332 -18.257,4.355 -23.251,12.418 -5.818,9.394 -5.526,23.684 -0.576,33.338 5.692,11.102 17.92,13.493 29.271,13.493 l 32.708,0 64.357,0 c 2.454,0 4.5,2.047 4.5,4.5 l 0,47.13 c 0,2.453 -2.046,4.5 -4.5,4.5 l -73.632,0 -26.557,0 c -17.756,0 -29.665,15.342 -29.665,32.077 l 0,82.193 0,29.921 c 0,16.711 13.473,30.546 30.291,30.546 l 97.768,0 c 2.453,0 4.5,2.046 4.5,4.5 l 0,74.438 c 0,11.55 -0.693,25.388 10.101,32.616 8.334,5.581 20.77,5.513 30.203,3.543 8.737,-1.824 14.848,-7.256 17.432,-15.782 1.761,-5.809 1.568,-11.91 1.568,-17.91 l 0,-23.012 0,-38.983 c 0,-2.453 2.047,-4.5 4.5,-4.5 l 0.411,0 -4.5,4.5 0,-14.91 c 0,-2.454 2.047,-4.5 4.5,-4.5 l 73.757,0 28.121,0 c 8.191,0 16.291,-2.208 22.267,-8.033 C 30.27,90.487 30.988,76.844 28.405,66.484 24.812,52.074 11.366,47.13 -2.084,47.13 l -32.67,0 -67.24,0 c -2.453,0 -4.5,-2.047 -4.5,-4.5 l 0,-47.13 c 0,-2.453 2.047,-4.5 4.5,-4.5 L 0,-9 c 5.804,0 5.804,9 0,9"
             style="fill:#006838;fill-opacity:1;fill-rule:nonzero;stroke:none"
             id="path24"
             inkscape:connector-curvature="0" /></g><g
           id="g26"
           transform="translate(399.5757,738.1045)"><path
             d="m 0,0 0,47.13 -4.5,-4.5 66.05,0 -4.5,4.5 0,-47.13 4.5,4.5 -66.05,0 c -5.804,0 -5.804,-9 0,-9 l 66.05,0 c 2.453,0 4.5,2.047 4.5,4.5 l 0,47.13 c 0,2.453 -2.047,4.5 -4.5,4.5 l -66.05,0 c -2.453,0 -4.5,-2.047 -4.5,-4.5 L -9,0 c 0,-5.804 9,-5.804 9,0"
             style="fill:#006838;fill-opacity:1;fill-rule:nonzero;stroke:none"
             id="path28"
             inkscape:connector-curvature="0" /></g><g
           id="g30"
           transform="translate(595.8877,627.1719)"><path
             d="m 0,0 -67.842,0 4.5,-4.5 0,47.13 -4.5,-4.5 67.842,0 -4.5,4.5 0,-47.13 c 0,-5.804 9,-5.804 9,0 l 0,47.13 c 0,2.453 -2.047,4.5 -4.5,4.5 l -67.842,0 c -2.453,0 -4.5,-2.047 -4.5,-4.5 l 0,-47.13 c 0,-2.453 2.047,-4.5 4.5,-4.5 L 0,-9 c 5.804,0 5.804,9 0,9"
             style="fill:#006838;fill-opacity:1;fill-rule:nonzero;stroke:none"
             id="path32"
             inkscape:connector-curvature="0" /></g><path
           d="m 1513.783,623.919 -67.843,0 0,47.13 67.843,0 0,-47.13 z m -200.811,162.562 66.049,0 0,-47.13 -66.049,0 0,47.13 z m 234.963,-47.129 -101.995,0 0,47.129 101.995,0 c 17.759,0 34.152,9.563 34.152,34.153 0,24.589 -16.393,34.151 -34.152,34.151 l -101.995,0 0,14.91 -0.411,0 0,67.055 c 0,21.857 -9.563,34.151 -34.153,34.151 -24.588,0 -34.15,-12.294 -34.15,-34.151 l 0,-81.965 -98.408,0 c -18.442,0 -34.151,-15.709 -34.151,-34.151 l 0,-115.434 c 0,-18.441 15.709,-34.151 34.151,-34.151 l 100.203,0 0,-47.13 -100.203,0 c -17.758,0 -34.151,-9.563 -34.151,-34.152 0,-24.589 16.393,-34.152 34.151,-34.152 l 98.408,0 0,-81.965 c 0,-21.857 9.562,-34.151 34.15,-34.151 24.59,0 34.153,12.294 34.153,34.151 l 0,48.786 0.411,0 0,33.179 101.995,0 c 18.442,0 34.152,15.709 34.152,34.152 l 0,115.433 c 0,18.443 -15.71,34.152 -34.152,34.152"
           style="fill:#009444;fill-opacity:1;fill-rule:nonzero;stroke:none"
           id="path34"
           inkscape:connector-curvature="0" /><g
           id="g36"
           transform="translate(1547.9346,743.8516)"><path
             d="m 0,0 -101.994,0 4.5,-4.5 0,47.13 -4.5,-4.5 73.757,0 28.121,0 c 19.463,0 35.451,11.58 38.246,31.378 1.535,10.882 -0.07,22.827 -6.722,31.836 -5.592,7.573 -14.21,11.921 -23.365,13.428 -8.981,1.479 -18.634,0.662 -27.684,0.662 l -81.103,0 -1.25,0 4.5,-4.5 0,14.91 c 0,2.453 -2.047,4.5 -4.5,4.5 l -0.411,0 4.5,-4.5 0,67.035 c 0,8.803 -1.472,18.016 -6.634,25.355 -5.278,7.503 -13.761,11.287 -22.61,12.629 -19.182,2.908 -40.028,-2.447 -46.171,-22.721 -2.116,-6.982 -1.889,-14.38 -1.889,-21.595 l 0,-28.158 0,-47.455 4.5,4.5 -74.068,0 c -8.988,0 -18.107,0.455 -27.083,-0.117 -19.961,-1.27 -35.908,-19.196 -35.908,-38.937 l 0,-75.921 0,-35.66 c 0,-15.78 6.654,-29.737 20.871,-37.596 8.296,-4.587 17.155,-4.506 26.246,-4.506 l 34.195,0 57.542,0 -4.5,4.5 0,-47.13 4.5,4.5 -73.632,0 -26.557,0 c -8.928,0 -18.026,-2.279 -25.183,-7.774 -8.391,-6.442 -12.17,-15.984 -13.277,-26.257 -1.186,-11.011 1.485,-22.304 8.445,-30.966 5.808,-7.231 15.294,-10.964 24.279,-11.961 9.035,-1.001 18.418,-0.345 27.484,-0.345 l 76.526,0 0.12,0 -4.5,4.5 0,-74.439 c 0,-12.473 0.117,-25.148 8.532,-35.27 5.982,-7.197 15.593,-9.783 24.503,-10.673 9.966,-0.995 21.041,0.237 29.709,5.555 14.259,8.75 14.56,25.999 14.56,40.859 l 0,40.788 -4.5,-4.5 0.411,0 c 2.453,0 4.5,2.047 4.5,4.5 l 0,33.18 -4.5,-4.5 73.757,0 28.121,0 c 20.789,0 38.768,17.829 38.768,38.662 l 0,71.517 0,38.388 c 0,2.754 0.059,5.512 -0.116,8.262 -0.694,10.905 -6.64,21.171 -15.227,27.776 C 16.54,-2.925 8.527,-0.181 0,0 -5.808,0.123 -5.795,-8.877 0,-9 17.988,-9.382 29.652,-24.297 29.652,-41.4 l 0,-34.476 0,-77.499 c 0,-16.501 -13.505,-30.361 -30.11,-30.361 l -29.606,0 -71.93,0 c -2.453,0 -4.5,-2.047 -4.5,-4.5 l 0,-33.18 4.5,4.5 -0.411,0 c -2.453,0 -4.5,-2.047 -4.5,-4.5 l 0,-36.719 c 0,-12.268 1.924,-28.43 -9.28,-36.605 -8.11,-5.918 -20.388,-6.038 -29.848,-4.34 -8.736,1.568 -15.431,6.502 -18.302,15.014 -3.32,9.845 -1.874,22.236 -1.874,32.501 l 0,63.329 c 0,2.453 -2.047,4.5 -4.5,4.5 l -74.068,0 c -8.869,0 -17.782,-0.262 -26.647,0.054 -9.306,0.332 -18.257,4.355 -23.25,12.418 -5.817,9.394 -5.526,23.684 -0.576,33.338 5.692,11.102 17.92,13.493 29.271,13.493 l 32.708,0 64.357,0 c 2.453,0 4.5,2.047 4.5,4.5 l 0,47.13 c 0,2.453 -2.047,4.5 -4.5,4.5 l -73.632,0 -26.557,0 c -17.756,0 -29.665,15.341 -29.665,32.077 l 0,82.193 0,29.921 c 0,16.712 13.472,30.546 30.291,30.546 l 97.768,0 c 2.453,0 4.5,2.046 4.5,4.5 l 0,74.438 c 0,11.55 -0.693,25.388 10.101,32.616 8.334,5.581 20.769,5.513 30.203,3.543 8.737,-1.824 14.848,-7.256 17.432,-15.782 1.761,-5.809 1.568,-11.91 1.568,-17.91 l 0,-23.012 0,-38.983 c 0,-2.453 2.047,-4.5 4.5,-4.5 l 0.411,0 -4.5,4.5 0,-14.91 c 0,-2.454 2.047,-4.5 4.5,-4.5 l 73.757,0 28.121,0 c 8.191,0 16.292,-2.208 22.266,-8.033 8.12,-7.914 8.837,-21.557 6.254,-31.917 C 24.812,52.074 11.366,47.13 -2.084,47.13 l -32.67,0 -67.24,0 c -2.453,0 -4.5,-2.047 -4.5,-4.5 l 0,-47.13 c 0,-2.453 2.047,-4.5 4.5,-4.5 L 0,-9 c 5.804,0 5.804,9 0,9"
             style="fill:#006838;fill-opacity:1;fill-rule:nonzero;stroke:none"
             id="path38"
             inkscape:connector-curvature="0" /></g><g
           id="g40"
           transform="translate(1317.4717,739.3516)"><path
             d="m 0,0 0,47.13 -4.5,-4.5 66.049,0 -4.5,4.5 0,-47.13 4.5,4.5 -66.049,0 c -5.804,0 -5.804,-9 0,-9 l 66.049,0 c 2.453,0 4.5,2.047 4.5,4.5 l 0,47.13 c 0,2.453 -2.047,4.5 -4.5,4.5 l -66.049,0 c -2.453,0 -4.5,-2.047 -4.5,-4.5 L -9,0 c 0,-5.804 9,-5.804 9,0"
             style="fill:#006838;fill-opacity:1;fill-rule:nonzero;stroke:none"
             id="path42"
             inkscape:connector-curvature="0" /></g><g
           id="g44"
           transform="translate(1513.7832,628.4189)"><path
             d="m 0,0 -67.843,0 4.5,-4.5 0,47.13 -4.5,-4.5 67.843,0 -4.5,4.5 0,-47.13 c 0,-5.804 9,-5.804 9,0 l 0,47.13 c 0,2.453 -2.047,4.5 -4.5,4.5 l -67.843,0 c -2.453,0 -4.5,-2.047 -4.5,-4.5 l 0,-47.13 c 0,-2.453 2.047,-4.5 4.5,-4.5 L 0,-9 c 5.804,0 5.804,9 0,9"
             style="fill:#006838;fill-opacity:1;fill-rule:nonzero;stroke:none"
             id="path46"
             inkscape:connector-curvature="0" /></g></g></g></g></svg>