<?xml version="1.0" encoding="UTF-8" standalone="no"?>
<!-- Created with Inkscape (http://www.inkscape.org/) -->

<svg
   xmlns:dc="http://purl.org/dc/elements/1.1/"
   xmlns:cc="http://creativecommons.org/ns#"
   xmlns:rdf="http://www.w3.org/1999/02/22-rdf-syntax-ns#"
   xmlns:svg="http://www.w3.org/2000/svg"
   xmlns="http://www.w3.org/2000/svg"
   xmlns:sodipodi="http://sodipodi.sourceforge.net/DTD/sodipodi-0.dtd"
   xmlns:inkscape="http://www.inkscape.org/namespaces/inkscape"
   id="svg2"
   version="1.1"
   inkscape:version="0.91 r13725"
   xml:space="preserve"
   width="2400"
   height="1350"
   viewBox="0 0 2400 1350"
   sodipodi:docname="Anabelle-Worry-Eyes-Blink.svg"><metadata
     id="metadata8"><rdf:RDF><cc:Work
         rdf:about=""><dc:format>image/svg+xml</dc:format><dc:type
           rdf:resource="http://purl.org/dc/dcmitype/StillImage" /><dc:title></dc:title></cc:Work></rdf:RDF></metadata><defs
     id="defs6"><clipPath
       clipPathUnits="userSpaceOnUse"
       id="clipPath16"><path
         d="m 0,1080 1920,0 L 1920,0 0,0 0,1080 Z"
         id="path18"
         inkscape:connector-curvature="0" /></clipPath></defs><sodipodi:namedview
     pagecolor="#ffffff"
     bordercolor="#666666"
     borderopacity="1"
     objecttolerance="10"
     gridtolerance="10"
     guidetolerance="10"
     inkscape:pageopacity="0"
     inkscape:pageshadow="2"
     inkscape:window-width="640"
     inkscape:window-height="480"
     id="namedview4"
     showgrid="false"
     inkscape:zoom="0.1725"
     inkscape:cx="643.47826"
     inkscape:cy="675"
     inkscape:window-x="0"
     inkscape:window-y="0"
     inkscape:window-maximized="0"
     inkscape:current-layer="g10" /><g
     id="g10"
     inkscape:groupmode="layer"
     inkscape:label="Anabelle-Worry-Eyes-Blink"
     transform="matrix(1.25,0,0,-1.25,0,1350)"><g
       id="g12"><g
         id="g14"
         clip-path="url(#clipPath16)"><g
           id="g20"
           transform="translate(1701.29,637.333)"><path
             d="M 0,0 C -32.354,80.041 -233.076,161.378 -282.682,160.705 -617.134,156.162 -591.666,-60.78 -591.666,-60.78 c 0,0 140.665,37.499 310.484,37.499 169.82,0 304.485,-37.499 304.485,-37.499 0,0 5.698,-10.968 -23.303,60.78 m -1206.636,162.205 c -32.874,0 -62.27,-2.941 -88.555,-8.245 -7.196,-7.195 -188.132,-125.876 -197.382,-153.872 -28.67,-71.227 -23.048,-62.368 -23.048,-62.368 0,0 140.666,36.499 310.485,36.499 169.82,0 304.485,-36.499 304.485,-36.499 0,0 25.499,224.485 -305.985,224.485"
             style="fill:#ffffff;fill-opacity:1;fill-rule:nonzero;stroke:none"
             id="path22"
             inkscape:connector-curvature="0" /></g><g
           id="g24"
           transform="translate(1701.29,637.333)"><path
             d="M 0,0 C -32.354,80.041 -233.076,161.378 -282.682,160.705 -617.134,156.162 -591.666,-60.78 -591.666,-60.78 c 0,0 140.665,37.499 310.484,37.499 169.82,0 304.485,-37.499 304.485,-37.499 0,0 5.698,-10.968 -23.303,60.78 z m -1206.636,162.205 c -32.874,0 -62.27,-2.941 -88.555,-8.245 -7.196,-7.195 -188.132,-125.876 -197.382,-153.872 -28.67,-71.227 -23.048,-62.368 -23.048,-62.368 0,0 140.666,36.499 310.485,36.499 169.82,0 304.485,-36.499 304.485,-36.499 0,0 25.499,224.485 -305.985,224.485 z"
             style="fill:none;stroke:#231f20;stroke-width:9;stroke-linecap:butt;stroke-linejoin:miter;stroke-miterlimit:4;stroke-dasharray:none;stroke-opacity:1"
             id="path26"
             inkscape:connector-curvature="0" /></g><g
           id="g28"
           transform="translate(1436,797)"><path
             d="m 0,0 c -32,0 -77.125,2.813 -85,-6 -20.358,-22.786 -29.887,-46.648 -29.887,-77.274 0,-39.121 15.702,-80.478 51.192,-99.313 C 11,-178 68,-184 144.571,-193.917 185.49,-169.081 209,-142.5 209,-97 209,-86.128 32,0 0,0 M -713.849,-60.375 C -752,-5 -969.368,16.318 -1008,-3 c -27.23,-13.617 -30.841,-48.251 -30.841,-78.774 0,-41.609 25.582,-74.765 57.348,-103.936 2.493,-2.29 168.493,-3.29 199.171,-8.45 45,19.912 70.466,65.805 70.466,112.386 0,7.279 2.032,15.556 -1.993,21.399"
             style="fill:#00b0d8;fill-opacity:1;fill-rule:nonzero;stroke:none"
             id="path30"
             inkscape:connector-curvature="0" /></g><g
           id="g32"
           transform="translate(1436,797)"><path
             d="m 0,0 c -32,0 -77.125,2.813 -85,-6 -20.358,-22.786 -29.887,-46.648 -29.887,-77.274 0,-39.121 15.702,-80.478 51.192,-99.313 C 11,-178 68,-184 144.571,-193.917 185.49,-169.081 209,-142.5 209,-97 209,-86.128 32,0 0,0 Z M -713.849,-60.375 C -752,-5 -969.368,16.318 -1008,-3 c -27.23,-13.617 -30.841,-48.251 -30.841,-78.774 0,-41.609 25.582,-74.765 57.348,-103.936 2.493,-2.29 168.493,-3.29 199.171,-8.45 45,19.912 70.466,65.805 70.466,112.386 0,7.279 2.032,15.556 -1.993,21.399 z"
             style="fill:none;stroke:#231f20;stroke-width:9;stroke-linecap:butt;stroke-linejoin:miter;stroke-miterlimit:4;stroke-dasharray:none;stroke-opacity:1"
             id="path34"
             inkscape:connector-curvature="0" /></g></g></g></g></svg>