<?xml version="1.0" encoding="UTF-8" standalone="no"?>
<!-- Created with Inkscape (http://www.inkscape.org/) -->

<svg
   xmlns:dc="http://purl.org/dc/elements/1.1/"
   xmlns:cc="http://creativecommons.org/ns#"
   xmlns:rdf="http://www.w3.org/1999/02/22-rdf-syntax-ns#"
   xmlns:svg="http://www.w3.org/2000/svg"
   xmlns="http://www.w3.org/2000/svg"
   xmlns:sodipodi="http://sodipodi.sourceforge.net/DTD/sodipodi-0.dtd"
   xmlns:inkscape="http://www.inkscape.org/namespaces/inkscape"
   id="svg2"
   version="1.1"
   inkscape:version="0.91 r13725"
   xml:space="preserve"
   width="2400"
   height="1350"
   viewBox="0 0 2400 1350"
   sodipodi:docname="Anabelle-Sad-Eyes-Open.svg"><metadata
     id="metadata8"><rdf:RDF><cc:Work
         rdf:about=""><dc:format>image/svg+xml</dc:format><dc:type
           rdf:resource="http://purl.org/dc/dcmitype/StillImage" /><dc:title></dc:title></cc:Work></rdf:RDF></metadata><defs
     id="defs6"><clipPath
       clipPathUnits="userSpaceOnUse"
       id="clipPath16"><path
         d="m 0,1080 1920,0 L 1920,0 0,0 0,1080 Z"
         id="path18"
         inkscape:connector-curvature="0" /></clipPath></defs><sodipodi:namedview
     pagecolor="#ffffff"
     bordercolor="#666666"
     borderopacity="1"
     objecttolerance="10"
     gridtolerance="10"
     guidetolerance="10"
     inkscape:pageopacity="0"
     inkscape:pageshadow="2"
     inkscape:window-width="640"
     inkscape:window-height="480"
     id="namedview4"
     showgrid="false"
     inkscape:zoom="0.16958333"
     inkscape:cx="633.90663"
     inkscape:cy="675"
     inkscape:window-x="0"
     inkscape:window-y="0"
     inkscape:window-maximized="0"
     inkscape:current-layer="g10" /><g
     id="g10"
     inkscape:groupmode="layer"
     inkscape:label="Anabelle-Sad-Eyes-Open"
     transform="matrix(1.25,0,0,-1.25,0,1350)"><g
       id="g12"><g
         id="g14"
         clip-path="url(#clipPath16)"><g
           id="g20"
           transform="translate(1723.0469,663.7925)"><path
             d="M 0,0 C -1.641,85.028 -139.824,193.994 -307.484,220.986 -476.316,248.167 -615.814,118.04 -614.969,33 c 1.465,-147.401 138.686,-142.502 308.504,-142.502 C -136.645,-109.502 2.207,-114.401 0,0 M -1225.441,220.986 C -1392.462,190.282 -1530.558,85.12 -1532.926,0.243 c -3.062,-109.745 139.058,-109.745 308.877,-109.745 169.82,0 307.039,0 306.092,142.745 -0.563,84.908 -132.975,219.823 -307.484,187.743"
             style="fill:#ffffff;fill-opacity:1;fill-rule:nonzero;stroke:none"
             id="path22"
             inkscape:connector-curvature="0" /></g><g
           id="g24"
           transform="translate(1723.0469,663.7925)"><path
             d="M 0,0 C -1.641,85.028 -139.824,193.994 -307.484,220.986 -476.316,248.167 -615.814,118.04 -614.969,33 c 1.465,-147.401 138.686,-142.502 308.504,-142.502 C -136.645,-109.502 2.207,-114.401 0,0 Z M -1225.441,220.986 C -1392.462,190.282 -1530.558,85.12 -1532.926,0.243 c -3.062,-109.745 139.058,-109.745 308.877,-109.745 169.82,0 307.039,0 306.092,142.745 -0.563,84.908 -132.975,219.823 -307.484,187.743 z"
             style="fill:none;stroke:#231f20;stroke-width:9;stroke-linecap:butt;stroke-linejoin:miter;stroke-miterlimit:4;stroke-dasharray:none;stroke-opacity:1"
             id="path26"
             inkscape:connector-curvature="0" /></g><g
           id="g28"
           transform="translate(1414.0625,876.6025)"><path
             d="m 0,0 c -90.293,0 -163.492,-64.976 -163.492,-145.128 0,-80.153 75.719,-134.721 166.012,-134.721 90.294,0 160.972,54.568 160.972,134.721 C 163.492,-64.976 90.295,0 0,0 m -917.956,0.013 c -90.294,0 -163.492,-64.874 -163.492,-144.899 0,-80.026 76.089,-134.963 166.384,-134.963 90.293,0 160.6,54.937 160.6,134.963 0,80.025 -73.198,144.899 -163.492,144.899"
             style="fill:#00b0d8;fill-opacity:1;fill-rule:nonzero;stroke:none"
             id="path30"
             inkscape:connector-curvature="0" /></g><g
           id="g32"
           transform="translate(1414.0625,876.6025)"><path
             d="m 0,0 c -90.293,0 -163.492,-64.976 -163.492,-145.128 0,-80.153 75.719,-134.721 166.012,-134.721 90.294,0 160.972,54.568 160.972,134.721 C 163.492,-64.976 90.295,0 0,0 Z m -917.956,0.013 c -90.294,0 -163.492,-64.874 -163.492,-144.899 0,-80.026 76.089,-134.963 166.384,-134.963 90.293,0 160.6,54.937 160.6,134.963 0,80.025 -73.198,144.899 -163.492,144.899 z"
             style="fill:none;stroke:#231f20;stroke-width:9;stroke-linecap:butt;stroke-linejoin:miter;stroke-miterlimit:4;stroke-dasharray:none;stroke-opacity:1"
             id="path34"
             inkscape:connector-curvature="0" /></g></g></g></g></svg>