<?xml version="1.0" encoding="UTF-8" standalone="no"?>
<!-- Created with Inkscape (http://www.inkscape.org/) -->

<svg
   xmlns:dc="http://purl.org/dc/elements/1.1/"
   xmlns:cc="http://creativecommons.org/ns#"
   xmlns:rdf="http://www.w3.org/1999/02/22-rdf-syntax-ns#"
   xmlns:svg="http://www.w3.org/2000/svg"
   xmlns="http://www.w3.org/2000/svg"
   xmlns:sodipodi="http://sodipodi.sourceforge.net/DTD/sodipodi-0.dtd"
   xmlns:inkscape="http://www.inkscape.org/namespaces/inkscape"
   id="svg2"
   version="1.1"
   inkscape:version="0.91 r13725"
   xml:space="preserve"
   width="2400"
   height="1350"
   viewBox="0 0 2400 1350"
   sodipodi:docname="Anabelle-Dead-Eyes.svg"><metadata
     id="metadata8"><rdf:RDF><cc:Work
         rdf:about=""><dc:format>image/svg+xml</dc:format><dc:type
           rdf:resource="http://purl.org/dc/dcmitype/StillImage" /><dc:title></dc:title></cc:Work></rdf:RDF></metadata><defs
     id="defs6"><clipPath
       clipPathUnits="userSpaceOnUse"
       id="clipPath16"><path
         d="m 0,1080 1920,0 L 1920,0 0,0 0,1080 Z"
         id="path18"
         inkscape:connector-curvature="0" /></clipPath></defs><sodipodi:namedview
     pagecolor="#ffffff"
     bordercolor="#666666"
     borderopacity="1"
     objecttolerance="10"
     gridtolerance="10"
     guidetolerance="10"
     inkscape:pageopacity="0"
     inkscape:pageshadow="2"
     inkscape:window-width="640"
     inkscape:window-height="480"
     id="namedview4"
     showgrid="false"
     inkscape:zoom="0.15958333"
     inkscape:cx="598.43342"
     inkscape:cy="675"
     inkscape:window-x="0"
     inkscape:window-y="0"
     inkscape:window-maximized="0"
     inkscape:current-layer="g10" /><g
     id="g10"
     inkscape:groupmode="layer"
     inkscape:label="Anabelle-Dead-Eyes"
     transform="matrix(1.25,0,0,-1.25,0,1350)"><g
       id="g12"><g
         id="g14"
         clip-path="url(#clipPath16)"><g
           id="g20"
           transform="translate(191.5547,847.7319)"><path
             d="m 0,0 c 20.729,-10.267 41.458,-20.533 62.188,-30.8 49.401,-24.467 98.803,-48.934 148.205,-73.401 58.895,-29.169 117.79,-58.338 176.685,-87.507 49.21,-24.372 98.42,-48.744 147.63,-73.116 20.348,-10.078 40.696,-20.155 61.044,-30.233 6.595,-3.266 14.564,-1.826 18.471,4.843 3.523,6.015 1.747,15.206 -4.843,18.47 -20.73,10.267 -41.459,20.534 -62.188,30.8 -49.402,24.467 -98.803,48.934 -148.205,73.402 -58.895,29.168 -117.791,58.337 -176.686,87.506 -49.21,24.372 -98.42,48.744 -147.63,73.117 L 13.627,23.313 C 7.033,26.58 -0.937,25.14 -4.843,18.47 -8.367,12.456 -6.591,3.264 0,0"
             style="fill:#231f20;fill-opacity:1;fill-rule:nonzero;stroke:none"
             id="path22"
             inkscape:connector-curvature="0" /></g><g
           id="g24"
           transform="translate(1702.7529,874.8042)"><path
             d="m 0,0 -62.669,-31.119 c -49.647,-24.654 -99.295,-49.308 -148.943,-73.961 -58.876,-29.236 -117.752,-58.473 -176.628,-87.709 -48.574,-24.12 -97.148,-48.24 -145.722,-72.361 l -56.443,-28.028 c -6.588,-3.271 -8.37,-12.451 -4.844,-18.471 3.904,-6.664 11.88,-8.116 18.471,-4.843 20.889,10.373 41.779,20.746 62.668,31.119 49.648,24.654 99.296,49.308 148.944,73.961 58.876,29.237 117.752,58.473 176.628,87.709 48.574,24.12 97.147,48.241 145.722,72.361 l 56.443,28.029 c 6.587,3.271 8.37,12.45 4.844,18.47 C 14.566,1.821 6.591,3.273 0,0"
             style="fill:#231f20;fill-opacity:1;fill-rule:nonzero;stroke:none"
             id="path26"
             inkscape:connector-curvature="0" /></g><g
           id="g28"
           transform="translate(205.1816,552.6748)"><path
             d="m 0,0 c 20.729,10.267 41.458,20.533 62.188,30.799 49.402,24.468 98.803,48.934 148.205,73.402 58.895,29.169 117.791,58.338 176.686,87.507 l 147.629,73.116 c 20.349,10.077 40.697,20.155 61.045,30.233 6.59,3.264 8.366,12.456 4.843,18.47 -3.907,6.67 -11.876,8.11 -18.471,4.844 -20.729,-10.267 -41.458,-20.533 -62.187,-30.8 C 470.536,263.104 421.134,238.637 371.732,214.17 312.837,185.001 253.942,155.832 195.047,126.663 L 47.417,53.547 C 27.069,43.469 6.721,33.391 -13.627,23.313 -20.218,20.049 -21.994,10.858 -18.47,4.843 -14.563,-1.826 -6.594,-3.266 0,0"
             style="fill:#231f20;fill-opacity:1;fill-rule:nonzero;stroke:none"
             id="path30"
             inkscape:connector-curvature="0" /></g><g
           id="g32"
           transform="translate(1716.3799,581.626)"><path
             d="m 0,0 c -20.89,10.373 -41.778,20.746 -62.668,31.119 -49.647,24.654 -99.296,49.308 -148.943,73.962 -58.876,29.235 -117.753,58.472 -176.629,87.708 l -145.721,72.361 c -18.814,9.343 -37.63,18.685 -56.444,28.028 -6.591,3.273 -14.567,1.822 -18.471,-4.843 -3.526,-6.02 -1.744,-15.199 4.844,-18.47 20.888,-10.373 41.778,-20.746 62.668,-31.119 49.648,-24.654 99.296,-49.308 148.943,-73.962 58.877,-29.236 117.753,-58.472 176.629,-87.708 L -70.071,4.715 c 18.814,-9.343 37.63,-18.686 56.444,-28.028 6.591,-3.273 14.566,-1.822 18.471,4.842 C 8.37,-12.451 6.587,-3.271 0,0"
             style="fill:#231f20;fill-opacity:1;fill-rule:nonzero;stroke:none"
             id="path34"
             inkscape:connector-curvature="0" /></g></g></g></g></svg>