<?xml version="1.0" encoding="UTF-8" standalone="no"?>
<!-- Created with Inkscape (http://www.inkscape.org/) -->

<svg
   xmlns:dc="http://purl.org/dc/elements/1.1/"
   xmlns:cc="http://creativecommons.org/ns#"
   xmlns:rdf="http://www.w3.org/1999/02/22-rdf-syntax-ns#"
   xmlns:svg="http://www.w3.org/2000/svg"
   xmlns="http://www.w3.org/2000/svg"
   xmlns:sodipodi="http://sodipodi.sourceforge.net/DTD/sodipodi-0.dtd"
   xmlns:inkscape="http://www.inkscape.org/namespaces/inkscape"
   id="svg2"
   version="1.1"
   inkscape:version="0.91 r13725"
   xml:space="preserve"
   width="2400"
   height="1350"
   viewBox="0 0 2400 1350"
   sodipodi:docname="eyes-stars-0.svg"><metadata
     id="metadata8"><rdf:RDF><cc:Work
         rdf:about=""><dc:format>image/svg+xml</dc:format><dc:type
           rdf:resource="http://purl.org/dc/dcmitype/StillImage" /><dc:title></dc:title></cc:Work></rdf:RDF></metadata><defs
     id="defs6" /><sodipodi:namedview
     pagecolor="#ffffff"
     bordercolor="#666666"
     borderopacity="1"
     objecttolerance="10"
     gridtolerance="10"
     guidetolerance="10"
     inkscape:pageopacity="0"
     inkscape:pageshadow="2"
     inkscape:window-width="640"
     inkscape:window-height="480"
     id="namedview4"
     showgrid="false"
     inkscape:zoom="0.14458333"
     inkscape:cx="536.02305"
     inkscape:cy="675"
     inkscape:window-x="0"
     inkscape:window-y="0"
     inkscape:window-maximized="0"
     inkscape:current-layer="g10" /><g
     id="g10"
     inkscape:groupmode="layer"
     inkscape:label="eyes-stars-0"
     transform="matrix(1.25,0,0,-1.25,0,1350)"><g
       id="g12"
       transform="translate(430.9053,903.8975)"><path
         d="M 0,0 118.854,-102.779 270.9,-63.137 209.88,-207.934 294.566,-340.289 138,-327 38.292,-448.442 2.55,-295.432 -143.76,-238.131 -9.283,-156.855 0,0 Z"
         style="fill:#f9e340;fill-opacity:1;fill-rule:nonzero;stroke:none"
         id="path14"
         inkscape:connector-curvature="0" /></g><g
       id="g16"
       transform="translate(430.9053,903.8975)"><path
         d="M 0,0 118.854,-102.779 270.9,-63.137 209.88,-207.934 294.566,-340.289 138,-327 38.292,-448.442 2.55,-295.432 -143.76,-238.131 -9.283,-156.855 0,0 Z"
         style="fill:none;stroke:#e44145;stroke-width:9;stroke-linecap:butt;stroke-linejoin:miter;stroke-miterlimit:4;stroke-dasharray:none;stroke-opacity:1"
         id="path18"
         inkscape:connector-curvature="0" /></g><g
       id="g20"
       transform="translate(1493.7119,901.8975)"><path
         d="M 0,0 -118.854,-102.779 -270.9,-63.137 -209.88,-207.934 -294.566,-340.289 -138,-327 -38.293,-448.442 -2.55,-295.432 143.76,-238.131 9.283,-156.855 0,0 Z"
         style="fill:#f9e340;fill-opacity:1;fill-rule:nonzero;stroke:none"
         id="path22"
         inkscape:connector-curvature="0" /></g><g
       id="g24"
       transform="translate(1493.7119,901.8975)"><path
         d="M 0,0 -118.854,-102.779 -270.9,-63.137 -209.88,-207.934 -294.566,-340.289 -138,-327 -38.293,-448.442 -2.55,-295.432 143.76,-238.131 9.283,-156.855 0,0 Z"
         style="fill:none;stroke:#e44145;stroke-width:9;stroke-linecap:butt;stroke-linejoin:miter;stroke-miterlimit:4;stroke-dasharray:none;stroke-opacity:1"
         id="path26"
         inkscape:connector-curvature="0" /></g></g></svg>