<?xml version="1.0" encoding="UTF-8" standalone="no"?>
<!-- Created with Inkscape (http://www.inkscape.org/) -->

<svg
   xmlns:dc="http://purl.org/dc/elements/1.1/"
   xmlns:cc="http://creativecommons.org/ns#"
   xmlns:rdf="http://www.w3.org/1999/02/22-rdf-syntax-ns#"
   xmlns:svg="http://www.w3.org/2000/svg"
   xmlns="http://www.w3.org/2000/svg"
   xmlns:sodipodi="http://sodipodi.sourceforge.net/DTD/sodipodi-0.dtd"
   xmlns:inkscape="http://www.inkscape.org/namespaces/inkscape"
   id="svg2"
   version="1.1"
   inkscape:version="0.91 r13725"
   xml:space="preserve"
   width="2400"
   height="1350"
   viewBox="0 0 2400 1350"
   sodipodi:docname="Anabelle-Angry-Eyes-Blink.svg"><metadata
     id="metadata8"><rdf:RDF><cc:Work
         rdf:about=""><dc:format>image/svg+xml</dc:format><dc:type
           rdf:resource="http://purl.org/dc/dcmitype/StillImage" /><dc:title></dc:title></cc:Work></rdf:RDF></metadata><defs
     id="defs6"><clipPath
       clipPathUnits="userSpaceOnUse"
       id="clipPath16"><path
         d="m 0,1080 1920,0 L 1920,0 0,0 0,1080 Z"
         id="path18"
         inkscape:connector-curvature="0" /></clipPath></defs><sodipodi:namedview
     pagecolor="#ffffff"
     bordercolor="#666666"
     borderopacity="1"
     objecttolerance="10"
     gridtolerance="10"
     guidetolerance="10"
     inkscape:pageopacity="0"
     inkscape:pageshadow="2"
     inkscape:window-width="640"
     inkscape:window-height="480"
     id="namedview4"
     showgrid="false"
     inkscape:zoom="0.17291667"
     inkscape:cx="644.81928"
     inkscape:cy="675"
     inkscape:window-x="0"
     inkscape:window-y="0"
     inkscape:window-maximized="0"
     inkscape:current-layer="g10" /><g
     id="g10"
     inkscape:groupmode="layer"
     inkscape:label="Anabelle-Angry-Eyes-Blink"
     transform="matrix(1.25,0,0,-1.25,0,1350)"><g
       id="g12"><g
         id="g14"
         clip-path="url(#clipPath16)"><g
           id="g20"
           transform="translate(1417.832,800.5781)"><path
             d="m 0,0 c -176.049,-49.486 -312.203,-183.569 -312.203,-183.569 l 41.687,-61.906 c 0,0 53.391,9.027 120.862,16.504 47.702,5.286 102.443,9.799 150.33,9.799 172.424,0 308.609,-30.211 308.609,-30.211 0,0 23.297,342.869 -309.285,249.383 m -1231.852,-247.383 c 0,0 136.185,30.211 308.61,30.211 47.887,0 102.628,-4.513 150.33,-9.799 67.471,-7.477 120.861,-16.504 120.861,-16.504 l 41.688,61.906 c 0,0 -136.155,134.083 -312.203,183.569 -332.582,93.486 -309.286,-249.383 -309.286,-249.383"
             style="fill:#ffffff;fill-opacity:1;fill-rule:nonzero;stroke:none"
             id="path22"
             inkscape:connector-curvature="0" /></g><g
           id="g24"
           transform="translate(1417.832,800.5781)"><path
             d="m 0,0 c -176.049,-49.486 -312.203,-183.569 -312.203,-183.569 l 41.687,-61.906 c 0,0 53.391,9.027 120.862,16.504 47.702,5.286 102.443,9.799 150.33,9.799 172.424,0 308.609,-30.211 308.609,-30.211 0,0 23.297,342.869 -309.285,249.383 z m -1231.852,-247.383 c 0,0 136.185,30.211 308.61,30.211 47.887,0 102.628,-4.513 150.33,-9.799 67.471,-7.477 120.861,-16.504 120.861,-16.504 l 41.688,61.906 c 0,0 -136.155,134.083 -312.203,183.569 -332.582,93.486 -309.286,-249.383 -309.286,-249.383 z"
             style="fill:none;stroke:#231f20;stroke-width:9;stroke-linecap:butt;stroke-linejoin:miter;stroke-miterlimit:4;stroke-dasharray:none;stroke-opacity:1"
             id="path26"
             inkscape:connector-curvature="0" /></g><g
           id="g28"
           transform="translate(1397.9473,792.9204)"><path
             d="m 0,0 c -25.697,-1.58 -145.965,-50.684 -187.967,-96.225 -0.857,-5.811 -1.302,-11.748 -1.302,-17.784 0,-43.607 23.156,-82.052 58.372,-104.743 36.883,3.679 111.605,7.237 159.985,8.822 28.308,23.161 46.246,57.542 46.246,95.921 C 75.334,-63.733 44.555,-20.32 0,0 m -882.797,2 c -44.554,-20.32 -75.334,-63.733 -75.334,-114.009 0,-38.379 17.937,-72.76 46.246,-95.921 48.38,-1.585 123.102,-5.143 159.986,-8.822 35.215,22.691 58.371,61.136 58.371,104.743 0,6.036 -0.444,11.973 -1.302,17.784 C -736.833,-48.684 -857.1,0.42 -882.797,2"
             style="fill:#00b0d8;fill-opacity:1;fill-rule:nonzero;stroke:none"
             id="path30"
             inkscape:connector-curvature="0" /></g><g
           id="g32"
           transform="translate(1397.9473,792.9204)"><path
             d="m 0,0 c -25.697,-1.58 -145.965,-50.684 -187.967,-96.225 -0.857,-5.811 -1.302,-11.748 -1.302,-17.784 0,-43.607 23.156,-82.052 58.372,-104.743 36.883,3.679 111.605,7.237 159.985,8.822 28.308,23.161 46.246,57.542 46.246,95.921 C 75.334,-63.733 44.555,-20.32 0,0 Z m -882.797,2 c -44.554,-20.32 -75.334,-63.733 -75.334,-114.009 0,-38.379 17.937,-72.76 46.246,-95.921 48.38,-1.585 123.102,-5.143 159.986,-8.822 35.215,22.691 58.371,61.136 58.371,104.743 0,6.036 -0.444,11.973 -1.302,17.784 C -736.833,-48.684 -857.1,0.42 -882.797,2 Z"
             style="fill:none;stroke:#231f20;stroke-width:9;stroke-linecap:butt;stroke-linejoin:miter;stroke-miterlimit:4;stroke-dasharray:none;stroke-opacity:1"
             id="path34"
             inkscape:connector-curvature="0" /></g></g></g></g></svg>