<?xml version="1.0" encoding="UTF-8" standalone="no"?>
<!-- Created with Inkscape (http://www.inkscape.org/) -->

<svg
   xmlns:dc="http://purl.org/dc/elements/1.1/"
   xmlns:cc="http://creativecommons.org/ns#"
   xmlns:rdf="http://www.w3.org/1999/02/22-rdf-syntax-ns#"
   xmlns:svg="http://www.w3.org/2000/svg"
   xmlns="http://www.w3.org/2000/svg"
   xmlns:sodipodi="http://sodipodi.sourceforge.net/DTD/sodipodi-0.dtd"
   xmlns:inkscape="http://www.inkscape.org/namespaces/inkscape"
   id="svg2"
   version="1.1"
   inkscape:version="0.91 r13725"
   xml:space="preserve"
   width="2400"
   height="1350"
   viewBox="0 0 2400 1350"
   sodipodi:docname="eyes-peeved-0.svg"><metadata
     id="metadata8"><rdf:RDF><cc:Work
         rdf:about=""><dc:format>image/svg+xml</dc:format><dc:type
           rdf:resource="http://purl.org/dc/dcmitype/StillImage" /><dc:title></dc:title></cc:Work></rdf:RDF></metadata><defs
     id="defs6"><clipPath
       clipPathUnits="userSpaceOnUse"
       id="clipPath16"><path
         d="m 0,1080 1920,0 L 1920,0 0,0 0,1080 Z"
         id="path18"
         inkscape:connector-curvature="0" /></clipPath></defs><sodipodi:namedview
     pagecolor="#ffffff"
     bordercolor="#666666"
     borderopacity="1"
     objecttolerance="10"
     gridtolerance="10"
     guidetolerance="10"
     inkscape:pageopacity="0"
     inkscape:pageshadow="2"
     inkscape:window-width="640"
     inkscape:window-height="480"
     id="namedview4"
     showgrid="false"
     inkscape:zoom="0.14875"
     inkscape:cx="554.62185"
     inkscape:cy="675"
     inkscape:window-x="0"
     inkscape:window-y="0"
     inkscape:window-maximized="0"
     inkscape:current-layer="g10" /><g
     id="g10"
     inkscape:groupmode="layer"
     inkscape:label="eyes-peeved-0"
     transform="matrix(1.25,0,0,-1.25,0,1350)"><g
       id="g12"><g
         id="g14"
         clip-path="url(#clipPath16)"><g
           id="g20"
           transform="translate(188,705)"><path
             d="m 0,0 c 0,0 497.408,-50 612,-50 10.028,0 3.987,-96.317 0,-96 -352,28 -614,0 -614,0 L 0,0 Z"
             style="fill:#ffffff;fill-opacity:1;fill-rule:nonzero;stroke:none"
             id="path22"
             inkscape:connector-curvature="0" /></g><g
           id="g24"
           transform="translate(188,705)"><path
             d="m 0,0 c 0,0 497.408,-50 612,-50 10.028,0 3.987,-96.317 0,-96 -352,28 -614,0 -614,0 L 0,0 Z"
             style="fill:none;stroke:#231f20;stroke-width:9;stroke-linecap:butt;stroke-linejoin:miter;stroke-miterlimit:4;stroke-dasharray:none;stroke-opacity:1"
             id="path26"
             inkscape:connector-curvature="0" /></g><g
           id="g28"
           transform="translate(718,633)"><path
             d="m 0,0 c 0,11.664 -8.92,19.29 -28.084,25.211 -29.162,9.01 -211.691,19.183 -236.62,19.154 C -317.724,44.307 -350,21.406 -350,0 c 0,-32.033 78.35,-58 175,-58 96.65,0 175,25.967 175,58"
             style="fill:#00b0d8;fill-opacity:1;fill-rule:nonzero;stroke:none"
             id="path30"
             inkscape:connector-curvature="0" /></g><g
           id="g32"
           transform="translate(718,633)"><path
             d="m 0,0 c 0,11.664 -8.92,19.29 -28.084,25.211 -29.162,9.01 -211.691,19.183 -236.62,19.154 C -317.724,44.307 -350,21.406 -350,0 c 0,-32.033 78.35,-58 175,-58 96.65,0 175,25.967 175,58 z"
             style="fill:none;stroke:#231f20;stroke-width:9;stroke-linecap:butt;stroke-linejoin:miter;stroke-miterlimit:4;stroke-dasharray:none;stroke-opacity:1"
             id="path34"
             inkscape:connector-curvature="0" /></g><g
           id="g36"
           transform="translate(1726.9316,703.873)"><path
             d="m 0,0 c 0,0 -497.409,-50 -612,-50 -10.029,0 -3.988,-96.317 0,-96 352,28 614,0 614,0 L 0,0 Z"
             style="fill:#ffffff;fill-opacity:1;fill-rule:nonzero;stroke:none"
             id="path38"
             inkscape:connector-curvature="0" /></g><g
           id="g40"
           transform="translate(1726.9316,703.873)"><path
             d="m 0,0 c 0,0 -497.409,-50 -612,-50 -10.029,0 -3.988,-96.317 0,-96 352,28 614,0 614,0 L 0,0 Z"
             style="fill:none;stroke:#231f20;stroke-width:9;stroke-linecap:butt;stroke-linejoin:miter;stroke-miterlimit:4;stroke-dasharray:none;stroke-opacity:1"
             id="path42"
             inkscape:connector-curvature="0" /></g><g
           id="g44"
           transform="translate(1196.9316,631.873)"><path
             d="m 0,0 c 0,11.664 8.92,19.29 28.084,25.211 29.161,9.01 211.69,19.183 236.619,19.154 C 317.723,44.307 350,21.406 350,0 350,-32.033 271.649,-58 175,-58 78.35,-58 0,-32.033 0,0"
             style="fill:#00b0d8;fill-opacity:1;fill-rule:nonzero;stroke:none"
             id="path46"
             inkscape:connector-curvature="0" /></g><g
           id="g48"
           transform="translate(1196.9316,631.873)"><path
             d="m 0,0 c 0,11.664 8.92,19.29 28.084,25.211 29.161,9.01 211.69,19.183 236.619,19.154 C 317.723,44.307 350,21.406 350,0 350,-32.033 271.649,-58 175,-58 78.35,-58 0,-32.033 0,0 Z"
             style="fill:none;stroke:#231f20;stroke-width:9;stroke-linecap:butt;stroke-linejoin:miter;stroke-miterlimit:4;stroke-dasharray:none;stroke-opacity:1"
             id="path50"
             inkscape:connector-curvature="0" /></g></g></g></g></svg>