<?xml version="1.0" encoding="UTF-8" standalone="no"?>
<!-- Created with Inkscape (http://www.inkscape.org/) -->

<svg
   xmlns:dc="http://purl.org/dc/elements/1.1/"
   xmlns:cc="http://creativecommons.org/ns#"
   xmlns:rdf="http://www.w3.org/1999/02/22-rdf-syntax-ns#"
   xmlns:svg="http://www.w3.org/2000/svg"
   xmlns="http://www.w3.org/2000/svg"
   xmlns:sodipodi="http://sodipodi.sourceforge.net/DTD/sodipodi-0.dtd"
   xmlns:inkscape="http://www.inkscape.org/namespaces/inkscape"
   id="svg2"
   version="1.1"
   inkscape:version="0.91 r13725"
   xml:space="preserve"
   width="2400"
   height="1350"
   viewBox="0 0 2400 1350"
   sodipodi:docname="Anabelle-Dizzy-Eyes-2.svg"><metadata
     id="metadata8"><rdf:RDF><cc:Work
         rdf:about=""><dc:format>image/svg+xml</dc:format><dc:type
           rdf:resource="http://purl.org/dc/dcmitype/StillImage" /><dc:title></dc:title></cc:Work></rdf:RDF></metadata><defs
     id="defs6"><clipPath
       clipPathUnits="userSpaceOnUse"
       id="clipPath16"><path
         d="m 0,1080 1920,0 L 1920,0 0,0 0,1080 Z"
         id="path18"
         inkscape:connector-curvature="0" /></clipPath></defs><sodipodi:namedview
     pagecolor="#ffffff"
     bordercolor="#666666"
     borderopacity="1"
     objecttolerance="10"
     gridtolerance="10"
     guidetolerance="10"
     inkscape:pageopacity="0"
     inkscape:pageshadow="2"
     inkscape:window-width="640"
     inkscape:window-height="480"
     id="namedview4"
     showgrid="false"
     inkscape:zoom="0.165"
     inkscape:cx="618.18182"
     inkscape:cy="675"
     inkscape:window-x="0"
     inkscape:window-y="0"
     inkscape:window-maximized="0"
     inkscape:current-layer="g10" /><g
     id="g10"
     inkscape:groupmode="layer"
     inkscape:label="Anabelle-Dizzy-Eyes-2"
     transform="matrix(1.25,0,0,-1.25,0,1350)"><g
       id="g12"><g
         id="g14"
         clip-path="url(#clipPath16)"><g
           id="g20"
           transform="translate(524.2783,509.5586)"><path
             d="m 0,0 c 113.506,0 205.521,92.015 205.521,205.521 0,113.506 -92.015,205.521 -205.521,205.521 -113.506,0 -205.521,-92.015 -205.521,-205.521 C -205.521,92.016 -113.506,0 0,0"
             style="fill:#ffffff;fill-opacity:1;fill-rule:nonzero;stroke:none"
             id="path22"
             inkscape:connector-curvature="0" /></g><g
           id="g24"
           transform="translate(524.2783,509.5586)"><path
             d="m 0,0 c 113.506,0 205.521,92.015 205.521,205.521 0,113.506 -92.015,205.521 -205.521,205.521 -113.506,0 -205.521,-92.015 -205.521,-205.521 C -205.521,92.016 -113.506,0 0,0 Z"
             style="fill:none;stroke:#231f20;stroke-width:10;stroke-linecap:butt;stroke-linejoin:miter;stroke-miterlimit:4;stroke-dasharray:none;stroke-opacity:1"
             id="path26"
             inkscape:connector-curvature="0" /></g><g
           id="g28"
           transform="translate(593.6113,521.9395)"><path
             d="m 0,0 c -163.427,-22.284 -222.025,74.22 -222.025,177.733 0,82.81 67.131,149.941 149.941,149.941 66.249,0 119.954,-53.703 119.954,-119.952 0,-53 -42.964,-95.964 -95.964,-95.964 -42.397,0 -76.77,34.373 -76.77,76.77 0,33.92 27.498,61.417 61.416,61.417 27.136,0 49.134,-21.999 49.134,-49.133 0,-21.708 -17.597,-39.307 -39.307,-39.307 -17.366,0 -31.442,14.079 -31.442,31.445 0,13.895 11.261,25.156 25.153,25.156 11.115,0 20.124,-9.01 20.124,-20.124 0,-8.891 -7.207,-16.1 -16.1,-16.1 -7.111,0 -12.878,5.765 -12.878,12.881 0,5.69 4.613,10.302 10.303,10.302 4.553,0 8.244,-3.689 8.244,-8.244 0,-3.64 -2.952,-6.592 -6.595,-6.592 -2.914,0 -5.277,2.361 -5.277,5.274"
             style="fill:#ffffff;fill-opacity:1;fill-rule:nonzero;stroke:#231f20;stroke-width:10;stroke-linecap:butt;stroke-linejoin:miter;stroke-miterlimit:4;stroke-dasharray:none;stroke-opacity:1"
             id="path30"
             inkscape:connector-curvature="0" /></g><g
           id="g32"
           transform="translate(1456.3877,510.623)"><path
             d="m 0,0 c 113.506,0 205.521,92.016 205.521,205.522 0,113.506 -92.015,205.52 -205.521,205.52 -113.506,0 -205.521,-92.014 -205.521,-205.52 C -205.521,92.016 -113.506,0 0,0"
             style="fill:#ffffff;fill-opacity:1;fill-rule:nonzero;stroke:none"
             id="path34"
             inkscape:connector-curvature="0" /></g><g
           id="g36"
           transform="translate(1456.3877,510.623)"><path
             d="m 0,0 c 113.506,0 205.521,92.016 205.521,205.522 0,113.506 -92.015,205.52 -205.521,205.52 -113.506,0 -205.521,-92.014 -205.521,-205.52 C -205.521,92.016 -113.506,0 0,0 Z"
             style="fill:none;stroke:#231f20;stroke-width:10;stroke-linecap:butt;stroke-linejoin:miter;stroke-miterlimit:4;stroke-dasharray:none;stroke-opacity:1"
             id="path38"
             inkscape:connector-curvature="0" /></g><g
           id="g40"
           transform="translate(1525.7207,523.0039)"><path
             d="m 0,0 c -163.427,-22.283 -222.025,74.22 -222.025,177.734 0,82.809 67.131,149.94 149.941,149.94 66.249,0 119.954,-53.703 119.954,-119.952 0,-53 -42.964,-95.964 -95.964,-95.964 -42.397,0 -76.77,34.373 -76.77,76.771 0,33.92 27.498,61.417 61.416,61.417 27.136,0 49.134,-21.999 49.134,-49.134 0,-21.708 -17.597,-39.307 -39.307,-39.307 -17.366,0 -31.442,14.079 -31.442,31.446 0,13.894 11.261,25.156 25.153,25.156 11.115,0 20.124,-9.011 20.124,-20.124 0,-8.892 -7.207,-16.101 -16.1,-16.101 -7.111,0 -12.878,5.766 -12.878,12.881 0,5.691 4.613,10.303 10.303,10.303 4.553,0 8.244,-3.69 8.244,-8.244 0,-3.641 -2.952,-6.593 -6.595,-6.593 -2.914,0 -5.277,2.361 -5.277,5.274"
             style="fill:#ffffff;fill-opacity:1;fill-rule:nonzero;stroke:#231f20;stroke-width:10;stroke-linecap:butt;stroke-linejoin:miter;stroke-miterlimit:4;stroke-dasharray:none;stroke-opacity:1"
             id="path42"
             inkscape:connector-curvature="0" /></g></g></g></g></svg>