<?xml version="1.0" encoding="UTF-8" standalone="no"?>
<!-- Created with Inkscape (http://www.inkscape.org/) -->

<svg
   xmlns:dc="http://purl.org/dc/elements/1.1/"
   xmlns:cc="http://creativecommons.org/ns#"
   xmlns:rdf="http://www.w3.org/1999/02/22-rdf-syntax-ns#"
   xmlns:svg="http://www.w3.org/2000/svg"
   xmlns="http://www.w3.org/2000/svg"
   xmlns:sodipodi="http://sodipodi.sourceforge.net/DTD/sodipodi-0.dtd"
   xmlns:inkscape="http://www.inkscape.org/namespaces/inkscape"
   id="svg2"
   version="1.1"
   inkscape:version="0.91 r13725"
   xml:space="preserve"
   width="2400"
   height="1350"
   viewBox="0 0 2400 1350"
   sodipodi:docname="Anabelle-Mischevious-Eyes-Open.svg"><metadata
     id="metadata8"><rdf:RDF><cc:Work
         rdf:about=""><dc:format>image/svg+xml</dc:format><dc:type
           rdf:resource="http://purl.org/dc/dcmitype/StillImage" /><dc:title></dc:title></cc:Work></rdf:RDF></metadata><defs
     id="defs6"><clipPath
       clipPathUnits="userSpaceOnUse"
       id="clipPath16"><path
         d="m 0,1080 1920,0 L 1920,0 0,0 0,1080 Z"
         id="path18"
         inkscape:connector-curvature="0" /></clipPath></defs><sodipodi:namedview
     pagecolor="#ffffff"
     bordercolor="#666666"
     borderopacity="1"
     objecttolerance="10"
     gridtolerance="10"
     guidetolerance="10"
     inkscape:pageopacity="0"
     inkscape:pageshadow="2"
     inkscape:window-width="640"
     inkscape:window-height="480"
     id="namedview4"
     showgrid="false"
     inkscape:zoom="0.17481481"
     inkscape:cx="650.84746"
     inkscape:cy="675"
     inkscape:window-x="0"
     inkscape:window-y="0"
     inkscape:window-maximized="0"
     inkscape:current-layer="g10" /><g
     id="g10"
     inkscape:groupmode="layer"
     inkscape:label="Anabelle-Mischevious-Eyes-Open"
     transform="matrix(1.25,0,0,-1.25,0,1350)"><g
       id="g12"><g
         id="g14"
         clip-path="url(#clipPath16)"><g
           id="g20"
           transform="translate(1414.749,866.9502)"><path
             d="m 0,0 c -168.78,0 -305.698,-309.637 -305.698,-309.637 0,0 147.286,68.243 316.065,68.243 168.78,0 294.114,-64.243 294.114,-64.243 C 304.481,-305.637 168.779,0 0,0 m -916.833,0 c -169.819,0 -308.611,-305.394 -308.611,-305.394 0,0 138.18,54 308,54 169.819,0 308,-58 308,-58 0,0 -137.569,309.394 -307.389,309.394"
             style="fill:#ffffff;fill-opacity:1;fill-rule:nonzero;stroke:none"
             id="path22"
             inkscape:connector-curvature="0" /></g><g
           id="g24"
           transform="translate(1414.749,866.9502)"><path
             d="m 0,0 c -168.78,0 -305.698,-309.637 -305.698,-309.637 0,0 147.286,68.243 316.065,68.243 168.78,0 294.114,-64.243 294.114,-64.243 C 304.481,-305.637 168.779,0 0,0 Z m -916.833,0 c -169.819,0 -308.611,-305.394 -308.611,-305.394 0,0 138.18,54 308,54 169.819,0 308,-58 308,-58 0,0 -137.569,309.394 -307.389,309.394 z"
             style="fill:none;stroke:#231f20;stroke-width:9;stroke-linecap:butt;stroke-linejoin:miter;stroke-miterlimit:4;stroke-dasharray:none;stroke-opacity:1"
             id="path26"
             inkscape:connector-curvature="0" /></g><g
           id="g28"
           transform="translate(1413.2588,792.7744)"><path
             d="m 0,0 c -89.741,0 -162.491,-64.976 -162.491,-145.128 0,-16.592 3.625,-29.918 10.172,-40.62 194.987,34.53 266.547,12.53 308.354,2.497 4.229,10.257 6.455,22.796 6.455,38.123 C 162.49,-64.976 89.741,0 0,0 m -916.841,0.013 c -90.295,0 -163.492,-64.874 -163.492,-144.899 0,-17.613 3.491,-31.946 9.9,-43.588 149.479,14.256 210.479,10.256 306.047,-1.479 7.123,11.903 11.036,26.702 11.036,45.067 0,80.025 -73.197,144.899 -163.491,144.899"
             style="fill:#00b0d8;fill-opacity:1;fill-rule:nonzero;stroke:none"
             id="path30"
             inkscape:connector-curvature="0" /></g><g
           id="g32"
           transform="translate(1413.2588,792.7744)"><path
             d="m 0,0 c -89.741,0 -162.491,-64.976 -162.491,-145.128 0,-16.592 3.625,-29.918 10.172,-40.62 194.987,34.53 266.547,12.53 308.354,2.497 4.229,10.257 6.455,22.796 6.455,38.123 C 162.49,-64.976 89.741,0 0,0 Z m -916.841,0.013 c -90.295,0 -163.492,-64.874 -163.492,-144.899 0,-17.613 3.491,-31.946 9.9,-43.588 149.479,14.256 210.479,10.256 306.047,-1.479 7.123,11.903 11.036,26.702 11.036,45.067 0,80.025 -73.197,144.899 -163.491,144.899 z"
             style="fill:none;stroke:#231f20;stroke-width:9;stroke-linecap:butt;stroke-linejoin:miter;stroke-miterlimit:4;stroke-dasharray:none;stroke-opacity:1"
             id="path34"
             inkscape:connector-curvature="0" /></g></g></g></g></svg>