<?xml version="1.0" encoding="UTF-8" standalone="no"?>
<!-- Created with Inkscape (http://www.inkscape.org/) -->

<svg
   xmlns:dc="http://purl.org/dc/elements/1.1/"
   xmlns:cc="http://creativecommons.org/ns#"
   xmlns:rdf="http://www.w3.org/1999/02/22-rdf-syntax-ns#"
   xmlns:svg="http://www.w3.org/2000/svg"
   xmlns="http://www.w3.org/2000/svg"
   xmlns:sodipodi="http://sodipodi.sourceforge.net/DTD/sodipodi-0.dtd"
   xmlns:inkscape="http://www.inkscape.org/namespaces/inkscape"
   id="svg2"
   version="1.1"
   inkscape:version="0.91 r13725"
   xml:space="preserve"
   width="2400"
   height="1350"
   viewBox="0 0 2400 1350"
   sodipodi:docname="Anabelle-Happy-Eyes-Open.svg"><metadata
     id="metadata8"><rdf:RDF><cc:Work
         rdf:about=""><dc:format>image/svg+xml</dc:format><dc:type
           rdf:resource="http://purl.org/dc/dcmitype/StillImage" /><dc:title></dc:title></cc:Work></rdf:RDF></metadata><defs
     id="defs6"><clipPath
       clipPathUnits="userSpaceOnUse"
       id="clipPath16"><path
         d="m 0,1080 1920,0 L 1920,0 0,0 0,1080 Z"
         id="path18"
         inkscape:connector-curvature="0" /></clipPath></defs><sodipodi:namedview
     pagecolor="#ffffff"
     bordercolor="#666666"
     borderopacity="1"
     objecttolerance="10"
     gridtolerance="10"
     guidetolerance="10"
     inkscape:pageopacity="0"
     inkscape:pageshadow="2"
     inkscape:window-width="640"
     inkscape:window-height="480"
     id="namedview4"
     showgrid="false"
     inkscape:zoom="0.17458333"
     inkscape:cx="650.11933"
     inkscape:cy="675"
     inkscape:window-x="0"
     inkscape:window-y="0"
     inkscape:window-maximized="0"
     inkscape:current-layer="g10" /><g
     id="g10"
     inkscape:groupmode="layer"
     inkscape:label="Anabelle-Happy-Eyes-Open"
     transform="matrix(1.25,0,0,-1.25,0,1350)"><g
       id="g12"><g
         id="g14"
         clip-path="url(#clipPath16)"><g
           id="g20"
           transform="translate(1722.5107,686.6602)"><path
             d="M 0,0 C -1.416,84.898 -139.528,185.58 -309.345,184.594 -479.161,183.609 -616.303,81.332 -614.959,-3.567 -612.506,-158.545 -473.652,-124.3 -303.834,-123.314 -134.019,-122.329 2.585,-154.977 0,0 m -1228.381,184.084 c -169.82,0 -307.345,-101.48 -308.268,-186.385 -1.686,-154.99 134.725,-121.55 304.545,-121.55 169.819,0 308.87,-33.44 310.424,121.55 0.851,84.905 -136.882,186.385 -306.701,186.385"
             style="fill:#ffffff;fill-opacity:1;fill-rule:nonzero;stroke:none"
             id="path22"
             inkscape:connector-curvature="0" /></g><g
           id="g24"
           transform="translate(1722.5107,686.6602)"><path
             d="M 0,0 C -1.416,84.898 -139.528,185.58 -309.345,184.594 -479.161,183.609 -616.303,81.332 -614.959,-3.567 -612.506,-158.545 -473.652,-124.3 -303.834,-123.314 -134.019,-122.329 2.585,-154.977 0,0 Z m -1228.381,184.084 c -169.82,0 -307.345,-101.48 -308.268,-186.385 -1.686,-154.99 134.725,-121.55 304.545,-121.55 169.819,0 308.87,-33.44 310.424,121.55 0.851,84.905 -136.882,186.385 -306.701,186.385 z"
             style="fill:none;stroke:#231f20;stroke-width:9;stroke-linecap:butt;stroke-linejoin:miter;stroke-miterlimit:4;stroke-dasharray:none;stroke-opacity:1"
             id="path26"
             inkscape:connector-curvature="0" /></g><g
           id="g28"
           transform="translate(1415.5459,854.4624)"><path
             d="m 0,0 c -90.291,-0.524 -163.112,-65.821 -162.647,-145.845 0.463,-80.025 74.037,-144.472 164.329,-143.948 90.293,0.524 163.112,65.82 162.648,145.845 C 163.866,-63.924 90.294,0.524 0,0 m -924.699,-0.523 c -90.295,0 -163.492,-64.874 -163.492,-144.899 0,-80.026 73.197,-144.899 163.492,-144.899 90.293,0 163.491,64.873 163.491,144.899 0,80.025 -73.198,144.899 -163.491,144.899"
             style="fill:#00b0d8;fill-opacity:1;fill-rule:nonzero;stroke:none"
             id="path30"
             inkscape:connector-curvature="0" /></g><g
           id="g32"
           transform="translate(1415.5459,854.4624)"><path
             d="m 0,0 c -90.291,-0.524 -163.112,-65.821 -162.647,-145.845 0.463,-80.025 74.037,-144.472 164.329,-143.948 90.293,0.524 163.112,65.82 162.648,145.845 C 163.866,-63.924 90.294,0.524 0,0 Z m -924.699,-0.523 c -90.295,0 -163.492,-64.874 -163.492,-144.899 0,-80.026 73.197,-144.899 163.492,-144.899 90.293,0 163.491,64.873 163.491,144.899 0,80.025 -73.198,144.899 -163.491,144.899 z"
             style="fill:none;stroke:#231f20;stroke-width:9;stroke-linecap:butt;stroke-linejoin:miter;stroke-miterlimit:4;stroke-dasharray:none;stroke-opacity:1"
             id="path34"
             inkscape:connector-curvature="0" /></g></g></g></g></svg>