<?xml version="1.0" encoding="UTF-8" standalone="no"?>
<!-- Created with Inkscape (http://www.inkscape.org/) -->

<svg
   xmlns:dc="http://purl.org/dc/elements/1.1/"
   xmlns:cc="http://creativecommons.org/ns#"
   xmlns:rdf="http://www.w3.org/1999/02/22-rdf-syntax-ns#"
   xmlns:svg="http://www.w3.org/2000/svg"
   xmlns="http://www.w3.org/2000/svg"
   xmlns:sodipodi="http://sodipodi.sourceforge.net/DTD/sodipodi-0.dtd"
   xmlns:inkscape="http://www.inkscape.org/namespaces/inkscape"
   id="svg2"
   version="1.1"
   inkscape:version="0.91 r13725"
   xml:space="preserve"
   width="2400"
   height="1350"
   viewBox="0 0 2400 1350"
   sodipodi:docname="Anabelle-Bedroom-Eyes-Closed.svg"><metadata
     id="metadata8"><rdf:RDF><cc:Work
         rdf:about=""><dc:format>image/svg+xml</dc:format><dc:type
           rdf:resource="http://purl.org/dc/dcmitype/StillImage" /><dc:title></dc:title></cc:Work></rdf:RDF></metadata><defs
     id="defs6"><clipPath
       clipPathUnits="userSpaceOnUse"
       id="clipPath16"><path
         d="m 0,1080 1920,0 L 1920,0 0,0 0,1080 Z"
         id="path18"
         inkscape:connector-curvature="0" /></clipPath></defs><sodipodi:namedview
     pagecolor="#ffffff"
     bordercolor="#666666"
     borderopacity="1"
     objecttolerance="10"
     gridtolerance="10"
     guidetolerance="10"
     inkscape:pageopacity="0"
     inkscape:pageshadow="2"
     inkscape:window-width="640"
     inkscape:window-height="480"
     id="namedview4"
     showgrid="false"
     inkscape:zoom="0.17481481"
     inkscape:cx="650.84746"
     inkscape:cy="675"
     inkscape:window-x="0"
     inkscape:window-y="0"
     inkscape:window-maximized="0"
     inkscape:current-layer="g10" /><g
     id="g10"
     inkscape:groupmode="layer"
     inkscape:label="Anabelle-Bedroom-Eyes-Closed"
     transform="matrix(1.25,0,0,-1.25,0,1350)"><g
       id="g12"><g
         id="g14"
         clip-path="url(#clipPath16)"><g
           id="g20"
           transform="translate(208.8955,626.5693)"><path
             d="M 0,0 C 0,0 9.585,-14.016 -114.95,21.735 -85.897,-29.985 5.453,-6.366 5.453,-6.366 L 0,0 Z m -5.752,8.544 c 0,0 -54.714,17.607 -122.738,53.341 C -116.329,10.226 -0.007,-1.062 -0.007,-1.062 l -5.745,9.606 z m -4.922,4.653 -1.772,8.081 c 0,0 -6.1,3.967 -15.587,9.951 7.547,-3.879 12.361,-6.038 12.361,-6.038 l -0.033,7.949 c 0,0 -74.258,55.157 -101.783,103.706 -11.714,-28.283 14.716,-56.625 43.575,-77.679 -23.103,13.464 -46.33,25.844 -56.912,27.958 31.867,-53.157 120.151,-73.928 120.151,-73.928"
             style="fill:#231f20;fill-opacity:1;fill-rule:nonzero;stroke:none"
             id="path22"
             inkscape:connector-curvature="0" /></g><g
           id="g24"
           transform="translate(185,681)"><path
             d="M 0,0 C 0,-155.552 544,-120 622,-16"
             style="fill:none;stroke:#231f20;stroke-width:9;stroke-linecap:butt;stroke-linejoin:miter;stroke-miterlimit:4;stroke-dasharray:none;stroke-opacity:1"
             id="path26"
             inkscape:connector-curvature="0" /></g><g
           id="g28"
           transform="translate(1702.6709,620.2031)"><path
             d="M 0,0 C 0,0 91.35,-23.619 120.402,28.102 -4.133,-7.65 5.452,6.366 5.452,6.366 L 0,0 Z m 5.459,5.305 c 0,0 116.322,11.287 128.483,62.946 C 65.918,32.517 11.204,14.91 11.204,14.91 L 5.459,5.305 Z M 136.277,93.491 C 125.695,91.377 102.468,78.998 79.365,65.533 c 28.86,21.054 55.289,49.396 43.574,77.679 C 95.415,94.663 21.157,39.506 21.157,39.506 l -0.033,-7.949 c 0,0 4.814,2.159 12.36,6.038 -9.486,-5.984 -15.586,-9.95 -15.586,-9.95 l -1.771,-8.082 c 0,0 88.283,20.771 120.15,73.928"
             style="fill:#231f20;fill-opacity:1;fill-rule:nonzero;stroke:none"
             id="path30"
             inkscape:connector-curvature="0" /></g><g
           id="g32"
           transform="translate(1732.0186,681)"><path
             d="M 0,0 C 0,-155.552 -544,-120 -622,-16"
             style="fill:none;stroke:#231f20;stroke-width:9;stroke-linecap:butt;stroke-linejoin:miter;stroke-miterlimit:4;stroke-dasharray:none;stroke-opacity:1"
             id="path34"
             inkscape:connector-curvature="0" /></g></g></g></g></svg>