<?xml version="1.0" encoding="UTF-8" standalone="no"?>
<!-- Created with Inkscape (http://www.inkscape.org/) -->

<svg
   xmlns:dc="http://purl.org/dc/elements/1.1/"
   xmlns:cc="http://creativecommons.org/ns#"
   xmlns:rdf="http://www.w3.org/1999/02/22-rdf-syntax-ns#"
   xmlns:svg="http://www.w3.org/2000/svg"
   xmlns="http://www.w3.org/2000/svg"
   xmlns:sodipodi="http://sodipodi.sourceforge.net/DTD/sodipodi-0.dtd"
   xmlns:inkscape="http://www.inkscape.org/namespaces/inkscape"
   id="svg2"
   version="1.1"
   inkscape:version="0.91 r13725"
   xml:space="preserve"
   width="2400"
   height="1350"
   viewBox="0 0 2400 1350"
   sodipodi:docname="Anabelle-Disgust-Eyes-Blink.svg"><metadata
     id="metadata8"><rdf:RDF><cc:Work
         rdf:about=""><dc:format>image/svg+xml</dc:format><dc:type
           rdf:resource="http://purl.org/dc/dcmitype/StillImage" /><dc:title></dc:title></cc:Work></rdf:RDF></metadata><defs
     id="defs6"><clipPath
       clipPathUnits="userSpaceOnUse"
       id="clipPath16"><path
         d="m 0,1080 1920,0 L 1920,0 0,0 0,1080 Z"
         id="path18"
         inkscape:connector-curvature="0" /></clipPath></defs><sodipodi:namedview
     pagecolor="#ffffff"
     bordercolor="#666666"
     borderopacity="1"
     objecttolerance="10"
     gridtolerance="10"
     guidetolerance="10"
     inkscape:pageopacity="0"
     inkscape:pageshadow="2"
     inkscape:window-width="640"
     inkscape:window-height="480"
     id="namedview4"
     showgrid="false"
     inkscape:zoom="0.17481481"
     inkscape:cx="650.84746"
     inkscape:cy="675"
     inkscape:window-x="0"
     inkscape:window-y="0"
     inkscape:window-maximized="0"
     inkscape:current-layer="g10" /><g
     id="g10"
     inkscape:groupmode="layer"
     inkscape:label="Anabelle-Disgust-Eyes-Blink"
     transform="matrix(1.25,0,0,-1.25,0,1350)"><g
       id="g12"><g
         id="g14"
         clip-path="url(#clipPath16)"><g
           id="g20"
           transform="translate(1438.7432,830.1938)"><path
             d="m 0,0 c -237.358,-21.312 -332.979,-205.327 -330.642,-231.449 1.615,-18.033 53.879,32.836 311.419,37.678 204.536,3.844 301.781,-23.318 300.973,-9.384 C 277.296,-126.234 278.284,24.986 0,0 m -951.941,-31.526 c -153.425,72.796 -297.512,2.998 -297.512,-81.912 0,-84.909 143.071,-113.398 312.89,-113.398 169.82,0 298.346,-22.299 298.346,-22.299 0,0 -147.843,138.904 -313.724,217.609"
             style="fill:#ffffff;fill-opacity:1;fill-rule:nonzero;stroke:none"
             id="path22"
             inkscape:connector-curvature="0" /></g><g
           id="g24"
           transform="translate(1438.7432,830.1938)"><path
             d="m 0,0 c -237.358,-21.312 -332.979,-205.327 -330.642,-231.449 1.615,-18.033 53.879,32.836 311.419,37.678 204.536,3.844 301.781,-23.318 300.973,-9.384 C 277.296,-126.234 278.284,24.986 0,0 Z m -951.941,-31.526 c -153.425,72.796 -297.512,2.998 -297.512,-81.912 0,-84.909 143.071,-113.398 312.89,-113.398 169.82,0 298.346,-22.299 298.346,-22.299 0,0 -147.843,138.904 -313.724,217.609 z"
             style="fill:none;stroke:#231f20;stroke-width:9;stroke-linecap:butt;stroke-linejoin:miter;stroke-miterlimit:4;stroke-dasharray:none;stroke-opacity:1"
             id="path26"
             inkscape:connector-curvature="0" /></g><g
           id="g28"
           transform="translate(1511.1563,832.2061)"><path
             d="m 0,0 c -60.511,5.362 -147.79,-4.875 -243.527,-52.369 -10.084,-18.964 -15.732,-40.209 -15.732,-62.643 0,-32.967 11.508,-64.575 32.064,-88.929 126.816,13.732 189.312,9.421 261.417,6.351 19.393,23.227 28.584,49.902 28.584,82.578 C 62.806,-68.185 38.197,-26.537 0,0 m -1122.425,-4.86 c -33.95,-27.736 -56.948,-65.955 -56.948,-109.909 0,-43.169 21.3,-81.927 55.093,-108.473 49.814,-5.22 157.567,-4.681 206.706,-7.316 33.41,22.317 56.854,55.729 63.358,94.057 -46.229,35.726 -169.068,125.161 -268.209,131.641"
             style="fill:#00b0d8;fill-opacity:1;fill-rule:nonzero;stroke:none"
             id="path30"
             inkscape:connector-curvature="0" /></g><g
           id="g32"
           transform="translate(1511.1563,832.2061)"><path
             d="m 0,0 c -60.511,5.362 -147.79,-4.875 -243.527,-52.369 -10.084,-18.964 -15.732,-40.209 -15.732,-62.643 0,-32.967 11.508,-64.575 32.064,-88.929 126.816,13.732 189.312,9.421 261.417,6.351 19.393,23.227 28.584,49.902 28.584,82.578 C 62.806,-68.185 38.197,-26.537 0,0 Z m -1122.425,-4.86 c -33.95,-27.736 -56.948,-65.955 -56.948,-109.909 0,-43.169 21.3,-81.927 55.093,-108.473 49.814,-5.22 157.567,-4.681 206.706,-7.316 33.41,22.317 56.854,55.729 63.358,94.057 -46.229,35.726 -169.068,125.161 -268.209,131.641 z"
             style="fill:none;stroke:#231f20;stroke-width:9;stroke-linecap:butt;stroke-linejoin:miter;stroke-miterlimit:4;stroke-dasharray:none;stroke-opacity:1"
             id="path34"
             inkscape:connector-curvature="0" /></g></g></g></g></svg>