<?xml version="1.0" encoding="UTF-8" standalone="no"?>
<!-- Created with Inkscape (http://www.inkscape.org/) -->

<svg
   xmlns:dc="http://purl.org/dc/elements/1.1/"
   xmlns:cc="http://creativecommons.org/ns#"
   xmlns:rdf="http://www.w3.org/1999/02/22-rdf-syntax-ns#"
   xmlns:svg="http://www.w3.org/2000/svg"
   xmlns="http://www.w3.org/2000/svg"
   xmlns:sodipodi="http://sodipodi.sourceforge.net/DTD/sodipodi-0.dtd"
   xmlns:inkscape="http://www.inkscape.org/namespaces/inkscape"
   id="svg2"
   version="1.1"
   inkscape:version="0.91 r13725"
   xml:space="preserve"
   width="2400"
   height="1350"
   viewBox="0 0 2400 1350"
   sodipodi:docname="eyes-eyeroll-0.svg"><metadata
     id="metadata8"><rdf:RDF><cc:Work
         rdf:about=""><dc:format>image/svg+xml</dc:format><dc:type
           rdf:resource="http://purl.org/dc/dcmitype/StillImage" /><dc:title></dc:title></cc:Work></rdf:RDF></metadata><defs
     id="defs6"><clipPath
       clipPathUnits="userSpaceOnUse"
       id="clipPath16"><path
         d="m 0,1080 1920,0 L 1920,0 0,0 0,1080 Z"
         id="path18"
         inkscape:connector-curvature="0" /></clipPath></defs><sodipodi:namedview
     pagecolor="#ffffff"
     bordercolor="#666666"
     borderopacity="1"
     objecttolerance="10"
     gridtolerance="10"
     guidetolerance="10"
     inkscape:pageopacity="0"
     inkscape:pageshadow="2"
     inkscape:window-width="640"
     inkscape:window-height="480"
     id="namedview4"
     showgrid="false"
     inkscape:zoom="0.1475"
     inkscape:cx="549.15254"
     inkscape:cy="675"
     inkscape:window-x="0"
     inkscape:window-y="0"
     inkscape:window-maximized="0"
     inkscape:current-layer="g10" /><g
     id="g10"
     inkscape:groupmode="layer"
     inkscape:label="eyes-eyeroll-0"
     transform="matrix(1.25,0,0,-1.25,0,1350)"><g
       id="g12"><g
         id="g14"
         clip-path="url(#clipPath16)"><g
           id="g20"
           transform="translate(807.0039,857)"><path
             d="m 0,0 c 0,0.349 -138.572,31.395 -308.392,31.395 -169.819,0 -307.484,-19.997 -307.484,-24.395 0,-228 137.665,-283.09 307.484,-283.09 C -138.572,-276.09 0,-84.909 0,0"
             style="fill:#ffffff;fill-opacity:1;fill-rule:nonzero;stroke:none"
             id="path22"
             inkscape:connector-curvature="0" /></g><g
           id="g24"
           transform="translate(807.0039,857)"><path
             d="m 0,0 c 0,0.349 -138.572,31.395 -308.392,31.395 -169.819,0 -307.484,-19.997 -307.484,-24.395 0,-228 137.665,-283.09 307.484,-283.09 C -138.572,-276.09 0,-84.909 0,0 Z"
             style="fill:none;stroke:#231f20;stroke-width:9;stroke-linecap:butt;stroke-linejoin:miter;stroke-miterlimit:4;stroke-dasharray:none;stroke-opacity:1"
             id="path26"
             inkscape:connector-curvature="0" /></g><g
           id="g28"
           transform="translate(1104,857)"><path
             d="M 0,0 C 0,0.349 136.758,31.395 306.578,31.395 476.396,31.395 614.063,11.398 614.063,7 614.063,-221 476.396,-276.09 306.578,-276.09 136.758,-276.09 0,-84.909 0,0"
             style="fill:#ffffff;fill-opacity:1;fill-rule:nonzero;stroke:none"
             id="path30"
             inkscape:connector-curvature="0" /></g><g
           id="g32"
           transform="translate(1104,857)"><path
             d="M 0,0 C 0,0.349 136.758,31.395 306.578,31.395 476.396,31.395 614.063,11.398 614.063,7 614.063,-221 476.396,-276.09 306.578,-276.09 136.758,-276.09 0,-84.909 0,0 Z"
             style="fill:none;stroke:#231f20;stroke-width:9;stroke-linecap:butt;stroke-linejoin:miter;stroke-miterlimit:4;stroke-dasharray:none;stroke-opacity:1"
             id="path34"
             inkscape:connector-curvature="0" /></g><g
           id="g36"
           transform="translate(634,748)"><path
             d="m 0,0 c 0,77.872 -61.785,141 -138,141 -76.215,0 -138,-63.128 -138,-141 0,-77.872 61.785,-141 138,-141 76.215,0 138,63.128 138,141"
             style="fill:#00b0d8;fill-opacity:1;fill-rule:nonzero;stroke:none"
             id="path38"
             inkscape:connector-curvature="0" /></g><g
           id="g40"
           transform="translate(634,748)"><path
             d="m 0,0 c 0,77.872 -61.785,141 -138,141 -76.215,0 -138,-63.128 -138,-141 0,-77.872 61.785,-141 138,-141 76.215,0 138,63.128 138,141 z"
             style="fill:none;stroke:#231f20;stroke-width:9;stroke-linecap:butt;stroke-linejoin:miter;stroke-miterlimit:4;stroke-dasharray:none;stroke-opacity:1"
             id="path42"
             inkscape:connector-curvature="0" /></g><g
           id="g44"
           transform="translate(1556,748)"><path
             d="m 0,0 c 0,77.872 -61.785,141 -138,141 -76.215,0 -138,-63.128 -138,-141 0,-77.872 61.785,-141 138,-141 76.215,0 138,63.128 138,141"
             style="fill:#00b0d8;fill-opacity:1;fill-rule:nonzero;stroke:none"
             id="path46"
             inkscape:connector-curvature="0" /></g><g
           id="g48"
           transform="translate(1556,748)"><path
             d="m 0,0 c 0,77.872 -61.785,141 -138,141 -76.215,0 -138,-63.128 -138,-141 0,-77.872 61.785,-141 138,-141 76.215,0 138,63.128 138,141 z"
             style="fill:none;stroke:#231f20;stroke-width:9;stroke-linecap:butt;stroke-linejoin:miter;stroke-miterlimit:4;stroke-dasharray:none;stroke-opacity:1"
             id="path50"
             inkscape:connector-curvature="0" /></g></g></g></g></svg>