<?xml version="1.0" encoding="UTF-8" standalone="no"?>
<!-- Created with Inkscape (http://www.inkscape.org/) -->

<svg
   xmlns:dc="http://purl.org/dc/elements/1.1/"
   xmlns:cc="http://creativecommons.org/ns#"
   xmlns:rdf="http://www.w3.org/1999/02/22-rdf-syntax-ns#"
   xmlns:svg="http://www.w3.org/2000/svg"
   xmlns="http://www.w3.org/2000/svg"
   xmlns:sodipodi="http://sodipodi.sourceforge.net/DTD/sodipodi-0.dtd"
   xmlns:inkscape="http://www.inkscape.org/namespaces/inkscape"
   id="svg2"
   version="1.1"
   inkscape:version="0.91 r13725"
   xml:space="preserve"
   width="2400"
   height="1350"
   viewBox="0 0 2400 1350"
   sodipodi:docname="Anabelle-Thinking-Eyes-Blink.svg"><metadata
     id="metadata8"><rdf:RDF><cc:Work
         rdf:about=""><dc:format>image/svg+xml</dc:format><dc:type
           rdf:resource="http://purl.org/dc/dcmitype/StillImage" /><dc:title></dc:title></cc:Work></rdf:RDF></metadata><defs
     id="defs6"><clipPath
       clipPathUnits="userSpaceOnUse"
       id="clipPath16"><path
         d="m 0,1080 1920,0 L 1920,0 0,0 0,1080 Z"
         id="path18"
         inkscape:connector-curvature="0" /></clipPath></defs><sodipodi:namedview
     pagecolor="#ffffff"
     bordercolor="#666666"
     borderopacity="1"
     objecttolerance="10"
     gridtolerance="10"
     guidetolerance="10"
     inkscape:pageopacity="0"
     inkscape:pageshadow="2"
     inkscape:window-width="640"
     inkscape:window-height="480"
     id="namedview4"
     showgrid="false"
     inkscape:zoom="0.17481481"
     inkscape:cx="650.84746"
     inkscape:cy="675"
     inkscape:window-x="0"
     inkscape:window-y="0"
     inkscape:window-maximized="0"
     inkscape:current-layer="g10" /><g
     id="g10"
     inkscape:groupmode="layer"
     inkscape:label="Anabelle-Thinking-Eyes-Blink"
     transform="matrix(1.25,0,0,-1.25,0,1350)"><g
       id="g12"><g
         id="g14"
         clip-path="url(#clipPath16)"><g
           id="g20"
           transform="translate(1422.3125,795.5698)"><path
             d="m 0,0 c -326.611,0 -312.611,-222.197 -312.611,-222.197 0,0 142.793,-17.63 312.611,-17.63 169.82,0 302.357,18.63 302.357,18.63 C 302.357,-221.197 303.461,0 0,0 m -921,0 c -326.611,0 -312.611,-217.197 -312.611,-217.197 0,0 142.792,-22.63 312.611,-22.63 169.82,0 302.357,20.63 302.357,20.63 0,0 1.104,219.197 -302.357,219.197"
             style="fill:#ffffff;fill-opacity:1;fill-rule:nonzero;stroke:none"
             id="path22"
             inkscape:connector-curvature="0" /></g><g
           id="g24"
           transform="translate(1422.3125,795.5698)"><path
             d="m 0,0 c -326.611,0 -312.611,-222.197 -312.611,-222.197 0,0 142.793,-17.63 312.611,-17.63 169.82,0 302.357,18.63 302.357,18.63 C 302.357,-221.197 303.461,0 0,0 Z m -921,0 c -326.611,0 -312.611,-217.197 -312.611,-217.197 0,0 142.792,-22.63 312.611,-22.63 169.82,0 302.357,20.63 302.357,20.63 0,0 1.104,219.197 -302.357,219.197 z"
             style="fill:none;stroke:#231f20;stroke-width:9;stroke-linecap:butt;stroke-linejoin:miter;stroke-miterlimit:4;stroke-dasharray:none;stroke-opacity:1"
             id="path26"
             inkscape:connector-curvature="0" /></g><g
           id="g28"
           transform="translate(1599,561)"><path
             d="M 0,0 C 50.682,23.617 82.994,67.128 73.306,118.165 55.861,210.06 -126.667,246 -173.419,232.611 c -56.006,-16.038 -80.259,-58.021 -80.259,-114.446 0,-51.335 31.655,-93.897 75.553,-122.175 C -174,-6.667 -3.029,-1.412 0,0 m -1105.575,232.611 c -53.849,-22.231 -69.103,-58.021 -69.103,-114.446 0,-51.667 30.044,-97.873 76.437,-122.672 1.752,-0.936 167.945,2.78 178.908,7.174 52.188,20.914 82.772,64.895 71.639,115.498 -17.325,78.739 -214.114,132.515 -257.881,114.446"
             style="fill:#00b0d8;fill-opacity:1;fill-rule:nonzero;stroke:none"
             id="path30"
             inkscape:connector-curvature="0" /></g><g
           id="g32"
           transform="translate(1599,561)"><path
             d="M 0,0 C 50.682,23.617 82.994,67.128 73.306,118.165 55.861,210.06 -126.667,246 -173.419,232.611 c -56.006,-16.038 -80.259,-58.021 -80.259,-114.446 0,-51.335 31.655,-93.897 75.553,-122.175 C -174,-6.667 -3.029,-1.412 0,0 Z m -1105.575,232.611 c -53.849,-22.231 -69.103,-58.021 -69.103,-114.446 0,-51.667 30.044,-97.873 76.437,-122.672 1.752,-0.936 167.945,2.78 178.908,7.174 52.188,20.914 82.772,64.895 71.639,115.498 -17.325,78.739 -214.114,132.515 -257.881,114.446 z"
             style="fill:none;stroke:#231f20;stroke-width:9;stroke-linecap:butt;stroke-linejoin:miter;stroke-miterlimit:4;stroke-dasharray:none;stroke-opacity:1"
             id="path34"
             inkscape:connector-curvature="0" /></g></g></g></g></svg>