<?xml version="1.0" encoding="UTF-8" standalone="no"?>
<!-- Created with Inkscape (http://www.inkscape.org/) -->

<svg
   xmlns:dc="http://purl.org/dc/elements/1.1/"
   xmlns:cc="http://creativecommons.org/ns#"
   xmlns:rdf="http://www.w3.org/1999/02/22-rdf-syntax-ns#"
   xmlns:svg="http://www.w3.org/2000/svg"
   xmlns="http://www.w3.org/2000/svg"
   xmlns:sodipodi="http://sodipodi.sourceforge.net/DTD/sodipodi-0.dtd"
   xmlns:inkscape="http://www.inkscape.org/namespaces/inkscape"
   id="svg2"
   version="1.1"
   inkscape:version="0.91 r13725"
   xml:space="preserve"
   width="2400"
   height="1350"
   viewBox="0 0 2400 1350"
   sodipodi:docname="mouth-buckteeth-0.svg"><metadata
     id="metadata8"><rdf:RDF><cc:Work
         rdf:about=""><dc:format>image/svg+xml</dc:format><dc:type
           rdf:resource="http://purl.org/dc/dcmitype/StillImage" /><dc:title></dc:title></cc:Work></rdf:RDF></metadata><defs
     id="defs6"><clipPath
       clipPathUnits="userSpaceOnUse"
       id="clipPath16"><path
         d="m 0,1080 1920,0 L 1920,0 0,0 0,1080 Z"
         id="path18"
         inkscape:connector-curvature="0" /></clipPath></defs><sodipodi:namedview
     pagecolor="#ffffff"
     bordercolor="#666666"
     borderopacity="1"
     objecttolerance="10"
     gridtolerance="10"
     guidetolerance="10"
     inkscape:pageopacity="0"
     inkscape:pageshadow="2"
     inkscape:window-width="640"
     inkscape:window-height="480"
     id="namedview4"
     showgrid="false"
     inkscape:zoom="0.1575"
     inkscape:cx="590.47619"
     inkscape:cy="675"
     inkscape:window-x="0"
     inkscape:window-y="0"
     inkscape:window-maximized="0"
     inkscape:current-layer="g10" /><g
     id="g10"
     inkscape:groupmode="layer"
     inkscape:label="mouth-buckteeth-0"
     transform="matrix(1.25,0,0,-1.25,0,1350)"><g
       id="g12"><g
         id="g14"
         clip-path="url(#clipPath16)"><g
           id="g20"
           transform="translate(503,373)"><path
             d="m 0,0 c -22,-36 -62,-74 -24,-110 16,-16 42,-26 60,-36 36,-18 36,-14 68,10 4,-64 50,-66 104,-76 30,-4 48,-12 68,16 12,22 16,52 20,76 0,-4 -2,-8 -2,-12"
             style="fill:#ffffff;fill-opacity:1;fill-rule:nonzero;stroke:none"
             id="path22"
             inkscape:connector-curvature="0" /></g><g
           id="g24"
           transform="translate(496.5239,376.7852)"><path
             d="m 0,0 c -13.409,-21.747 -31.825,-41.717 -38.788,-66.818 -3.295,-11.882 -2.189,-23.872 2.907,-35.025 5.544,-12.131 16.786,-21.526 27.519,-28.949 10.757,-7.439 22.689,-13.073 34.364,-18.886 11.057,-5.505 21.807,-11.598 33.411,-15.928 7.733,-2.886 16.174,-3.957 24.082,-1.133 9.432,3.369 17.351,10.299 25.207,16.275 1.849,1.406 3.702,2.807 5.559,4.203 -3.761,2.158 -7.523,4.318 -11.285,6.476 1.384,-20.283 6.989,-40.546 22.44,-54.675 13.491,-12.338 31.688,-17.799 49.168,-21.587 20.851,-4.518 42.166,-8.085 63.33,-10.755 9.581,-1.209 19.184,-0.885 28.169,2.925 10.093,4.279 19.33,13.342 24.299,23.039 11.861,23.146 15.126,49.738 19.326,75.059 -4.911,0.665 -9.821,1.329 -14.732,1.994 -0.261,-4.043 -1.736,-7.912 -2,-12 -0.624,-9.663 14.379,-9.603 15,0 0.261,4.043 1.736,7.912 2,12 0.542,8.38 -13.345,10.355 -14.732,1.994 -2.194,-13.227 -4.223,-26.479 -7.185,-39.562 -2.74,-12.101 -5.928,-27.001 -13.777,-36.945 -5.601,-7.096 -12.799,-13.01 -22.056,-13.987 -9.564,-1.01 -19.33,1.231 -28.725,2.707 -20.128,3.161 -40.706,6.062 -60.278,11.867 -15.708,4.658 -29.792,12.654 -37.755,27.462 -4.977,9.255 -6.785,20.101 -7.492,30.464 -0.343,5.033 -6.355,10.182 -11.285,6.475 -8.126,-6.108 -16.026,-12.952 -24.962,-17.875 -5.392,-2.97 -9.766,-2.718 -16.204,-0.691 -10.289,3.239 -19.707,8.981 -29.286,13.815 -10.7,5.401 -21.519,10.551 -31.76,16.806 -10.127,6.185 -19.948,13.997 -26.033,24.348 -5.275,8.971 -4.91,19.116 -1.995,28.774 3.297,10.926 9.841,20.842 16.108,30.259 6.747,10.139 13.998,19.932 20.393,30.304 C 18.044,0.688 5.065,8.215 0,0"
             style="fill:#231f20;fill-opacity:1;fill-rule:nonzero;stroke:none"
             id="path26"
             inkscape:connector-curvature="0" /></g><g
           id="g28"
           transform="translate(819,243)"><path
             d="m 0,0 c -4,-28 -14,-66 -22,-100 -10,-38 -16,-60 28,-72 28,-8 78,-26 84,12 -12,-46 116,-48 134,-20 14,24 12,180 12,180"
             style="fill:#ffffff;fill-opacity:1;fill-rule:nonzero;stroke:none"
             id="path30"
             inkscape:connector-curvature="0" /></g><g
           id="g32"
           transform="translate(811.7681,244.9941)"><path
             d="m 0,0 c -4.137,-28.417 -11.493,-56.332 -18.228,-84.212 -2.815,-11.655 -5.977,-23.254 -8.554,-34.965 -1.806,-8.21 -3.292,-16.865 -2.323,-25.281 2.284,-19.847 18.337,-29.86 36.016,-35.506 17.759,-5.672 36.306,-11.35 54.976,-12.692 9.287,-0.667 18.988,0.468 27.222,5.044 8.703,4.836 13.707,14.079 15.355,23.624 1.616,9.357 -12.107,13.522 -14.464,3.988 -7.653,-30.955 29.449,-42.864 52.936,-46.101 16.549,-2.279 33.232,-2.284 49.784,-0.034 12.647,1.72 26.648,4.654 37.151,12.353 9.095,6.668 11.676,16.28 13.594,26.916 2.733,15.155 3.881,30.624 4.843,45.975 2.05,32.742 2.51,65.597 2.523,98.396 0.002,6.834 -0.012,13.668 -0.099,20.501 -0.123,9.665 -15.123,9.678 -15,0 0.265,-20.848 0.097,-41.708 -0.301,-62.553 -0.615,-32.275 -1.038,-66.882 -6.305,-97.619 -0.839,-4.9 -1.848,-9.842 -3.587,-14.513 -0.574,-1.541 0.72,1.608 0.089,0.179 -0.16,-0.362 -0.338,-0.715 -0.518,-1.067 -0.187,-0.367 -0.398,-0.706 -0.625,-1.049 -0.959,-1.441 1.083,1.28 -0.067,-0.07 -0.695,-0.818 -1.49,-1.547 -2.298,-2.251 -1.442,-1.253 1.294,0.923 -0.293,-0.24 -0.653,-0.478 -1.336,-0.913 -2.021,-1.343 -9.789,-6.141 -24.244,-8.6 -36.474,-9.69 -15.53,-1.383 -31.468,-0.798 -46.425,2.284 -6.469,1.332 -13.883,3.588 -18.803,5.942 -2.59,1.239 -5.063,2.712 -7.396,4.385 1.019,-0.731 -1.547,1.34 -2.007,1.774 -0.457,0.431 -0.886,0.891 -1.314,1.351 -1.37,1.475 -0.059,-0.079 -0.736,0.853 -0.694,0.956 -1.274,1.988 -1.802,3.043 -0.877,1.748 0.531,-1.477 -0.132,0.357 -0.264,0.733 -0.45,1.49 -0.623,2.247 -0.442,1.933 0.123,-1.646 -0.08,0.351 -0.083,0.811 -0.078,1.63 -0.062,2.443 0.005,0.281 0.214,2.364 -0.033,0.549 0.122,0.893 0.33,1.771 0.545,2.643 -4.821,1.329 -9.643,2.659 -14.464,3.988 -1.263,-7.311 -4.333,-13.304 -10.68,-15.784 -7.15,-2.795 -15.425,-2.393 -23.053,-1.32 -9.302,1.307 -18.426,3.78 -27.44,6.365 -9.049,2.594 -18.584,4.735 -27.137,8.703 -3.463,1.607 -6.789,3.558 -9.604,6.132 -2.243,2.05 -4.137,4.878 -4.95,7.029 -2.375,6.285 -1.757,13.224 -0.523,20.334 1.845,10.635 5.002,21.031 7.503,31.52 3.531,14.805 7.188,29.582 10.644,44.406 3.752,16.093 7.322,32.266 9.704,48.627 C 15.052,0.055 13.529,4.055 9.226,5.238 5.659,6.219 0.59,4.053 0,0"
             style="fill:#231f20;fill-opacity:1;fill-rule:nonzero;stroke:none"
             id="path34"
             inkscape:connector-curvature="0" /></g><g
           id="g36"
           transform="translate(1077,239)"><path
             d="m 0,0 c 0,0 -6,-78 46,-84 26,-2 68,-2 90,14 32,22 4,96 4,96"
             style="fill:#ffffff;fill-opacity:1;fill-rule:nonzero;stroke:none"
             id="path38"
             inkscape:connector-curvature="0" /></g><g
           id="g40"
           transform="translate(1069.5,239)"><path
             d="m 0,0 c -1.667,-22.128 2.068,-47.421 13.816,-66.462 9.631,-15.608 25.118,-24.066 43.215,-25.29 23.215,-1.569 47.672,-1.161 70.08,5.701 13.102,4.012 25.886,11.048 32.616,23.429 6.157,11.33 7.103,25.013 6.416,37.642 -0.971,17.861 -5.097,36.22 -11.411,52.974 -3.378,8.962 -17.882,5.081 -14.464,-3.988 3.537,-9.384 6.101,-19.211 8.134,-29.017 3.137,-15.132 5.715,-33.874 -0.791,-48.348 -8.006,-17.812 -33.104,-21.538 -50.527,-23.177 -11.65,-1.096 -23.406,-1.06 -35.085,-0.503 -8.488,0.405 -16.2,1.447 -23.523,5.986 -13.947,8.644 -19.421,26.526 -22.072,42.233 -0.95,5.632 -1.502,12.903 -1.602,19.672 C 14.756,-6.104 14.771,-3.038 15,0 15.728,9.653 0.722,9.583 0,0"
             style="fill:#231f20;fill-opacity:1;fill-rule:nonzero;stroke:none"
             id="path42"
             inkscape:connector-curvature="0" /></g><g
           id="g44"
           transform="translate(1253,277)"><path
             d="m 0,0 c 28,-34 44,-84 92,-74 46,8 90,30 68,80 26,-30 70,30 74,56 2,30 -30,52 -56,64"
             style="fill:#ffffff;fill-opacity:1;fill-rule:nonzero;stroke:none"
             id="path46"
             inkscape:connector-curvature="0" /></g><g
           id="g48"
           transform="translate(1247.6963,271.6963)"><path
             d="m 0,0 c 24.159,-29.586 42.377,-79.247 88.033,-77.423 11.29,0.45 23.009,3.539 33.802,6.726 10.301,3.042 20.461,7.189 29.599,12.867 17.212,10.694 28.695,28.09 26.997,48.847 -0.692,8.459 -3.325,16.325 -6.651,24.072 C 167.854,12.06 163.927,9.03 160,6 c 27.984,-31.236 65.47,13.457 78.269,37.341 3.553,6.63 6.752,13.836 8.15,21.264 2.021,10.74 -1.717,22.286 -7.074,31.498 -11.279,19.389 -32.449,32.451 -52.256,41.676 -8.71,4.058 -16.333,-8.87 -7.57,-12.951 16.58,-7.724 33.884,-17.763 44.706,-32.945 4.928,-6.916 7.784,-14.695 7.646,-23.221 -0.084,-5.271 -3.278,-11.258 -5.591,-15.891 -6.625,-13.265 -15.913,-25.59 -27.498,-34.905 -4.276,-3.437 -10.551,-6.694 -14.855,-7.17 -5.514,-0.61 -9.19,1.301 -13.32,5.911 -2.231,2.49 -6.3,2.806 -9.088,1.172 -3.847,-2.253 -4.305,-6.504 -2.692,-10.26 3.789,-8.822 6.117,-18.765 4.028,-28.301 -1.777,-8.114 -6.859,-14.53 -13.041,-19.837 C 134.38,-53.87 112.016,-58.555 92.576,-61.976 73.36,-65.356 58.399,-54.153 46.794,-40.157 33.522,-24.15 23.775,-5.521 10.607,10.607 8.018,13.778 2.672,13.278 0,10.607 -3.106,7.5 -2.583,3.164 0,0"
             style="fill:#231f20;fill-opacity:1;fill-rule:nonzero;stroke:none"
             id="path50"
             inkscape:connector-curvature="0" /></g><g
           id="g52"
           transform="translate(531.0063,438.2324)"><path
             d="m 0,0 c -34.543,-8.966 -62.491,-34.828 -82.482,-63.447 -5.555,-7.951 7.457,-15.438 12.952,-7.571 17.76,25.425 42.863,48.597 73.517,56.553 C 13.344,-12.036 9.371,2.432 0,0"
             style="fill:#231f20;fill-opacity:1;fill-rule:nonzero;stroke:none"
             id="path54"
             inkscape:connector-curvature="0" /></g><g
           id="g56"
           transform="translate(911,79)"><path
             d="M 0,0 C -2,58 24,110 22,166"
             style="fill:#ffffff;fill-opacity:1;fill-rule:nonzero;stroke:none"
             id="path58"
             inkscape:connector-curvature="0" /></g><g
           id="g60"
           transform="translate(918.5,79)"><path
             d="M 0,0 C -1.666,56.432 23.725,109.566 22,166 21.705,175.649 6.704,175.679 7,166 8.723,109.629 -16.667,56.484 -15,0 -14.715,-9.65 0.286,-9.679 0,0"
             style="fill:#231f20;fill-opacity:1;fill-rule:nonzero;stroke:none"
             id="path62"
             inkscape:connector-curvature="0" /></g><g
           id="g64"
           transform="translate(1436.4277,436.9844)"><path
             d="M 0,0 C 5.98,-240.926 -929.542,-264.149 -935.522,-23.223"
             style="fill:none;stroke:#231f20;stroke-width:20;stroke-linecap:butt;stroke-linejoin:miter;stroke-miterlimit:4;stroke-dasharray:none;stroke-opacity:1"
             id="path66"
             inkscape:connector-curvature="0" /></g></g></g></g></svg>