<?xml version="1.0" encoding="UTF-8" standalone="no"?>
<!-- Created with Inkscape (http://www.inkscape.org/) -->

<svg
   xmlns:dc="http://purl.org/dc/elements/1.1/"
   xmlns:cc="http://creativecommons.org/ns#"
   xmlns:rdf="http://www.w3.org/1999/02/22-rdf-syntax-ns#"
   xmlns:svg="http://www.w3.org/2000/svg"
   xmlns="http://www.w3.org/2000/svg"
   xmlns:sodipodi="http://sodipodi.sourceforge.net/DTD/sodipodi-0.dtd"
   xmlns:inkscape="http://www.inkscape.org/namespaces/inkscape"
   id="svg2"
   version="1.1"
   inkscape:version="0.91 r13725"
   xml:space="preserve"
   width="2400"
   height="1350"
   viewBox="0 0 2400 1350"
   sodipodi:docname="mouth-money-0.svg"><metadata
     id="metadata8"><rdf:RDF><cc:Work
         rdf:about=""><dc:format>image/svg+xml</dc:format><dc:type
           rdf:resource="http://purl.org/dc/dcmitype/StillImage" /><dc:title></dc:title></cc:Work></rdf:RDF></metadata><defs
     id="defs6"><clipPath
       clipPathUnits="userSpaceOnUse"
       id="clipPath16"><path
         d="m 0,1080 1920,0 L 1920,0 0,0 0,1080 Z"
         id="path18"
         inkscape:connector-curvature="0" /></clipPath></defs><sodipodi:namedview
     pagecolor="#ffffff"
     bordercolor="#666666"
     borderopacity="1"
     objecttolerance="10"
     gridtolerance="10"
     guidetolerance="10"
     inkscape:pageopacity="0"
     inkscape:pageshadow="2"
     inkscape:window-width="640"
     inkscape:window-height="480"
     id="namedview4"
     showgrid="false"
     inkscape:zoom="0.15041667"
     inkscape:cx="561.77285"
     inkscape:cy="675"
     inkscape:window-x="0"
     inkscape:window-y="0"
     inkscape:window-maximized="0"
     inkscape:current-layer="g10" /><g
     id="g10"
     inkscape:groupmode="layer"
     inkscape:label="mouth-money-0"
     transform="matrix(1.25,0,0,-1.25,0,1350)"><g
       id="g12"><g
         id="g14"
         clip-path="url(#clipPath16)"><g
           id="g20"
           transform="translate(1434.5244,369.3604)"><path
             d="m 0,0 c -48.556,147.181 -306.303,-82.564 -550.305,-82.564 -259.262,0 -395.642,40.245 -395.642,-15.237 0,-55.48 145.372,-88.867 404.634,-88.867 C -282.049,-186.668 48.934,-148.321 0,0"
             style="fill:#ffffff;fill-opacity:1;fill-rule:nonzero;stroke:none"
             id="path22"
             inkscape:connector-curvature="0" /></g><g
           id="g24"
           transform="translate(1438.8633,370.5566)"><path
             d="m 0,0 c -8.168,24.436 -24.614,43.735 -50.274,49.996 -28.188,6.878 -58.936,-0.435 -86.13,-8.225 -38.618,-11.062 -75.934,-26.529 -113.209,-41.365 -43.488,-17.307 -87.055,-34.498 -131.693,-48.654 -45.756,-14.51 -92.829,-25.869 -140.773,-29.707 -27.783,-2.225 -55.794,-1.338 -83.628,-0.793 -28.52,0.559 -57.027,1.614 -85.517,3.021 -45.111,2.229 -90.142,5.651 -135.222,8.385 -28.555,1.733 -57.879,4.101 -86.404,0.725 -15.278,-1.809 -33.468,-5.78 -40.033,-21.498 -6.16,-14.748 2.088,-31.09 12.734,-41.226 17.228,-16.4 41.687,-24.927 64.004,-31.593 36.6,-10.932 74.761,-16.614 112.626,-20.982 52.889,-6.101 106.168,-8.695 159.373,-9.846 53.161,-1.15 106.37,-0.731 159.5,1.387 94.047,3.75 189.417,11.745 280.988,34.507 35.669,8.866 71.427,20.271 103.693,38.156 23.43,12.987 46.565,30.844 57.931,55.811 C 6.94,-42.188 6.636,-20.374 0,0 c -1.789,5.493 -10.48,3.142 -8.678,-2.393 7.861,-24.138 5.4,-48.462 -9.463,-69.326 -16.85,-23.654 -44.498,-38.677 -70.473,-50.095 -36.228,-15.927 -75.181,-25.726 -113.859,-33.547 -46.13,-9.327 -92.921,-15.226 -139.77,-19.464 -104.925,-9.493 -210.947,-10.886 -316.161,-6.152 -48.519,2.184 -97.118,5.91 -145.121,13.476 -32.701,5.154 -65.876,11.837 -96.617,24.453 -16.572,6.802 -35.915,16.775 -43.456,33.374 -2.319,5.107 -2.905,11.926 -1.212,17.484 0.648,2.127 2.104,4.513 3.633,6.146 2.197,2.346 3.868,3.392 7.219,5.055 6.528,3.238 16.145,4.891 24.25,5.718 12.693,1.293 25.52,1.249 38.262,0.977 37.848,-0.805 75.65,-4.075 113.413,-6.538 53.789,-3.509 107.624,-6.179 161.525,-7.083 27.195,-0.456 54.404,-0.939 81.518,1.572 23.735,2.199 47.286,6.258 70.533,11.48 90.078,20.233 173.981,59.112 260.15,91.086 31.826,11.808 65.098,23.834 99.158,26.795 23.809,2.069 48.305,-1.924 64.103,-21.406 C -15.366,14.608 -11.517,6.1 -8.678,-2.393 -6.848,-7.868 1.846,-5.521 0,0"
             style="fill:#231f20;fill-opacity:1;fill-rule:nonzero;stroke:none"
             id="path26"
             inkscape:connector-curvature="0" /></g><g
           id="g28"
           transform="translate(554.2139,301.1553)"><path
             d="m 0,0 0,-86.155 c 0,-5.804 9,-5.804 9,0 L 9,0 C 9,5.804 0,5.804 0,0"
             style="fill:#231f20;fill-opacity:1;fill-rule:nonzero;stroke:none"
             id="path30"
             inkscape:connector-curvature="0" /></g><g
           id="g32"
           transform="translate(627.9473,295.7695)"><path
             d="m 0,0 0,-95.128 c 0,-5.804 9,-5.804 9,0 L 9,0 C 9,5.804 0,5.804 0,0"
             style="fill:#231f20;fill-opacity:1;fill-rule:nonzero;stroke:none"
             id="path34"
             inkscape:connector-curvature="0" /></g><g
           id="g36"
           transform="translate(708.874,290.3848)"><path
             d="m 0,0 0,-96.923 c 0,-5.804 9,-5.804 9,0 L 9,0 C 9,5.804 0,5.804 0,0"
             style="fill:#231f20;fill-opacity:1;fill-rule:nonzero;stroke:none"
             id="path38"
             inkscape:connector-curvature="0" /></g><g
           id="g40"
           transform="translate(796.9951,286.7959)"><path
             d="m 0,0 0,-102.309 c 0,-5.803 9,-5.803 9,0 L 9,0 C 9,5.804 0,5.804 0,0"
             style="fill:#231f20;fill-opacity:1;fill-rule:nonzero;stroke:none"
             id="path42"
             inkscape:connector-curvature="0" /></g><g
           id="g44"
           transform="translate(885.1162,285.001)"><path
             d="m 0,0 0,-98.719 c 0,-5.803 9,-5.803 9,0 L 9,0 C 9,5.804 0,5.804 0,0"
             style="fill:#231f20;fill-opacity:1;fill-rule:nonzero;stroke:none"
             id="path46"
             inkscape:connector-curvature="0" /></g><g
           id="g48"
           transform="translate(975.0352,293.9746)"><path
             d="m 0,0 0,-104.103 c 0,-5.803 9,-5.803 9,0 L 9,0 C 9,5.804 0,5.804 0,0"
             style="fill:#231f20;fill-opacity:1;fill-rule:nonzero;stroke:none"
             id="path50"
             inkscape:connector-curvature="0" /></g><g
           id="g52"
           transform="translate(1075.7441,320.8984)"><path
             d="m 0,0 0,-123.847 c 0,-5.803 9,-5.803 9,0 L 9,0 C 9,5.804 0,5.804 0,0"
             style="fill:#231f20;fill-opacity:1;fill-rule:nonzero;stroke:none"
             id="path54"
             inkscape:connector-curvature="0" /></g><g
           id="g56"
           transform="translate(1167.4619,360.3857)"><path
             d="m 0,0 0,-146.795 0,-9.359 c 0,-5.804 9,-5.804 9,0 L 9,-9.359 9,0 C 9,5.804 0,5.804 0,0"
             style="fill:#231f20;fill-opacity:1;fill-rule:nonzero;stroke:none"
             id="path58"
             inkscape:connector-curvature="0" /></g><g
           id="g60"
           transform="translate(1250.1865,389.1035)"><path
             d="m 0,0 0,-149.605 0,-20.909 c 0,-5.803 9,-5.803 9,0 L 9,-20.908 9,0 C 9,5.804 0,5.804 0,0"
             style="fill:#231f20;fill-opacity:1;fill-rule:nonzero;stroke:none"
             id="path62"
             inkscape:connector-curvature="0" /></g><g
           id="g64"
           transform="translate(1327.5166,410.6426)"><path
             d="m 0,0 0,-148.966 0,-16.163 c 0,-5.804 9,-5.804 9,0 L 9,-16.163 9,0 C 9,5.804 0,5.804 0,0"
             style="fill:#231f20;fill-opacity:1;fill-rule:nonzero;stroke:none"
             id="path66"
             inkscape:connector-curvature="0" /></g><g
           id="g68"
           transform="translate(1381.4688,417.8223)"><path
             d="m 0,0 0,-144.416 0,-5.129 c 0,-5.804 9,-5.804 9,0 L 9,-5.129 9,0 C 9,5.804 0,5.804 0,0"
             style="fill:#231f20;fill-opacity:1;fill-rule:nonzero;stroke:none"
             id="path70"
             inkscape:connector-curvature="0" /></g></g></g></g></svg>