<?xml version="1.0" encoding="UTF-8" standalone="no"?>
<!-- Created with Inkscape (http://www.inkscape.org/) -->

<svg
   xmlns:dc="http://purl.org/dc/elements/1.1/"
   xmlns:cc="http://creativecommons.org/ns#"
   xmlns:rdf="http://www.w3.org/1999/02/22-rdf-syntax-ns#"
   xmlns:svg="http://www.w3.org/2000/svg"
   xmlns="http://www.w3.org/2000/svg"
   xmlns:sodipodi="http://sodipodi.sourceforge.net/DTD/sodipodi-0.dtd"
   xmlns:inkscape="http://www.inkscape.org/namespaces/inkscape"
   id="svg2"
   version="1.1"
   inkscape:version="0.91 r13725"
   xml:space="preserve"
   width="2400"
   height="1350"
   viewBox="0 0 2400 1350"
   sodipodi:docname="Anabelle-Disgust-Mouth-Open.svg"><metadata
     id="metadata8"><rdf:RDF><cc:Work
         rdf:about=""><dc:format>image/svg+xml</dc:format><dc:type
           rdf:resource="http://purl.org/dc/dcmitype/StillImage" /><dc:title></dc:title></cc:Work></rdf:RDF></metadata><defs
     id="defs6"><clipPath
       clipPathUnits="userSpaceOnUse"
       id="clipPath24"><path
         d="m 0,1080 1920,0 L 1920,0 0,0 0,1080 Z"
         id="path26"
         inkscape:connector-curvature="0" /></clipPath></defs><sodipodi:namedview
     pagecolor="#ffffff"
     bordercolor="#666666"
     borderopacity="1"
     objecttolerance="10"
     gridtolerance="10"
     guidetolerance="10"
     inkscape:pageopacity="0"
     inkscape:pageshadow="2"
     inkscape:window-width="640"
     inkscape:window-height="480"
     id="namedview4"
     showgrid="false"
     inkscape:zoom="0.17481481"
     inkscape:cx="650.84746"
     inkscape:cy="675"
     inkscape:window-x="0"
     inkscape:window-y="0"
     inkscape:window-maximized="0"
     inkscape:current-layer="g10" /><g
     id="g10"
     inkscape:groupmode="layer"
     inkscape:label="Anabelle-Disgust-Mouth-Open"
     transform="matrix(1.25,0,0,-1.25,0,1350)"><g
       id="g12"
       transform="translate(1204.9541,417.2793)"><path
         d="m 0,0 -54.333,8.666 -78.333,-54 -77.001,-52 L -11,-93.667 0,0 Z"
         style="fill:#ffffff;fill-opacity:1;fill-rule:nonzero;stroke:none"
         id="path14"
         inkscape:connector-curvature="0" /></g><g
       id="g16"
       transform="translate(948.9629,325.8809)"><path
         d="M 0,0 246.756,0"
         style="fill:none;stroke:#231f20;stroke-width:20;stroke-linecap:butt;stroke-linejoin:miter;stroke-miterlimit:4;stroke-dasharray:none;stroke-opacity:1"
         id="path18"
         inkscape:connector-curvature="0" /></g><g
       id="g20"><g
         id="g22"
         clip-path="url(#clipPath24)"><g
           id="g28"
           transform="translate(888.1367,342.2441)"><path
             d="m 0,0 c 4.124,0.982 7.605,0.539 12.635,-0.801 5.969,-1.59 11.21,-4.257 16.67,-7.213 10.471,-5.67 20.099,-13.081 31.097,-17.729 22.235,-9.399 46.188,-7.307 68.175,1.803 22.872,9.475 42.833,24.208 61.666,40.07 8.45,7.117 16.605,14.576 24.712,22.077 3.271,3.026 6.505,6.098 9.826,9.069 1.361,1.218 2.764,2.388 4.176,3.545 0.763,0.625 1.539,1.235 2.314,1.844 -2.165,-1.702 1.351,0.981 1.729,1.259 5.227,3.835 10.713,7.309 16.365,10.478 3.131,1.756 6.347,3.353 9.609,4.849 1.318,0.573 1.457,0.645 0.416,0.215 0.731,0.304 1.464,0.598 2.203,0.885 1.819,0.719 3.672,1.353 5.532,1.959 2.892,0.941 5.849,1.666 8.832,2.252 0.726,0.136 1.454,0.259 2.186,0.369 -1.379,-0.182 -1.36,-0.194 0.059,-0.035 1.766,0.177 3.541,0.208 5.314,0.193 0.559,-0.006 4.968,-0.426 1.957,-0.008 1.673,-0.232 3.313,-0.652 4.931,-1.126 0.642,-0.199 1.276,-0.418 1.904,-0.657 -1.313,0.575 -1.345,0.572 -0.098,-0.011 1.544,-0.742 2.975,-1.693 4.364,-2.687 -2.077,1.486 1.227,-1.323 1.582,-1.684 0.517,-0.544 1.015,-1.104 1.494,-1.681 -0.681,0.916 -0.602,0.789 0.24,-0.381 2.38,-3.377 3.319,-5.603 4.448,-9.208 2.45,-7.832 2.306,-15.951 1.452,-24.658 -0.755,-7.698 -3.096,-16.256 -5.536,-23.981 -1.326,-4.197 -2.869,-8.323 -4.51,-12.407 -1.073,-2.673 -3.654,-7.086 -3.654,-11.217 0,-15.477 24,-15.477 24,0 l 0,0.582 c -0.546,-2.019 -1.092,-4.038 -1.639,-6.057 11.008,24.094 18.553,50.543 14.599,77.166 -3.499,23.562 -21.636,41.215 -45.534,42.015 C 263.214,99.768 242.77,89.353 226.314,78.437 209.925,67.563 196.304,53.304 181.636,40.329 168.298,28.532 155.387,18.161 140.217,8.829 133.282,4.563 124.873,0.194 118.45,-2.303 114.354,-3.895 110.146,-5.18 105.883,-6.242 101.093,-7.436 99.06,-7.685 95.19,-7.964 78.175,-9.194 67.187,-2.759 52.019,6.521 34.708,17.11 14.556,28.129 -6.381,23.143 -21.433,19.558 -15.048,-3.584 0,0"
             style="fill:#231f20;fill-opacity:1;fill-rule:nonzero;stroke:none"
             id="path30"
             inkscape:connector-curvature="0" /></g></g></g></g></svg>