<?xml version="1.0" encoding="UTF-8" standalone="no"?>
<!-- Created with Inkscape (http://www.inkscape.org/) -->

<svg
   xmlns:dc="http://purl.org/dc/elements/1.1/"
   xmlns:cc="http://creativecommons.org/ns#"
   xmlns:rdf="http://www.w3.org/1999/02/22-rdf-syntax-ns#"
   xmlns:svg="http://www.w3.org/2000/svg"
   xmlns="http://www.w3.org/2000/svg"
   xmlns:sodipodi="http://sodipodi.sourceforge.net/DTD/sodipodi-0.dtd"
   xmlns:inkscape="http://www.inkscape.org/namespaces/inkscape"
   id="svg2"
   version="1.1"
   inkscape:version="0.91 r13725"
   xml:space="preserve"
   width="2400"
   height="1350"
   viewBox="0 0 2400 1350"
   sodipodi:docname="Anabelle-Dizzy-Mouth.svg"><metadata
     id="metadata8"><rdf:RDF><cc:Work
         rdf:about=""><dc:format>image/svg+xml</dc:format><dc:type
           rdf:resource="http://purl.org/dc/dcmitype/StillImage" /><dc:title></dc:title></cc:Work></rdf:RDF></metadata><defs
     id="defs6"><clipPath
       clipPathUnits="userSpaceOnUse"
       id="clipPath16"><path
         d="m 0,1080 1920,0 L 1920,0 0,0 0,1080 Z"
         id="path18"
         inkscape:connector-curvature="0" /></clipPath></defs><sodipodi:namedview
     pagecolor="#ffffff"
     bordercolor="#666666"
     borderopacity="1"
     objecttolerance="10"
     gridtolerance="10"
     guidetolerance="10"
     inkscape:pageopacity="0"
     inkscape:pageshadow="2"
     inkscape:window-width="640"
     inkscape:window-height="480"
     id="namedview4"
     showgrid="false"
     inkscape:zoom="0.16375"
     inkscape:cx="613.74046"
     inkscape:cy="675"
     inkscape:window-x="0"
     inkscape:window-y="0"
     inkscape:window-maximized="0"
     inkscape:current-layer="g10" /><g
     id="g10"
     inkscape:groupmode="layer"
     inkscape:label="Anabelle-Dizzy-Mouth"
     transform="matrix(1.25,0,0,-1.25,0,1350)"><g
       id="g12"><g
         id="g14"
         clip-path="url(#clipPath16)"><g
           id="g20"
           transform="translate(595.7783,353.2168)"><path
             d="m 0,0 c 51.733,-2.809 91.912,-59.666 145.961,-53.463 51.688,9.192 84.446,51.318 140.959,27.527 28.257,-11.894 51.878,-41.812 82.419,-35.699 35.241,6.135 49.202,45.19 77.324,69.297 53.906,45.205 108.057,24.404 159.923,-14.406 58.92,-38.785 84.726,-23.69 143.433,-5.469 56.368,15.211 124.702,-26.537 70.919,-104.748 -39.752,-57.154 -126.785,-45.475 -176.266,-15.656 -65.974,38.76 -108.526,101.607 -185.918,50.314 -60.97,-42.232 -98.373,-99.375 -169.036,-63.635 -61.238,29.776 -115.31,29.575 -178.675,-0.664 -25.816,-12.099 -46.908,-30.179 -75.142,-24.283 -30.585,5.887 -49.483,29.819 -80.056,32.703 -18.82,2.934 -44.876,-12.136 -42.396,20.848 C -83.534,-77.203 -58.786,2.781 0,0"
             style="fill:#ffffff;fill-opacity:1;fill-rule:nonzero;stroke:none"
             id="path22"
             inkscape:connector-curvature="0" /></g><g
           id="g24"
           transform="translate(595.7783,339.7168)"><path
             d="M 0,0 C 1.312,-0.082 2.616,-0.188 3.924,-0.316 8.177,-0.735 1.298,0.136 5.501,-0.563 8.07,-0.99 10.605,-1.6 13.123,-2.258 c 2.529,-0.66 5.016,-1.476 7.485,-2.332 1.243,-0.43 2.471,-0.904 3.699,-1.376 0.819,-0.321 1.636,-0.65 2.45,-0.987 -1.193,0.496 -1.049,0.424 0.431,-0.218 10.347,-4.583 20.126,-10.385 29.835,-16.165 19.715,-11.738 39.949,-24.263 62.777,-28.75 12.963,-2.548 25.539,-2.209 38.353,0.965 12.071,2.988 23.606,7.92 34.927,12.978 19.795,8.846 38.589,18.791 58.611,19.377 6.145,0.18 10.138,-0.349 14.766,-1.3 6.196,-1.273 12.743,-3.519 17.533,-5.784 11.009,-5.205 20.859,-12.633 30.976,-19.326 10.199,-6.748 21.184,-12.971 33.197,-15.753 13.32,-3.083 26.866,-0.958 39.258,4.445 21.215,9.252 34.704,29.175 48.698,46.605 16.269,20.264 35.812,36.621 61.427,41.948 10.429,2.169 23.1,1.322 33.821,-1.143 13.128,-3.018 24.142,-7.985 35.839,-14.418 13.176,-7.248 24.83,-16.572 37.49,-24.573 11.867,-7.499 24.594,-13.865 37.97,-18.185 21.809,-7.045 44.395,-5.16 66.225,0.605 11.825,3.124 23.414,7.121 35.051,10.86 5.366,1.724 10.679,3.47 16.215,4.558 1.095,0.215 2.197,0.39 3.3,0.565 -3.417,-0.541 0.265,0.017 0.825,0.078 2.566,0.277 5.146,0.398 7.724,0.457 2.192,0.049 4.385,-0.021 6.573,-0.132 1.087,-0.054 2.171,-0.149 3.255,-0.244 0.598,-0.052 4.242,-0.513 0.705,-0.026 4.56,-0.627 9.05,-1.703 13.439,-3.078 0.994,-0.311 1.974,-0.663 2.955,-1.014 0.562,-0.201 3.825,-1.524 0.609,-0.164 1.877,-0.794 3.701,-1.705 5.5,-2.659 1.772,-0.939 3.479,-1.997 5.156,-3.095 0.829,-0.543 1.633,-1.127 2.435,-1.709 -2.944,2.139 0.546,-0.502 1.094,-0.975 1.474,-1.275 2.845,-2.663 4.174,-4.087 0.662,-0.709 1.285,-1.454 1.905,-2.198 -2.252,2.701 -0.173,0.201 0.225,-0.359 1.128,-1.586 2.113,-3.268 3.042,-4.975 0.469,-0.86 0.885,-1.749 1.301,-2.637 -1.577,3.369 0.209,-0.666 0.46,-1.388 0.669,-1.922 1.155,-3.904 1.581,-5.893 0.135,-0.631 0.648,-4.125 0.184,-0.551 0.138,-1.068 0.213,-2.142 0.287,-3.216 0.154,-2.234 0.107,-4.477 10e-4,-6.711 -0.056,-1.168 -0.177,-2.33 -0.297,-3.493 0.334,3.228 -0.362,-1.859 -0.474,-2.435 -2.414,-12.403 -7.039,-21.203 -13.866,-32.01 -0.956,-1.512 -1.963,-2.992 -2.969,-4.47 -0.043,-0.065 -2.613,-3.567 -1.017,-1.504 -1.575,-2.036 -3.278,-3.969 -5.021,-5.862 -1.706,-1.849 -3.529,-3.59 -5.388,-5.285 -0.917,-0.838 -1.87,-1.637 -2.822,-2.433 -1.223,-0.977 -1.28,-1.038 -0.172,-0.184 -0.652,-0.494 -1.312,-0.981 -1.978,-1.455 -3.95,-2.863 -8.187,-5.313 -12.539,-7.504 -1.085,-0.547 -2.191,-1.053 -3.296,-1.559 -3.65,-1.668 2.471,0.965 -1.258,-0.523 -2.644,-1.055 -5.348,-1.951 -8.066,-2.787 -4.703,-1.446 -9.521,-2.494 -14.366,-3.33 -0.342,-0.059 -4.406,-0.651 -1.318,-0.242 -1.233,-0.163 -2.472,-0.291 -3.71,-0.42 -2.903,-0.301 -5.82,-0.469 -8.736,-0.588 -5.04,-0.207 -10.09,-0.086 -15.124,0.205 -2.53,0.146 -5.053,0.381 -7.573,0.64 -1.261,0.133 -2.519,0.291 -3.777,0.45 2.947,-0.371 -2.176,0.365 -2.679,0.447 -10.298,1.678 -20.428,4.348 -30.294,7.726 -2.307,0.791 -4.59,1.651 -6.865,2.532 -1.124,0.435 -2.238,0.894 -3.353,1.351 2.791,-1.146 -0.84,0.387 -1.157,0.526 -4.583,2.029 -9.055,4.302 -13.433,6.742 -10.51,5.857 -20.519,12.633 -30.345,19.558 -37.36,26.337 -75.378,60.049 -124.489,52.946 -27.631,-3.998 -50.392,-20.507 -71.785,-37.293 -19.455,-15.266 -35.444,-30.223 -55.969,-42.705 -4.407,-2.68 -8.978,-5.078 -13.672,-7.213 -3.771,-1.715 2.416,0.937 -1.414,-0.582 -1.161,-0.459 -2.339,-0.875 -3.517,-1.287 -2.733,-0.961 -5.529,-1.729 -8.344,-2.405 -1.207,-0.291 -2.427,-0.523 -3.647,-0.757 -0.338,-0.065 -4.402,-0.633 -1.345,-0.252 -2.513,-0.313 -5.046,-0.432 -7.577,-0.489 -2.606,-0.056 -5.214,0.09 -7.81,0.303 -0.151,0.012 -4.475,0.59 -1.764,0.182 -1.839,0.277 -3.66,0.66 -5.476,1.056 -13.972,3.049 -25.292,9.918 -38.628,15.45 -13.536,5.615 -27.464,10.054 -41.857,12.863 -28.895,5.635 -58.332,4.125 -86.747,-3.373 -15.487,-4.086 -30.435,-10.145 -44.932,-16.897 -12.373,-5.761 -23.984,-12.986 -36.336,-18.779 -4.212,-1.977 -9.839,-3.85 -15.491,-5.045 -3.867,-0.818 -11.448,-0.609 -16.25,0.369 -12.075,2.459 -21.019,7.639 -32.115,13.996 -11.061,6.338 -22.244,12.541 -34.544,16.157 -2.877,0.845 -5.823,1.414 -8.782,1.873 2.446,-0.381 -8.625,1.144 -3.957,0.488 -1.809,0.254 -3.581,0.506 -5.392,0.658 -4.06,0.342 -8.18,-0.062 -12.222,-0.443 -3.359,-0.319 -6.71,-0.68 -10.084,-0.797 -1.665,-0.059 -3.326,0.008 -4.983,0.174 4.1,-0.408 1.588,-0.17 0.584,0.084 -1.057,0.265 -3.086,1.429 0.536,-0.323 -3.068,1.483 1.721,-2.035 -0.597,0.547 2.449,-2.728 0.971,-1.132 0.439,-0.088 1.662,-3.265 0.438,-0.74 0.187,0.233 -0.861,3.34 0.187,-3.051 -0.141,0.777 -0.112,1.305 -0.088,2.621 -0.074,3.93 0.021,2.092 0.239,4.187 0.44,6.267 0.14,1.459 0.315,2.915 0.497,4.368 -0.539,-4.311 0.3,1.841 0.47,2.884 0.648,3.985 1.455,7.942 2.345,11.877 1.862,8.231 4.28,16.332 7.145,24.267 0.646,1.788 1.335,3.561 2.034,5.329 0.157,0.395 1.636,3.92 0.395,1.008 0.451,1.057 0.922,2.103 1.393,3.15 1.881,4.178 3.981,8.254 6.231,12.244 2.036,3.61 4.281,7.098 6.666,10.487 0.642,0.912 1.311,1.804 1.98,2.697 -1.905,-2.539 0.347,0.379 0.64,0.736 1.387,1.692 2.861,3.312 4.364,4.901 1.238,1.308 2.54,2.552 3.86,3.777 0.784,0.729 1.599,1.424 2.413,2.119 0.405,0.345 3.241,2.53 0.602,0.531 3.366,2.548 7.014,4.699 10.81,6.536 3.203,1.55 -2.663,-1.014 0.652,0.305 0.986,0.393 1.993,0.73 2.999,1.068 2.04,0.683 4.134,1.191 6.236,1.638 0.563,0.119 4.2,0.684 0.746,0.223 1.111,0.148 2.229,0.232 3.346,0.316 C -4.629,0.115 -2.311,0.088 0,0 7.357,-0.279 13.5,6.354 13.5,13.5 13.5,21.071 7.352,26.721 0,27 c -44.598,1.697 -72.56,-36.247 -87.14,-73.746 -6.594,-16.961 -10.581,-34.85 -12.534,-52.918 -1.225,-11.338 -0.222,-21.873 6.97,-31.066 5.749,-7.35 16.688,-8.741 25.314,-8.319 3.732,0.184 7.449,0.664 11.17,0.981 1.889,0.16 3.782,0.254 5.677,0.289 0.928,0.017 1.855,-0.012 2.783,-0.047 0.608,-0.029 1.215,-0.072 1.82,-0.131 -2.999,0.424 -2.405,0.35 1.785,-0.225 3.488,-0.371 10.271,-2.226 15.17,-4.072 3.286,-1.238 10.151,-4.863 14.893,-7.521 11.311,-6.342 22.339,-12.807 34.549,-17.336 13.669,-5.069 28.171,-6.041 42.394,-3.034 13.272,2.807 25.621,9.799 37.413,16.243 12.643,6.908 25.495,13.203 39.026,18.191 26.707,9.848 53.279,13.936 81.633,10.865 12.375,-1.338 26.958,-5.308 39.593,-9.771 13.899,-4.906 26.688,-12.326 40.577,-17.223 23.572,-8.308 47.796,-6.049 70.459,3.608 21.712,9.25 40.228,25.4 58.321,40.173 19.399,15.84 39.731,33.769 63.086,41.45 2.668,0.877 5.392,1.574 8.129,2.199 1.316,0.301 2.646,0.537 3.975,0.774 4.268,0.761 -2.614,-0.243 1.626,0.23 5.43,0.603 10.916,0.5 16.344,-0.047 4.05,-0.408 -2.723,0.455 1.28,-0.199 1.209,-0.199 2.409,-0.45 3.608,-0.702 2.402,-0.501 4.769,-1.158 7.12,-1.856 2.371,-0.704 4.698,-1.546 7.01,-2.422 0.229,-0.087 4.017,-1.669 1.397,-0.542 1.548,-0.666 3.071,-1.387 4.59,-2.113 20.673,-9.889 38.836,-24.539 57.321,-37.881 18.824,-13.586 38.03,-26.043 59.621,-34.744 20.043,-8.078 41.708,-12.486 63.279,-13.395 22.233,-0.937 44.481,3.073 64.62,12.586 22.004,10.397 38.268,29.123 49.319,50.44 10.26,19.793 16.019,43.86 7.996,65.47 -7.13,19.204 -22.533,32.522 -41.196,40.1 -18.357,7.454 -38.975,8.108 -58.211,4.074 -12.17,-2.551 -24.024,-7.424 -35.889,-11.125 -5.206,-1.623 -10.442,-3.148 -15.724,-4.509 -2.476,-0.639 -4.969,-1.207 -7.47,-1.739 -1.219,-0.259 -2.443,-0.486 -3.669,-0.715 -0.537,-0.099 -5.623,-0.882 -2.458,-0.457 -23.014,-3.089 -40.527,2.862 -60.919,14.602 -13.117,7.553 -24.88,17.174 -37.866,24.971 -12.329,7.403 -25.509,13.591 -39.188,18.047 -27.315,8.898 -55.778,7.169 -81.81,-4.765 -24.817,-11.378 -41.738,-31.568 -58.235,-52.437 -6.826,-8.632 -13.916,-17.131 -22.509,-24.074 2.115,1.709 -1.171,-0.774 -1.331,-0.886 -1.032,-0.717 -2.106,-1.373 -3.179,-2.026 -1.074,-0.654 -2.189,-1.238 -3.305,-1.821 -0.2,-0.105 -3.972,-1.769 -1.396,-0.719 -2.412,-0.983 -4.925,-1.689 -7.453,-2.298 -1.332,-0.321 -2.693,-0.539 -4.04,-0.785 2.166,0.396 -2.76,-0.068 -3.297,-0.076 -1.346,-0.018 -2.69,0.094 -4.029,0.205 2.781,-0.231 -1.456,0.306 -1.679,0.351 -2.631,0.534 -5.192,1.385 -7.71,2.301 -4.106,1.493 2.206,-1.064 -1.812,0.764 -1.264,0.576 -2.499,1.215 -3.734,1.849 -2.947,1.518 -5.792,3.235 -8.61,4.978 -10.379,6.422 -20.099,13.841 -30.759,19.819 -23.224,13.024 -49.785,16.524 -75.507,9.85 -11.368,-2.95 -22.223,-7.842 -32.882,-12.686 -10.939,-4.97 -19.668,-9.203 -29.696,-12.853 -5.393,-1.965 -10.901,-3.584 -16.485,-4.899 -4.728,-1.113 -9.203,-1.378 -15.643,-0.983 -1.315,0.081 -2.626,0.231 -3.935,0.38 2.881,-0.328 -1.367,0.283 -1.59,0.323 -2.577,0.465 -5.118,1.108 -7.641,1.798 -2.535,0.693 -5.026,1.539 -7.501,2.422 -1.245,0.443 -2.476,0.93 -3.705,1.416 -1.487,0.607 -1.639,0.667 -0.453,0.176 -0.817,0.355 -1.629,0.717 -2.439,1.087 C 84.503,-9.799 66.043,3.84 45.655,13.876 31.197,20.992 16.158,25.979 0,27 -7.352,27.465 -13.5,20.508 -13.5,13.5 -13.5,5.79 -7.341,0.465 0,0"
             style="fill:#231f20;fill-opacity:1;fill-rule:nonzero;stroke:none"
             id="path26"
             inkscape:connector-curvature="0" /></g></g></g></g></svg>