<?xml version="1.0" encoding="UTF-8" standalone="no"?>
<svg
   xmlns:dc="http://purl.org/dc/elements/1.1/"
   xmlns:cc="http://creativecommons.org/ns#"
   xmlns:rdf="http://www.w3.org/1999/02/22-rdf-syntax-ns#"
   xmlns:svg="http://www.w3.org/2000/svg"
   xmlns="http://www.w3.org/2000/svg"
   viewBox="0 0 2400 1350"
   height="1350"
   width="2400"
   xml:space="preserve"
   version="1.1"
   id="svg2"><metadata
     id="metadata8"><rdf:RDF><cc:Work
         rdf:about=""><dc:format>image/svg+xml</dc:format><dc:type
           rdf:resource="http://purl.org/dc/dcmitype/StillImage" /><dc:title></dc:title></cc:Work></rdf:RDF></metadata><defs
     id="defs6"><clipPath
       id="clipPath16"
       clipPathUnits="userSpaceOnUse"><path
         id="path18"
         d="m 0,1080 1920,0 L 1920,0 0,0 0,1080 Z" /></clipPath></defs><g
     transform="matrix(1.25,0,0,-1.25,0,1350)"
     id="g10"><g
       id="g12"><g
         clip-path="url(#clipPath16)"
         id="g14"><g
           transform="translate(809.918,711.6465)"
           id="g20"><path
             id="path22"
             style="fill:#ffffff;fill-opacity:1;fill-rule:nonzero;stroke:none"
             d="M 0,0 C 0,84.91 -137.666,153.743 -307.485,153.743 -477.304,153.743 -614.969,84.91 -614.969,0 c 0,-84.909 137.665,-153.741 307.484,-153.741 C -137.666,-153.741 0,-84.909 0,0" /></g><g
           transform="translate(809.918,711.6465)"
           id="g24"><path
             id="path26"
             style="fill:none;stroke:#231f20;stroke-width:9;stroke-linecap:butt;stroke-linejoin:miter;stroke-miterlimit:4;stroke-dasharray:none;stroke-opacity:1"
             d="M 0,0 C 0,84.91 -137.666,153.743 -307.485,153.743 -477.304,153.743 -614.969,84.91 -614.969,0 c 0,-84.909 137.665,-153.741 307.484,-153.741 C -137.666,-153.741 0,-84.909 0,0 Z" /></g><g
           transform="translate(1724.874,711.4033)"
           id="g28"><path
             id="path30"
             style="fill:#ffffff;fill-opacity:1;fill-rule:nonzero;stroke:none"
             d="m 0,0 c 0,85.044 -137.665,153.986 -307.484,153.986 -169.82,0 -307.485,-68.942 -307.485,-153.986 0,-85.044 137.665,-153.986 307.485,-153.986 C -137.665,-153.986 0,-85.044 0,0" /></g><g
           transform="translate(1724.874,711.4033)"
           id="g32"><path
             id="path34"
             style="fill:none;stroke:#231f20;stroke-width:9;stroke-linecap:butt;stroke-linejoin:miter;stroke-miterlimit:4;stroke-dasharray:none;stroke-opacity:1"
             d="m 0,0 c 0,85.044 -137.665,153.986 -307.484,153.986 -169.82,0 -307.485,-68.942 -307.485,-153.986 0,-85.044 137.665,-153.986 307.485,-153.986 C -137.665,-153.986 0,-85.044 0,0 Z" /></g><g
           transform="translate(664.4258,712.3276)"
           id="g36"><path
             id="path38"
             style="fill:#00b0d8;fill-opacity:1;fill-rule:nonzero;stroke:none"
             d="m 0,0 c 0,80.025 -73.198,144.899 -163.492,144.899 -90.294,0 -163.492,-64.874 -163.492,-144.899 0,-80.025 73.198,-144.899 163.492,-144.899 C -73.198,-144.899 0,-80.025 0,0" /></g><g
           transform="translate(664.4258,712.3276)"
           id="g40"><path
             id="path42"
             style="fill:none;stroke:#231f20;stroke-width:9;stroke-linecap:butt;stroke-linejoin:miter;stroke-miterlimit:4;stroke-dasharray:none;stroke-opacity:1"
             d="m 0,0 c 0,80.025 -73.198,144.899 -163.492,144.899 -90.294,0 -163.492,-64.874 -163.492,-144.899 0,-80.025 73.198,-144.899 163.492,-144.899 C -73.198,-144.899 0,-80.025 0,0 Z" /></g><g
           transform="translate(1579.3818,712.0845)"
           id="g44"><path
             id="path46"
             style="fill:#00b0d8;fill-opacity:1;fill-rule:nonzero;stroke:none"
             d="m 0,0 c 0,80.152 -73.197,145.129 -163.491,145.129 -90.294,0 -163.492,-64.977 -163.492,-145.129 0,-80.152 73.198,-145.128 163.492,-145.128 C -73.197,-145.128 0,-80.152 0,0" /></g><g
           transform="translate(1579.3818,712.0845)"
           id="g48"><path
             id="path50"
             style="fill:none;stroke:#231f20;stroke-width:9;stroke-linecap:butt;stroke-linejoin:miter;stroke-miterlimit:4;stroke-dasharray:none;stroke-opacity:1"
             d="m 0,0 c 0,80.152 -73.197,145.129 -163.491,145.129 -90.294,0 -163.492,-64.977 -163.492,-145.129 0,-80.152 73.198,-145.128 163.492,-145.128 C -73.197,-145.128 0,-80.152 0,0 Z" /></g></g></g></g></svg>